<?xml version="1.0" encoding="us-ascii" standalone="no"?><svg xmlns="http://www.w3.org/2000/svg" xmlns:xlink="http://www.w3.org/1999/xlink" contentStyleType="text/css" height="1111px" preserveAspectRatio="none" style="width:766px;height:1111px;background:#FFFFFF;" version="1.1" viewBox="0 0 766 1111" width="766px" zoomAndPan="magnify"><defs/><g><text fill="#000000" font-family="sans-serif" font-size="14" font-weight="bold" lengthAdjust="spacing" textLength="327" x="218.25" y="34.9659">AT-02 - Cadastro de Atleta pelo Capit&#227;o (RF001)</text><rect fill="none" height="24.5158" style="stroke:none;stroke-width:1.0;" width="733.5" x="15" y="53.8419"/><ellipse cx="105" cy="93.3577" fill="#222222" rx="10" ry="10" style="stroke:#222222;stroke-width:1.0;"/><rect fill="#FEFEFE" height="36.3441" rx="12.5" ry="12.5" style="stroke:#555555;stroke-width:0.5;" width="168" x="21" y="123.3577"/><text fill="#000000" font-family="sans-serif" font-size="12" lengthAdjust="spacing" textLength="148" x="31" y="146.1858">Acessar /atletas/cadastrar</text><rect fill="#FEFEFE" height="36.3441" rx="12.5" ry="12.5" style="stroke:#555555;stroke-width:0.5;" width="205" x="110.5" y="280.046"/><text fill="#000000" font-family="sans-serif" font-size="12" lengthAdjust="spacing" textLength="185" x="120.5" y="302.874">Visualizar formul&#225;rio de cadastro</text><rect fill="#FEFEFE" height="118.0647" rx="12.5" ry="12.5" style="stroke:#555555;stroke-width:0.5;" width="141" x="142.5" y="380.3901"/><text fill="#000000" font-family="sans-serif" font-size="12" lengthAdjust="spacing" textLength="98" x="152.5" y="403.2182">Preencher dados:</text><text fill="#000000" font-family="sans-serif" font-size="12" lengthAdjust="spacing" textLength="41" x="152.5" y="419.5623">- Nome</text><text fill="#000000" font-family="sans-serif" font-size="12" lengthAdjust="spacing" textLength="60" x="152.5" y="435.9064">- Matr&#237;cula</text><text fill="#000000" font-family="sans-serif" font-size="12" lengthAdjust="spacing" textLength="34" x="152.5" y="452.2505">- Sexo</text><text fill="#000000" font-family="sans-serif" font-size="12" lengthAdjust="spacing" textLength="121" x="152.5" y="468.5946">- Data de Nascimento</text><text fill="#000000" font-family="sans-serif" font-size="12" lengthAdjust="spacing" textLength="31" x="152.5" y="484.9387">- Foto</text><polygon fill="#FFF9C4" points="213,336.3901,225,348.3901,213,360.3901,201,348.3901,213,336.3901" style="stroke:#888800;stroke-width:0.5;"/><polygon fill="#FFF9C4" points="174,870.469,252,870.469,264,882.469,252,894.469,174,894.469,162,882.469,174,870.469" style="stroke:#888800;stroke-width:0.5;"/><text fill="#000000" font-family="sans-serif" font-size="11" lengthAdjust="spacing" textLength="78" x="174" y="886.737">Dados v&#225;lidos?</text><text fill="#000000" font-family="sans-serif" font-size="11" lengthAdjust="spacing" textLength="20" x="264" y="879.246">n&#227;o</text><rect fill="#FEFEFE" height="36.3441" rx="12.5" ry="12.5" style="stroke:#555555;stroke-width:0.5;" width="216" x="105" y="1005.4207"/><text fill="#000000" font-family="sans-serif" font-size="12" lengthAdjust="spacing" textLength="196" x="115" y="1028.2487">Visualizar confirma&#231;&#227;o de cadastro</text><ellipse cx="213" cy="1072.7648" fill="none" rx="11" ry="11" style="stroke:#222222;stroke-width:1.0;"/><ellipse cx="213" cy="1072.7648" fill="#222222" rx="6" ry="6" style="stroke:#222222;stroke-width:1.0;"/><line style="stroke:#AAAAAA;stroke-width:1.5;" x1="15" x2="15" y1="53.8419" y2="1099.7648"/><rect fill="#FEFEFE" height="36.3441" rx="12.5" ry="12.5" style="stroke:#555555;stroke-width:0.5;" width="167" x="432.5" y="179.7018"/><text fill="#000000" font-family="sans-serif" font-size="12" lengthAdjust="spacing" textLength="147" x="442.5" y="202.5299">Verificar sess&#227;o e n&#237;vel N1</text><polygon fill="#FFF9C4" points="484.5,236.046,547.5,236.046,559.5,248.046,547.5,260.046,484.5,260.046,472.5,248.046,484.5,236.046" style="stroke:#888800;stroke-width:0.5;"/><text fill="#000000" font-family="sans-serif" font-size="11" lengthAdjust="spacing" textLength="63" x="484.5" y="252.3139">Autorizado?</text><text fill="#000000" font-family="sans-serif" font-size="11" lengthAdjust="spacing" textLength="20" x="452.5" y="244.823">n&#227;o</text><text fill="#000000" font-family="sans-serif" font-size="11" lengthAdjust="spacing" textLength="18" x="559.5" y="244.823">sim</text><rect fill="#FEFEFE" height="36.3441" rx="12.5" ry="12.5" style="stroke:#555555;stroke-width:0.5;" width="154" x="331" y="280.046"/><text fill="#000000" font-family="sans-serif" font-size="12" lengthAdjust="spacing" textLength="134" x="341" y="302.874">Redirecionar para /login</text><ellipse cx="408" cy="347.3901" fill="none" rx="11" ry="11" style="stroke:#222222;stroke-width:1.0;"/><ellipse cx="408" cy="347.3901" fill="#222222" rx="6" ry="6" style="stroke:#222222;stroke-width:1.0;"/><rect fill="#FEFEFE" height="52.6882" rx="12.5" ry="12.5" style="stroke:#555555;stroke-width:0.5;" width="208" x="520" y="518.4548"/><text fill="#000000" font-family="sans-serif" font-size="12" lengthAdjust="spacing" textLength="95" x="530" y="541.2828">Validar matr&#237;cula</text><text fill="#000000" font-family="sans-serif" font-size="12" lengthAdjust="spacing" textLength="188" x="530" y="557.627">[RN001: s&#243; n&#250;meros, 6-10 d&#237;gitos]</text><rect fill="#FEFEFE" height="36.3441" rx="12.5" ry="12.5" style="stroke:#555555;stroke-width:0.5;" width="197" x="525.5" y="591.143"/><text fill="#000000" font-family="sans-serif" font-size="12" lengthAdjust="spacing" textLength="177" x="535.5" y="613.9711">Verificar unicidade da matr&#237;cula</text><rect fill="#FEFEFE" height="52.6882" rx="12.5" ry="12.5" style="stroke:#555555;stroke-width:0.5;" width="238" x="505" y="647.9457"/><text fill="#000000" font-family="sans-serif" font-size="12" lengthAdjust="spacing" textLength="152" x="515" y="670.7738">Validar data de nascimento</text><text fill="#000000" font-family="sans-serif" font-size="12" lengthAdjust="spacing" textLength="218" x="515" y="687.1179">[RN002: n&#227;o futura, idade 14-100 anos]</text><rect fill="#FEFEFE" height="36.3441" rx="12.5" ry="12.5" style="stroke:#555555;stroke-width:0.5;" width="157" x="545.5" y="770.1249"/><text fill="#000000" font-family="sans-serif" font-size="12" lengthAdjust="spacing" textLength="137" x="555.5" y="792.953">Exibir erros de valida&#231;&#227;o</text><polygon fill="#FFF9C4" points="585,720.6339,663,720.6339,675,732.6339,663,744.6339,585,744.6339,573,732.6339,585,720.6339" style="stroke:#888800;stroke-width:0.5;"/><text fill="#000000" font-family="sans-serif" font-size="11" lengthAdjust="spacing" textLength="20" x="628" y="756.3928">n&#227;o</text><text fill="#000000" font-family="sans-serif" font-size="11" lengthAdjust="spacing" textLength="78" x="585" y="736.9019">Dados v&#225;lidos?</text><text fill="#000000" font-family="sans-serif" font-size="11" lengthAdjust="spacing" textLength="18" x="675" y="729.411">sim</text><polygon fill="#FFF9C4" points="624,826.469,636,838.469,624,850.469,612,838.469,624,826.469" style="stroke:#888800;stroke-width:0.5;"/><rect fill="#FEFEFE" height="52.6882" rx="12.5" ry="12.5" style="stroke:#555555;stroke-width:0.5;" width="147" x="550.5" y="932.7324"/><text fill="#000000" font-family="sans-serif" font-size="12" lengthAdjust="spacing" textLength="127" x="560.5" y="955.5605">Salvar Atleta vinculado</text><text fill="#000000" font-family="sans-serif" font-size="12" lengthAdjust="spacing" textLength="114" x="560.5" y="971.9046">&#224; atl&#233;tica do Capit&#227;o</text><line style="stroke:#AAAAAA;stroke-width:1.5;" x1="325" x2="325" y1="53.8419" y2="1099.7648"/><line style="stroke:#AAAAAA;stroke-width:1.5;" x1="747" x2="747" y1="53.8419" y2="1099.7648"/><line style="stroke:#444444;stroke-width:1.0;" x1="105" x2="105" y1="103.3577" y2="123.3577"/><polygon fill="#444444" points="101,113.3577,105,123.3577,109,113.3577,105,117.3577" style="stroke:#444444;stroke-width:1.0;"/><line style="stroke:#444444;stroke-width:1.0;" x1="213" x2="213" y1="360.3901" y2="380.3901"/><polygon fill="#444444" points="209,370.3901,213,380.3901,217,370.3901,213,374.3901" style="stroke:#444444;stroke-width:1.0;"/><line style="stroke:#444444;stroke-width:1.0;" x1="162" x2="82" y1="882.469" y2="882.469"/><polygon fill="#444444" points="78,627.9457,82,617.9457,86,627.9457,82,623.9457" style="stroke:#444444;stroke-width:1.0;"/><line style="stroke:#444444;stroke-width:1.0;" x1="82" x2="82" y1="348.3901" y2="882.469"/><line style="stroke:#444444;stroke-width:1.0;" x1="82" x2="201" y1="348.3901" y2="348.3901"/><polygon fill="#444444" points="191,344.3901,201,348.3901,191,352.3901,195,348.3901" style="stroke:#444444;stroke-width:1.0;"/><line style="stroke:#444444;stroke-width:1.0;" x1="213" x2="213" y1="316.3901" y2="336.3901"/><polygon fill="#444444" points="209,326.3901,213,336.3901,217,326.3901,213,330.3901" style="stroke:#444444;stroke-width:1.0;"/><line style="stroke:#444444;stroke-width:1.0;" x1="213" x2="213" y1="1041.7648" y2="1061.7648"/><polygon fill="#444444" points="209,1051.7648,213,1061.7648,217,1051.7648,213,1055.7648" style="stroke:#444444;stroke-width:1.0;"/><line style="stroke:#444444;stroke-width:1.0;" x1="408" x2="408" y1="316.3901" y2="336.3901"/><polygon fill="#444444" points="404,326.3901,408,336.3901,412,326.3901,408,330.3901" style="stroke:#444444;stroke-width:1.0;"/><line style="stroke:#444444;stroke-width:1.0;" x1="624" x2="624" y1="571.143" y2="591.143"/><polygon fill="#444444" points="620,581.143,624,591.143,628,581.143,624,585.143" style="stroke:#444444;stroke-width:1.0;"/><line style="stroke:#444444;stroke-width:1.0;" x1="624" x2="624" y1="627.4871" y2="647.9457"/><polygon fill="#444444" points="620,637.9457,624,647.9457,628,637.9457,624,641.9457" style="stroke:#444444;stroke-width:1.0;"/><line style="stroke:#444444;stroke-width:1.0;" x1="624" x2="624" y1="744.6339" y2="770.1249"/><polygon fill="#444444" points="620,760.1249,624,770.1249,628,760.1249,624,764.1249" style="stroke:#444444;stroke-width:1.0;"/><line style="stroke:#444444;stroke-width:1.0;" x1="675" x2="712.5" y1="732.6339" y2="732.6339"/><polygon fill="#444444" points="708.5,778.2969,712.5,788.2969,716.5,778.2969,712.5,782.2969" style="stroke:#444444;stroke-width:1.0;"/><line style="stroke:#444444;stroke-width:1.0;" x1="712.5" x2="712.5" y1="732.6339" y2="838.469"/><line style="stroke:#444444;stroke-width:1.0;" x1="712.5" x2="636" y1="838.469" y2="838.469"/><polygon fill="#444444" points="646,834.469,636,838.469,646,842.469,642,838.469" style="stroke:#444444;stroke-width:1.0;"/><line style="stroke:#444444;stroke-width:1.0;" x1="624" x2="624" y1="806.469" y2="826.469"/><polygon fill="#444444" points="620,816.469,624,826.469,628,816.469,624,820.469" style="stroke:#444444;stroke-width:1.0;"/><line style="stroke:#444444;stroke-width:1.0;" x1="624" x2="624" y1="700.6339" y2="720.6339"/><polygon fill="#444444" points="620,710.6339,624,720.6339,628,710.6339,624,714.6339" style="stroke:#444444;stroke-width:1.0;"/><line style="stroke:#444444;stroke-width:1.0;" x1="472.5" x2="408" y1="248.046" y2="248.046"/><line style="stroke:#444444;stroke-width:1.0;" x1="408" x2="408" y1="248.046" y2="280.046"/><polygon fill="#444444" points="404,270.046,408,280.046,412,270.046,408,274.046" style="stroke:#444444;stroke-width:1.0;"/><line style="stroke:#444444;stroke-width:1.0;" x1="516" x2="516" y1="216.046" y2="236.046"/><polygon fill="#444444" points="512,226.046,516,236.046,520,226.046,516,230.046" style="stroke:#444444;stroke-width:1.0;"/><line style="stroke:#444444;stroke-width:1.0;" x1="105" x2="105" y1="159.7018" y2="164.7018"/><line style="stroke:#444444;stroke-width:1.0;" x1="105" x2="516" y1="164.7018" y2="164.7018"/><line style="stroke:#444444;stroke-width:1.0;" x1="516" x2="516" y1="164.7018" y2="179.7018"/><polygon fill="#444444" points="512,169.7018,516,179.7018,520,169.7018,516,173.7018" style="stroke:#444444;stroke-width:1.0;"/><line style="stroke:#444444;stroke-width:1.0;" x1="213" x2="213" y1="498.4548" y2="503.4548"/><line style="stroke:#444444;stroke-width:1.0;" x1="213" x2="624" y1="503.4548" y2="503.4548"/><line style="stroke:#444444;stroke-width:1.0;" x1="624" x2="624" y1="503.4548" y2="518.4548"/><polygon fill="#444444" points="620,508.4548,624,518.4548,628,508.4548,624,512.4548" style="stroke:#444444;stroke-width:1.0;"/><line style="stroke:#444444;stroke-width:1.0;" x1="624" x2="624" y1="850.469" y2="855.469"/><line style="stroke:#444444;stroke-width:1.0;" x1="624" x2="213" y1="855.469" y2="855.469"/><line style="stroke:#444444;stroke-width:1.0;" x1="213" x2="213" y1="855.469" y2="870.469"/><polygon fill="#444444" points="209,860.469,213,870.469,217,860.469,213,864.469" style="stroke:#444444;stroke-width:1.0;"/><line style="stroke:#444444;stroke-width:1.0;" x1="213" x2="213" y1="894.469" y2="917.7324"/><line style="stroke:#444444;stroke-width:1.0;" x1="213" x2="624" y1="917.7324" y2="917.7324"/><line style="stroke:#444444;stroke-width:1.0;" x1="624" x2="624" y1="917.7324" y2="932.7324"/><polygon fill="#444444" points="620,922.7324,624,932.7324,628,922.7324,624,926.7324" style="stroke:#444444;stroke-width:1.0;"/><text fill="#000000" font-family="sans-serif" font-size="11" lengthAdjust="spacing" textLength="18" x="217" y="911.2324">sim</text><line style="stroke:#444444;stroke-width:1.0;" x1="624" x2="624" y1="985.4207" y2="990.4207"/><line style="stroke:#444444;stroke-width:1.0;" x1="624" x2="213" y1="990.4207" y2="990.4207"/><line style="stroke:#444444;stroke-width:1.0;" x1="213" x2="213" y1="990.4207" y2="1005.4207"/><polygon fill="#444444" points="209,995.4207,213,1005.4207,217,995.4207,213,999.4207" style="stroke:#444444;stroke-width:1.0;"/><line style="stroke:#444444;stroke-width:1.0;" x1="559.5" x2="571.5" y1="248.046" y2="248.046"/><line style="stroke:#444444;stroke-width:1.0;" x1="571.5" x2="571.5" y1="248.046" y2="266.046"/><line style="stroke:#444444;stroke-width:1.0;" x1="571.5" x2="213" y1="266.046" y2="266.046"/><line style="stroke:#444444;stroke-width:1.0;" x1="213" x2="213" y1="266.046" y2="280.046"/><polygon fill="#444444" points="209,270.046,213,280.046,217,270.046,213,274.046" style="stroke:#444444;stroke-width:1.0;"/><text fill="#000000" font-family="sans-serif" font-size="18" lengthAdjust="spacing" textLength="65" x="137.5" y="73.0838">Capit&#227;o</text><text fill="#000000" font-family="sans-serif" font-size="18" lengthAdjust="spacing" textLength="68" x="502" y="73.0838">Sistema</text><!--SRC=[VLInRjim4Dtr5GTqSO0ObWEdI2MWXPj4Mut2BhAq7QuYdHmYaSQHajF27zEWGz71KxUk-h6UQ2MHuI3K88byzzxZuqcUVA5X-caOdy0Gpb6Xysn1oPmiU8ILBgpChyWtlomCvbaSZu-YoDsIMI5Z2PXxgib_Vu_vxJNRogXpMrY6LzbbUps7jAmqTwZJC9v1NH2MrgX3sYnxSpvveQ3FVYOZZdlWARDTTukJC7gBRarbWKOVQfvcPrds7B8lDWqZYZOFSMqYvv5zb4npxHmoZ324waRvBcZaLE0BSbwNk8cIAysqf5oGJWhQm3MOPblh0cPZWT8I1jFAMwOVgEox8_0tsi302F8e0aZcMX7hdAmHYjOfZ0fxJIQLHUVjAjA5qp1mLBRmda-flI9NOI7434lBPLKqzqoX4pgpLWm0i5vfzF8W9HzPQvFVQ0ObTbponGnXPalTtZ-WvsQRLmMsRmjzPzlx1KfB2UKCNKwbDZxCPjRloCNJOnX1uKeSAN5KzjW-psVIWmcuvg-4yw_KRDqnl1wEOr3DzfgyTL_JhlmnpyfGBamYhR37bkxBgCwUwTaBSYS9j273il8Lup7igCOJ4Oq1JL0CLEq9NRHXGDtS2wbr1wSK52_lw1inQ6b7rohMmK7pMp1fXzax7e2zevDNeqJiyK1WVKFo8HzgatjI7hu5gGzE-pad2ongsNttnTTascYKxBtv2TAnpHyl6O9w-W-aBtLFRisIkDnjPhz_7hfmv_q_]--></g></svg>