<?xml version="1.0" encoding="us-ascii" standalone="no"?><svg xmlns="http://www.w3.org/2000/svg" xmlns:xlink="http://www.w3.org/1999/xlink" contentStyleType="text/css" height="1730px" preserveAspectRatio="none" style="width:954px;height:1730px;background:#FFFFFF;" version="1.1" viewBox="0 0 954 1730" width="954px" zoomAndPan="magnify"><defs/><g><text fill="#000000" font-family="sans-serif" font-size="14" font-weight="bold" lengthAdjust="spacing" textLength="379" x="286.125" y="34.9659">AT-04 - Upload de Planilha de Partidas (RF008 + RN006)</text><rect fill="none" height="24.5158" style="stroke:none;stroke-width:1.0;" width="921.25" x="15" y="53.8419"/><ellipse cx="104" cy="93.3577" fill="#222222" rx="10" ry="10" style="stroke:#222222;stroke-width:1.0;"/><rect fill="#FEFEFE" height="36.3441" rx="12.5" ry="12.5" style="stroke:#555555;stroke-width:0.5;" width="166" x="21" y="123.3577"/><text fill="#000000" font-family="sans-serif" font-size="12" lengthAdjust="spacing" textLength="146" x="31" y="146.1858">Acessar /partidas/planilha</text><rect fill="#FEFEFE" height="36.3441" rx="12.5" ry="12.5" style="stroke:#555555;stroke-width:0.5;" width="194" x="150.75" y="280.046"/><text fill="#000000" font-family="sans-serif" font-size="12" lengthAdjust="spacing" textLength="174" x="160.75" y="302.874">Visualizar formul&#225;rio de upload</text><rect fill="#FEFEFE" height="36.3441" rx="12.5" ry="12.5" style="stroke:#555555;stroke-width:0.5;" width="240" x="127.75" y="336.3901"/><text fill="#000000" font-family="sans-serif" font-size="12" lengthAdjust="spacing" textLength="220" x="137.75" y="359.2182">Selecionar e enviar arquivo .xlsx ou .csv</text><rect fill="#FEFEFE" height="52.6882" rx="12.5" ry="12.5" style="stroke:#555555;stroke-width:0.5;" width="205" x="145.25" y="1608.22"/><text fill="#000000" font-family="sans-serif" font-size="12" lengthAdjust="spacing" textLength="127" x="155.25" y="1631.0481">Visualizar confirma&#231;&#227;o</text><text fill="#000000" font-family="sans-serif" font-size="12" lengthAdjust="spacing" textLength="185" x="155.25" y="1647.3922">com total de partidas importadas</text><ellipse cx="247.75" cy="1691.9082" fill="none" rx="11" ry="11" style="stroke:#222222;stroke-width:1.0;"/><ellipse cx="247.75" cy="1691.9082" fill="#222222" rx="6" ry="6" style="stroke:#222222;stroke-width:1.0;"/><line style="stroke:#AAAAAA;stroke-width:1.5;" x1="15" x2="15" y1="53.8419" y2="1718.9082"/><rect fill="#FEFEFE" height="36.3441" rx="12.5" ry="12.5" style="stroke:#555555;stroke-width:0.5;" width="184" x="506.5" y="179.7018"/><text fill="#000000" font-family="sans-serif" font-size="12" lengthAdjust="spacing" textLength="164" x="516.5" y="202.5299">Verificar sess&#227;o e n&#237;vel &gt;= N2</text><polygon fill="#FFF9C4" points="567,236.046,630,236.046,642,248.046,630,260.046,567,260.046,555,248.046,567,236.046" style="stroke:#888800;stroke-width:0.5;"/><text fill="#000000" font-family="sans-serif" font-size="11" lengthAdjust="spacing" textLength="63" x="567" y="252.3139">Autorizado?</text><text fill="#000000" font-family="sans-serif" font-size="11" lengthAdjust="spacing" textLength="20" x="535" y="244.823">n&#227;o</text><text fill="#000000" font-family="sans-serif" font-size="11" lengthAdjust="spacing" textLength="18" x="642" y="244.823">sim</text><rect fill="#FEFEFE" height="36.3441" rx="12.5" ry="12.5" style="stroke:#555555;stroke-width:0.5;" width="154" x="377.75" y="280.046"/><text fill="#000000" font-family="sans-serif" font-size="12" lengthAdjust="spacing" textLength="134" x="387.75" y="302.874">Redirecionar para /login</text><ellipse cx="454.75" cy="347.3901" fill="none" rx="11" ry="11" style="stroke:#222222;stroke-width:1.0;"/><ellipse cx="454.75" cy="347.3901" fill="#222222" rx="6" ry="6" style="stroke:#222222;stroke-width:1.0;"/><rect fill="#FEFEFE" height="36.3441" rx="12.5" ry="12.5" style="stroke:#555555;stroke-width:0.5;" width="183" x="650.75" y="392.7342"/><text fill="#000000" font-family="sans-serif" font-size="12" lengthAdjust="spacing" textLength="163" x="660.75" y="415.5623">Verificar extens&#227;o do arquivo</text><rect fill="#FEFEFE" height="36.3441" rx="12.5" ry="12.5" style="stroke:#555555;stroke-width:0.5;" width="157" x="663.75" y="498.5692"/><text fill="#000000" font-family="sans-serif" font-size="12" lengthAdjust="spacing" textLength="137" x="673.75" y="521.3973">Exibir "Formato inv&#225;lido"</text><ellipse cx="742.25" cy="573.2413" fill="none" rx="11" ry="11" style="stroke:#222222;stroke-width:1.0;"/><ellipse cx="742.25" cy="573.2413" fill="#222222" rx="6" ry="6" style="stroke:#222222;stroke-width:1.0;"/><polygon fill="#FFF9C4" points="689.25,449.0783,795.25,449.0783,807.25,461.0783,795.25,473.0783,689.25,473.0783,677.25,461.0783,689.25,449.0783" style="stroke:#888800;stroke-width:0.5;"/><text fill="#000000" font-family="sans-serif" font-size="11" lengthAdjust="spacing" textLength="20" x="746.25" y="484.8372">n&#227;o</text><text fill="#000000" font-family="sans-serif" font-size="11" lengthAdjust="spacing" textLength="106" x="689.25" y="465.3463">Extens&#227;o permitida?</text><text fill="#000000" font-family="sans-serif" font-size="11" lengthAdjust="spacing" textLength="18" x="807.25" y="457.8553">sim</text><rect fill="#FEFEFE" height="52.6882" rx="12.5" ry="12.5" style="stroke:#555555;stroke-width:0.5;" width="249" x="617.75" y="626.2413"/><text fill="#000000" font-family="sans-serif" font-size="12" lengthAdjust="spacing" textLength="166" x="627.75" y="649.0694">Verificar padr&#245;es de registros</text><text fill="#000000" font-family="sans-serif" font-size="12" lengthAdjust="spacing" textLength="229" x="627.75" y="665.4135">[RN006: colunas obrigat&#243;rias e formatos]</text><rect fill="#FEFEFE" height="52.6882" rx="12.5" ry="12.5" style="stroke:#555555;stroke-width:0.5;" width="201" x="641.75" y="748.4205"/><text fill="#000000" font-family="sans-serif" font-size="12" lengthAdjust="spacing" textLength="181" x="651.75" y="771.2486">Gerar e exibir relat&#243;rio de erros;</text><text fill="#000000" font-family="sans-serif" font-size="12" lengthAdjust="spacing" textLength="148" x="651.75" y="787.5927">nenhum dado &#233; importado</text><ellipse cx="742.25" cy="832.1087" fill="none" rx="11" ry="11" style="stroke:#222222;stroke-width:1.0;"/><ellipse cx="742.25" cy="832.1087" fill="#222222" rx="6" ry="6" style="stroke:#222222;stroke-width:1.0;"/><polygon fill="#FFF9C4" points="698.25,698.9295,786.25,698.9295,798.25,710.9295,786.25,722.9295,698.25,722.9295,686.25,710.9295,698.25,698.9295" style="stroke:#888800;stroke-width:0.5;"/><text fill="#000000" font-family="sans-serif" font-size="11" lengthAdjust="spacing" textLength="18" x="746.25" y="734.6884">sim</text><text fill="#000000" font-family="sans-serif" font-size="11" lengthAdjust="spacing" textLength="88" x="698.25" y="715.1975">Padr&#227;o inv&#225;lido?</text><text fill="#000000" font-family="sans-serif" font-size="11" lengthAdjust="spacing" textLength="20" x="798.25" y="707.7066">n&#227;o</text><rect fill="#FEFEFE" height="52.6882" rx="12.5" ry="12.5" style="stroke:#555555;stroke-width:0.5;" width="203" x="640.75" y="885.1087"/><text fill="#000000" font-family="sans-serif" font-size="12" lengthAdjust="spacing" textLength="132" x="650.75" y="907.9368">Validar tipos de esporte</text><text fill="#000000" font-family="sans-serif" font-size="12" lengthAdjust="spacing" textLength="183" x="650.75" y="924.2809">contra modalidades cadastradas</text><rect fill="#FEFEFE" height="52.6882" rx="12.5" ry="12.5" style="stroke:#555555;stroke-width:0.5;" width="201" x="641.75" y="1007.2879"/><text fill="#000000" font-family="sans-serif" font-size="12" lengthAdjust="spacing" textLength="181" x="651.75" y="1030.116">Gerar e exibir relat&#243;rio de erros;</text><text fill="#000000" font-family="sans-serif" font-size="12" lengthAdjust="spacing" textLength="148" x="651.75" y="1046.4601">nenhum dado &#233; importado</text><ellipse cx="742.25" cy="1090.9761" fill="none" rx="11" ry="11" style="stroke:#222222;stroke-width:1.0;"/><ellipse cx="742.25" cy="1090.9761" fill="#222222" rx="6" ry="6" style="stroke:#222222;stroke-width:1.0;"/><polygon fill="#FFF9C4" points="678.75,957.7969,805.75,957.7969,817.75,969.7969,805.75,981.7969,678.75,981.7969,666.75,969.7969,678.75,957.7969" style="stroke:#888800;stroke-width:0.5;"/><text fill="#000000" font-family="sans-serif" font-size="11" lengthAdjust="spacing" textLength="18" x="746.25" y="993.5558">sim</text><text fill="#000000" font-family="sans-serif" font-size="11" lengthAdjust="spacing" textLength="127" x="678.75" y="974.0649">Modalidade inexistente?</text><text fill="#000000" font-family="sans-serif" font-size="11" lengthAdjust="spacing" textLength="20" x="817.75" y="966.574">n&#227;o</text><rect fill="#FEFEFE" height="52.6882" rx="12.5" ry="12.5" style="stroke:#555555;stroke-width:0.5;" width="272" x="606.25" y="1143.9761"/><text fill="#000000" font-family="sans-serif" font-size="12" lengthAdjust="spacing" textLength="226" x="616.25" y="1166.8042">Aplicar algoritmo de abstra&#231;&#227;o de dados</text><text fill="#000000" font-family="sans-serif" font-size="12" lengthAdjust="spacing" textLength="252" x="616.25" y="1183.1483">[RN006: detectar erros manuais dos &#225;rbitros]</text><rect fill="#FEFEFE" height="69.0323" rx="12.5" ry="12.5" style="stroke:#555555;stroke-width:0.5;" width="168" x="658.25" y="1266.1553"/><text fill="#000000" font-family="sans-serif" font-size="12" lengthAdjust="spacing" textLength="141" x="668.25" y="1288.9834">Exibir relat&#243;rio detalhado</text><text fill="#000000" font-family="sans-serif" font-size="12" lengthAdjust="spacing" textLength="105" x="668.25" y="1305.3275">de inconsist&#234;ncias;</text><text fill="#000000" font-family="sans-serif" font-size="12" lengthAdjust="spacing" textLength="148" x="668.25" y="1321.6716">nenhum dado &#233; importado</text><ellipse cx="742.25" cy="1366.1876" fill="none" rx="11" ry="11" style="stroke:#222222;stroke-width:1.0;"/><ellipse cx="742.25" cy="1366.1876" fill="#222222" rx="6" ry="6" style="stroke:#222222;stroke-width:1.0;"/><polygon fill="#FFF9C4" points="695.75,1216.6643,788.75,1216.6643,800.75,1228.6643,788.75,1240.6643,695.75,1240.6643,683.75,1228.6643,695.75,1216.6643" style="stroke:#888800;stroke-width:0.5;"/><text fill="#000000" font-family="sans-serif" font-size="11" lengthAdjust="spacing" textLength="18" x="746.25" y="1252.4232">sim</text><text fill="#000000" font-family="sans-serif" font-size="11" lengthAdjust="spacing" textLength="93" x="695.75" y="1232.9323">Erros detectados?</text><text fill="#000000" font-family="sans-serif" font-size="11" lengthAdjust="spacing" textLength="20" x="800.75" y="1225.4414">n&#227;o</text><rect fill="#FEFEFE" height="36.3441" rx="12.5" ry="12.5" style="stroke:#555555;stroke-width:0.5;" width="196" x="644.25" y="1419.1876"/><text fill="#000000" font-family="sans-serif" font-size="12" lengthAdjust="spacing" textLength="176" x="654.25" y="1442.0157">Criar partidas em lote no banco</text><rect fill="#555555" height="6" rx="2.5" ry="2.5" style="stroke:#555555;stroke-width:1.0;" width="379" x="551.75" y="1475.5317"/><rect fill="#FEFEFE" height="52.6882" rx="12.5" ry="12.5" style="stroke:#555555;stroke-width:0.5;" width="167" x="565.75" y="1501.5317"/><text fill="#000000" font-family="sans-serif" font-size="12" lengthAdjust="spacing" textLength="144" x="575.75" y="1524.3598">Gerar S&#250;mula autom&#225;tica</text><text fill="#000000" font-family="sans-serif" font-size="12" lengthAdjust="spacing" textLength="147" x="575.75" y="1540.7039">para cada partida [RN005]</text><rect fill="#FEFEFE" height="52.6882" rx="12.5" ry="12.5" style="stroke:#555555;stroke-width:0.5;" width="158" x="760.75" y="1501.5317"/><text fill="#000000" font-family="sans-serif" font-size="12" lengthAdjust="spacing" textLength="138" x="770.75" y="1524.3598">Registrar PlanilhaUpload</text><text fill="#000000" font-family="sans-serif" font-size="12" lengthAdjust="spacing" textLength="131" x="770.75" y="1540.7039">com status = "validado"</text><polygon fill="#FEFEFE" points="742.25,1564.22,754.25,1576.22,742.25,1588.22,730.25,1576.22,742.25,1564.22" style="stroke:#555555;stroke-width:0.5;"/><line style="stroke:#AAAAAA;stroke-width:1.5;" x1="371.75" x2="371.75" y1="53.8419" y2="1718.9082"/><line style="stroke:#AAAAAA;stroke-width:1.5;" x1="934.75" x2="934.75" y1="53.8419" y2="1718.9082"/><line style="stroke:#444444;stroke-width:1.0;" x1="104" x2="104" y1="103.3577" y2="123.3577"/><polygon fill="#444444" points="100,113.3577,104,123.3577,108,113.3577,104,117.3577" style="stroke:#444444;stroke-width:1.0;"/><line style="stroke:#444444;stroke-width:1.0;" x1="247.75" x2="247.75" y1="316.3901" y2="336.3901"/><polygon fill="#444444" points="243.75,326.3901,247.75,336.3901,251.75,326.3901,247.75,330.3901" style="stroke:#444444;stroke-width:1.0;"/><line style="stroke:#444444;stroke-width:1.0;" x1="247.75" x2="247.75" y1="1660.9082" y2="1680.9082"/><polygon fill="#444444" points="243.75,1670.9082,247.75,1680.9082,251.75,1670.9082,247.75,1674.9082" style="stroke:#444444;stroke-width:1.0;"/><line style="stroke:#444444;stroke-width:1.0;" x1="454.75" x2="454.75" y1="316.3901" y2="336.3901"/><polygon fill="#444444" points="450.75,326.3901,454.75,336.3901,458.75,326.3901,454.75,330.3901" style="stroke:#444444;stroke-width:1.0;"/><line style="stroke:#444444;stroke-width:1.0;" x1="742.25" x2="742.25" y1="534.9134" y2="562.2413"/><polygon fill="#444444" points="738.25,552.2413,742.25,562.2413,746.25,552.2413,742.25,556.2413" style="stroke:#444444;stroke-width:1.0;"/><line style="stroke:#444444;stroke-width:1.0;" x1="742.25" x2="742.25" y1="473.0783" y2="498.5692"/><polygon fill="#444444" points="738.25,488.5692,742.25,498.5692,746.25,488.5692,742.25,492.5692" style="stroke:#444444;stroke-width:1.0;"/><line style="stroke:#444444;stroke-width:1.0;" x1="807.25" x2="830.75" y1="461.0783" y2="461.0783"/><polygon fill="#444444" points="826.75,532.2413,830.75,542.2413,834.75,532.2413,830.75,536.2413" style="stroke:#444444;stroke-width:1.0;"/><line style="stroke:#444444;stroke-width:1.0;" x1="830.75" x2="830.75" y1="461.0783" y2="606.2413"/><line style="stroke:#444444;stroke-width:1.0;" x1="830.75" x2="742.25" y1="606.2413" y2="606.2413"/><line style="stroke:#444444;stroke-width:1.0;" x1="742.25" x2="742.25" y1="606.2413" y2="626.2413"/><polygon fill="#444444" points="738.25,616.2413,742.25,626.2413,746.25,616.2413,742.25,620.2413" style="stroke:#444444;stroke-width:1.0;"/><line style="stroke:#444444;stroke-width:1.0;" x1="742.25" x2="742.25" y1="429.0783" y2="449.0783"/><polygon fill="#444444" points="738.25,439.0783,742.25,449.0783,746.25,439.0783,742.25,443.0783" style="stroke:#444444;stroke-width:1.0;"/><line style="stroke:#444444;stroke-width:1.0;" x1="742.25" x2="742.25" y1="801.1087" y2="821.1087"/><polygon fill="#444444" points="738.25,811.1087,742.25,821.1087,746.25,811.1087,742.25,815.1087" style="stroke:#444444;stroke-width:1.0;"/><line style="stroke:#444444;stroke-width:1.0;" x1="742.25" x2="742.25" y1="722.9295" y2="748.4205"/><polygon fill="#444444" points="738.25,738.4205,742.25,748.4205,746.25,738.4205,742.25,742.4205" style="stroke:#444444;stroke-width:1.0;"/><line style="stroke:#444444;stroke-width:1.0;" x1="798.25" x2="852.75" y1="710.9295" y2="710.9295"/><polygon fill="#444444" points="848.75,790.2646,852.75,800.2646,856.75,790.2646,852.75,794.2646" style="stroke:#444444;stroke-width:1.0;"/><line style="stroke:#444444;stroke-width:1.0;" x1="852.75" x2="852.75" y1="710.9295" y2="865.1087"/><line style="stroke:#444444;stroke-width:1.0;" x1="852.75" x2="742.25" y1="865.1087" y2="865.1087"/><line style="stroke:#444444;stroke-width:1.0;" x1="742.25" x2="742.25" y1="865.1087" y2="885.1087"/><polygon fill="#444444" points="738.25,875.1087,742.25,885.1087,746.25,875.1087,742.25,879.1087" style="stroke:#444444;stroke-width:1.0;"/><line style="stroke:#444444;stroke-width:1.0;" x1="742.25" x2="742.25" y1="678.9295" y2="698.9295"/><polygon fill="#444444" points="738.25,688.9295,742.25,698.9295,746.25,688.9295,742.25,692.9295" style="stroke:#444444;stroke-width:1.0;"/><line style="stroke:#444444;stroke-width:1.0;" x1="742.25" x2="742.25" y1="1059.9761" y2="1079.9761"/><polygon fill="#444444" points="738.25,1069.9761,742.25,1079.9761,746.25,1069.9761,742.25,1073.9761" style="stroke:#444444;stroke-width:1.0;"/><line style="stroke:#444444;stroke-width:1.0;" x1="742.25" x2="742.25" y1="981.7969" y2="1007.2879"/><polygon fill="#444444" points="738.25,997.2879,742.25,1007.2879,746.25,997.2879,742.25,1001.2879" style="stroke:#444444;stroke-width:1.0;"/><line style="stroke:#444444;stroke-width:1.0;" x1="817.75" x2="852.75" y1="969.7969" y2="969.7969"/><polygon fill="#444444" points="848.75,1049.132,852.75,1059.132,856.75,1049.132,852.75,1053.132" style="stroke:#444444;stroke-width:1.0;"/><line style="stroke:#444444;stroke-width:1.0;" x1="852.75" x2="852.75" y1="969.7969" y2="1123.9761"/><line style="stroke:#444444;stroke-width:1.0;" x1="852.75" x2="742.25" y1="1123.9761" y2="1123.9761"/><line style="stroke:#444444;stroke-width:1.0;" x1="742.25" x2="742.25" y1="1123.9761" y2="1143.9761"/><polygon fill="#444444" points="738.25,1133.9761,742.25,1143.9761,746.25,1133.9761,742.25,1137.9761" style="stroke:#444444;stroke-width:1.0;"/><line style="stroke:#444444;stroke-width:1.0;" x1="742.25" x2="742.25" y1="937.7969" y2="957.7969"/><polygon fill="#444444" points="738.25,947.7969,742.25,957.7969,746.25,947.7969,742.25,951.7969" style="stroke:#444444;stroke-width:1.0;"/><line style="stroke:#444444;stroke-width:1.0;" x1="742.25" x2="742.25" y1="1335.1876" y2="1355.1876"/><polygon fill="#444444" points="738.25,1345.1876,742.25,1355.1876,746.25,1345.1876,742.25,1349.1876" style="stroke:#444444;stroke-width:1.0;"/><line style="stroke:#444444;stroke-width:1.0;" x1="742.25" x2="742.25" y1="1240.6643" y2="1266.1553"/><polygon fill="#444444" points="738.25,1256.1553,742.25,1266.1553,746.25,1256.1553,742.25,1260.1553" style="stroke:#444444;stroke-width:1.0;"/><line style="stroke:#444444;stroke-width:1.0;" x1="800.75" x2="836.25" y1="1228.6643" y2="1228.6643"/><polygon fill="#444444" points="832.25,1316.1714,836.25,1326.1714,840.25,1316.1714,836.25,1320.1714" style="stroke:#444444;stroke-width:1.0;"/><line style="stroke:#444444;stroke-width:1.0;" x1="836.25" x2="836.25" y1="1228.6643" y2="1399.1876"/><line style="stroke:#444444;stroke-width:1.0;" x1="836.25" x2="742.25" y1="1399.1876" y2="1399.1876"/><line style="stroke:#444444;stroke-width:1.0;" x1="742.25" x2="742.25" y1="1399.1876" y2="1419.1876"/><polygon fill="#444444" points="738.25,1409.1876,742.25,1419.1876,746.25,1409.1876,742.25,1413.1876" style="stroke:#444444;stroke-width:1.0;"/><line style="stroke:#444444;stroke-width:1.0;" x1="742.25" x2="742.25" y1="1196.6643" y2="1216.6643"/><polygon fill="#444444" points="738.25,1206.6643,742.25,1216.6643,746.25,1206.6643,742.25,1210.6643" style="stroke:#444444;stroke-width:1.0;"/><line style="stroke:#444444;stroke-width:1.0;" x1="649.25" x2="649.25" y1="1481.5317" y2="1501.5317"/><polygon fill="#444444" points="645.25,1491.5317,649.25,1501.5317,653.25,1491.5317,649.25,1495.5317" style="stroke:#444444;stroke-width:1.0;"/><line style="stroke:#444444;stroke-width:1.0;" x1="839.75" x2="839.75" y1="1481.5317" y2="1501.5317"/><polygon fill="#444444" points="835.75,1491.5317,839.75,1501.5317,843.75,1491.5317,839.75,1495.5317" style="stroke:#444444;stroke-width:1.0;"/><line style="stroke:#555555;stroke-width:1.0;" x1="649.25" x2="649.25" y1="1554.22" y2="1576.22"/><line style="stroke:#555555;stroke-width:1.0;" x1="649.25" x2="730.25" y1="1576.22" y2="1576.22"/><polygon fill="#555555" points="720.25,1572.22,730.25,1576.22,720.25,1580.22,724.25,1576.22" style="stroke:#555555;stroke-width:1.0;"/><line style="stroke:#555555;stroke-width:1.0;" x1="839.75" x2="839.75" y1="1554.22" y2="1576.22"/><line style="stroke:#555555;stroke-width:1.0;" x1="839.75" x2="754.25" y1="1576.22" y2="1576.22"/><polygon fill="#555555" points="764.25,1572.22,754.25,1576.22,764.25,1580.22,760.25,1576.22" style="stroke:#555555;stroke-width:1.0;"/><line style="stroke:#444444;stroke-width:1.0;" x1="742.25" x2="742.25" y1="1455.5317" y2="1475.5317"/><polygon fill="#444444" points="738.25,1465.5317,742.25,1475.5317,746.25,1465.5317,742.25,1469.5317" style="stroke:#444444;stroke-width:1.0;"/><line style="stroke:#444444;stroke-width:1.0;" x1="555" x2="454.75" y1="248.046" y2="248.046"/><line style="stroke:#444444;stroke-width:1.0;" x1="454.75" x2="454.75" y1="248.046" y2="280.046"/><polygon fill="#444444" points="450.75,270.046,454.75,280.046,458.75,270.046,454.75,274.046" style="stroke:#444444;stroke-width:1.0;"/><line style="stroke:#444444;stroke-width:1.0;" x1="598.5" x2="598.5" y1="216.046" y2="236.046"/><polygon fill="#444444" points="594.5,226.046,598.5,236.046,602.5,226.046,598.5,230.046" style="stroke:#444444;stroke-width:1.0;"/><line style="stroke:#444444;stroke-width:1.0;" x1="104" x2="104" y1="159.7018" y2="164.7018"/><line style="stroke:#444444;stroke-width:1.0;" x1="104" x2="598.5" y1="164.7018" y2="164.7018"/><line style="stroke:#444444;stroke-width:1.0;" x1="598.5" x2="598.5" y1="164.7018" y2="179.7018"/><polygon fill="#444444" points="594.5,169.7018,598.5,179.7018,602.5,169.7018,598.5,173.7018" style="stroke:#444444;stroke-width:1.0;"/><line style="stroke:#444444;stroke-width:1.0;" x1="247.75" x2="247.75" y1="372.7342" y2="377.7342"/><line style="stroke:#444444;stroke-width:1.0;" x1="247.75" x2="742.25" y1="377.7342" y2="377.7342"/><line style="stroke:#444444;stroke-width:1.0;" x1="742.25" x2="742.25" y1="377.7342" y2="392.7342"/><polygon fill="#444444" points="738.25,382.7342,742.25,392.7342,746.25,382.7342,742.25,386.7342" style="stroke:#444444;stroke-width:1.0;"/><line style="stroke:#444444;stroke-width:1.0;" x1="742.25" x2="742.25" y1="1588.22" y2="1593.22"/><line style="stroke:#444444;stroke-width:1.0;" x1="742.25" x2="247.75" y1="1593.22" y2="1593.22"/><line style="stroke:#444444;stroke-width:1.0;" x1="247.75" x2="247.75" y1="1593.22" y2="1608.22"/><polygon fill="#444444" points="243.75,1598.22,247.75,1608.22,251.75,1598.22,247.75,1602.22" style="stroke:#444444;stroke-width:1.0;"/><line style="stroke:#444444;stroke-width:1.0;" x1="642" x2="654" y1="248.046" y2="248.046"/><line style="stroke:#444444;stroke-width:1.0;" x1="654" x2="654" y1="248.046" y2="266.046"/><line style="stroke:#444444;stroke-width:1.0;" x1="654" x2="247.75" y1="266.046" y2="266.046"/><line style="stroke:#444444;stroke-width:1.0;" x1="247.75" x2="247.75" y1="266.046" y2="280.046"/><polygon fill="#444444" points="243.75,270.046,247.75,280.046,251.75,270.046,247.75,274.046" style="stroke:#444444;stroke-width:1.0;"/><text fill="#000000" font-family="sans-serif" font-size="18" lengthAdjust="spacing" textLength="167" x="109.875" y="73.0838">Moderador / Admin</text><text fill="#000000" font-family="sans-serif" font-size="18" lengthAdjust="spacing" textLength="68" x="619.25" y="73.0838">Sistema</text><!--SRC=[nLLDRnCn4BtlhnYLIohKDa8jAeaA2YNBgQXAeHV2mLbFqb7ziTZUjA3-cQe7118dn8Nh_Z76tcoqLIE4n057YdRjyPjvRvwzWO926BtTwU_33hmhbHKI9CAf4eRKXKZFmWMImaDlalVxX_0O9c_w_QVRMUOloPJ22GsY2BIayEcbA2uNpbP67bjb7JpAn_6tAT8wYMuLTP36XgXN9BGryY5idZyxtl_3XYxw8Oz-lnCySivUhHRtq-Wi-YlIp1uVvZp83_DyKsGtsIYDBBiviJmf9C_jmKXgCZUP3onbDXWLwBtW-NAbx5wvadl8-yx81zJY9XkSewCv5HpfUKDzPm71rD-NgE3v4Rnvmj4qXzwe2jRHPqxrOXl21Hhe6GxUpW064vJai21h62LM3NlABiWCUT47MsQeF4BFauxXcsfca7FobL2SmS7SEbsf-jQHZTQeac4YsE0CLPi70SsI-46uZnKjBUnUAtyDjeBTmY-vQiwqPXdnrppnEg19JALjTqVqI7EyNYlHQOh2FU3BOEDhcf63hPmh5S42cMLzgqZQhM4AIAm1xl568pb5Th-MKaXN_qGVUJfSSBtE-gbvdym_WCAgol2Xi3D72n7g7uxu3PD2dDT_QEi-ZJXtdKBMLQ-oSzRNh7hIhIdUeMeGayZ8RlN3gJ5eBYeDali3zLSWNLeN-6K3hrQFBZ7keEGaWKgREA6F-t5g2ci26qDRcK8aKou4kv8d-R-bSR9UPYPS9xVF1Fm_N4QbIYqIQi7E3pf1YrcikFwIt8C9kjCkYG6B40kB5O0MfXB4El0pktb6iRdhberJp6eBXsnWETx0BWW-mj9EJTA8PVMiKltD5EoCV-PyxAWvmirTZ1gK3NmVM9W9pfLE5Nllijk4i_eNdrO1Wcy8NTy65csQxgxKu1OCaaO7YNr40B4GP1gSIMDyncg_2Cqt8hg6By0WGkNX2BQMZJUQGnQhrkWMcFtLdS92pOaFJMfT0nmiQncxkERRgjKOihcw6d5-0m00]--></g></svg>