<?xml version="1.0" encoding="us-ascii" standalone="no"?><svg xmlns="http://www.w3.org/2000/svg" xmlns:xlink="http://www.w3.org/1999/xlink" contentStyleType="text/css" height="1350px" preserveAspectRatio="none" style="width:993px;height:1350px;background:#FFFFFF;" version="1.1" viewBox="0 0 993 1350" width="993px" zoomAndPan="magnify"><defs/><g><text fill="#000000" font-family="sans-serif" font-size="14" font-weight="bold" lengthAdjust="spacing" textLength="271" x="359.5" y="34.9659">AT-01 - Autentica&#231;&#227;o e Primeiro Acesso</text><rect fill="none" height="24.5158" style="stroke:none;stroke-width:1.0;" width="960" x="15" y="53.8419"/><ellipse cx="249.75" cy="93.3577" fill="#222222" rx="10" ry="10" style="stroke:#222222;stroke-width:1.0;"/><rect fill="#FEFEFE" height="36.3441" rx="12.5" ry="12.5" style="stroke:#555555;stroke-width:0.5;" width="99" x="200.25" y="123.3577"/><text fill="#000000" font-family="sans-serif" font-size="12" lengthAdjust="spacing" textLength="79" x="210.25" y="146.1858">Acessar /login</text><rect fill="#FEFEFE" height="36.3441" rx="12.5" ry="12.5" style="stroke:#555555;stroke-width:0.5;" width="173" x="163.25" y="179.7018"/><text fill="#000000" font-family="sans-serif" font-size="12" lengthAdjust="spacing" textLength="153" x="173.25" y="202.5299">Informar matr&#237;cula e senha</text><rect fill="#FEFEFE" height="36.3441" rx="12.5" ry="12.5" style="stroke:#555555;stroke-width:0.5;" width="204" x="21" y="440.4224"/><text fill="#000000" font-family="sans-serif" font-size="12" lengthAdjust="spacing" textLength="184" x="31" y="463.2505">Tentar novamente ou abandonar</text><ellipse cx="123" cy="522.7665" fill="none" rx="11" ry="11" style="stroke:#222222;stroke-width:1.0;"/><ellipse cx="123" cy="522.7665" fill="#222222" rx="6" ry="6" style="stroke:#222222;stroke-width:1.0;"/><rect fill="#FEFEFE" height="36.3441" rx="12.5" ry="12.5" style="stroke:#555555;stroke-width:0.5;" width="193" x="280" y="402.2251"/><text fill="#000000" font-family="sans-serif" font-size="12" lengthAdjust="spacing" textLength="173" x="290" y="425.0532">Bloquear acesso ao dashboard</text><rect fill="#FEFEFE" height="36.3441" rx="12.5" ry="12.5" style="stroke:#555555;stroke-width:0.5;" width="218" x="267.5" y="473.5692"/><text fill="#000000" font-family="sans-serif" font-size="12" lengthAdjust="spacing" textLength="198" x="277.5" y="496.3973">Redirecionar para /primeiro-acesso</text><rect fill="#FEFEFE" height="36.3441" rx="12.5" ry="12.5" style="stroke:#555555;stroke-width:0.5;" width="220" x="266.5" y="588.9134"/><text fill="#000000" font-family="sans-serif" font-size="12" lengthAdjust="spacing" textLength="200" x="276.5" y="611.7414">Informar nova senha e confirma&#231;&#227;o</text><polygon fill="#FFF9C4" points="376.5,544.9134,388.5,556.9134,376.5,568.9134,364.5,556.9134,376.5,544.9134" style="stroke:#888800;stroke-width:0.5;"/><polygon fill="#FFF9C4" points="341,896.6592,412,896.6592,424,908.6592,412,920.6592,341,920.6592,329,908.6592,341,896.6592" style="stroke:#888800;stroke-width:0.5;"/><text fill="#000000" font-family="sans-serif" font-size="11" lengthAdjust="spacing" textLength="71" x="341" y="912.9271">Senha v&#225;lida?</text><text fill="#000000" font-family="sans-serif" font-size="11" lengthAdjust="spacing" textLength="20" x="424" y="905.4362">n&#227;o</text><polygon fill="#FFF9C4" points="310.5,352.7342,442.5,352.7342,454.5,364.7342,442.5,376.7342,310.5,376.7342,298.5,364.7342,310.5,352.7342" style="stroke:#888800;stroke-width:0.5;"/><text fill="#000000" font-family="sans-serif" font-size="11" lengthAdjust="spacing" textLength="18" x="380.5" y="388.4931">sim</text><text fill="#000000" font-family="sans-serif" font-size="11" lengthAdjust="spacing" textLength="132" x="310.5" y="369.0022">primeiro_acesso == True?</text><text fill="#000000" font-family="sans-serif" font-size="11" lengthAdjust="spacing" textLength="20" x="278.5" y="361.5112">n&#227;o</text><polygon fill="#FFF9C4" points="376.5,1071.6108,388.5,1083.6108,376.5,1095.6108,364.5,1083.6108,376.5,1071.6108" style="stroke:#888800;stroke-width:0.5;"/><rect fill="#FEFEFE" height="36.3441" rx="12.5" ry="12.5" style="stroke:#555555;stroke-width:0.5;" width="104" x="324.5" y="1244.6432"/><text fill="#000000" font-family="sans-serif" font-size="12" lengthAdjust="spacing" textLength="84" x="334.5" y="1267.4713">Usar o sistema</text><ellipse cx="376.5" cy="1311.9873" fill="none" rx="11" ry="11" style="stroke:#222222;stroke-width:1.0;"/><ellipse cx="376.5" cy="1311.9873" fill="#222222" rx="6" ry="6" style="stroke:#222222;stroke-width:1.0;"/><line style="stroke:#AAAAAA;stroke-width:1.5;" x1="15" x2="15" y1="53.8419" y2="1338.9873"/><rect fill="#FEFEFE" height="52.6882" rx="12.5" ry="12.5" style="stroke:#555555;stroke-width:0.5;" width="188" x="627.25" y="236.046"/><text fill="#000000" font-family="sans-serif" font-size="12" lengthAdjust="spacing" textLength="168" x="637.25" y="258.874">Verificar credenciais no banco</text><text fill="#000000" font-family="sans-serif" font-size="12" lengthAdjust="spacing" textLength="155" x="637.25" y="275.2182">(matr&#237;cula + hash da senha)</text><polygon fill="#FFF9C4" points="669.25,308.7342,773.25,308.7342,785.25,320.7342,773.25,332.7342,669.25,332.7342,657.25,320.7342,669.25,308.7342" style="stroke:#888800;stroke-width:0.5;"/><text fill="#000000" font-family="sans-serif" font-size="11" lengthAdjust="spacing" textLength="104" x="669.25" y="325.0022">Credenciais v&#225;lidas?</text><text fill="#000000" font-family="sans-serif" font-size="11" lengthAdjust="spacing" textLength="20" x="637.25" y="317.5112">n&#227;o</text><text fill="#000000" font-family="sans-serif" font-size="11" lengthAdjust="spacing" textLength="18" x="785.25" y="317.5112">sim</text><rect fill="#FEFEFE" height="52.6882" rx="12.5" ry="12.5" style="stroke:#555555;stroke-width:0.5;" width="196" x="496.5" y="352.7342"/><text fill="#000000" font-family="sans-serif" font-size="12" lengthAdjust="spacing" textLength="163" x="506.5" y="375.5623">Exibir "Credenciais Inv&#225;lidas"</text><text fill="#000000" font-family="sans-serif" font-size="12" lengthAdjust="spacing" textLength="176" x="506.5" y="391.9064">[mensagem gen&#233;rica - RNF004]</text><rect fill="#FEFEFE" height="69.0323" rx="12.5" ry="12.5" style="stroke:#555555;stroke-width:0.5;" width="209" x="743.5" y="645.2575"/><text fill="#000000" font-family="sans-serif" font-size="12" lengthAdjust="spacing" textLength="136" x="753.5" y="668.0856">Validar pol&#237;tica de senha</text><text fill="#000000" font-family="sans-serif" font-size="12" lengthAdjust="spacing" textLength="167" x="753.5" y="684.4297">[RNF006: 8+ chars, mai&#250;scula,</text><text fill="#000000" font-family="sans-serif" font-size="12" lengthAdjust="spacing" textLength="189" x="753.5" y="700.7738">min&#250;scula, n&#250;mero, sem blacklist]</text><rect fill="#FEFEFE" height="36.3441" rx="12.5" ry="12.5" style="stroke:#555555;stroke-width:0.5;" width="157" x="769.5" y="796.315"/><text fill="#000000" font-family="sans-serif" font-size="12" lengthAdjust="spacing" textLength="137" x="779.5" y="819.1431">Exibir erros de valida&#231;&#227;o</text><polygon fill="#FFF9C4" points="812.5,746.8241,883.5,746.8241,895.5,758.8241,883.5,770.8241,812.5,770.8241,800.5,758.8241,812.5,746.8241" style="stroke:#888800;stroke-width:0.5;"/><text fill="#000000" font-family="sans-serif" font-size="11" lengthAdjust="spacing" textLength="20" x="852" y="782.583">n&#227;o</text><text fill="#000000" font-family="sans-serif" font-size="11" lengthAdjust="spacing" textLength="71" x="812.5" y="763.0921">Senha v&#225;lida?</text><text fill="#000000" font-family="sans-serif" font-size="11" lengthAdjust="spacing" textLength="18" x="895.5" y="755.6011">sim</text><polygon fill="#FFF9C4" points="848,852.6592,860,864.6592,848,876.6592,836,864.6592,848,852.6592" style="stroke:#888800;stroke-width:0.5;"/><rect fill="#FEFEFE" height="36.3441" rx="12.5" ry="12.5" style="stroke:#555555;stroke-width:0.5;" width="243" x="726.5" y="958.9226"/><text fill="#000000" font-family="sans-serif" font-size="12" lengthAdjust="spacing" textLength="223" x="736.5" y="981.7507">Salvar novo hash PBKDF2+salt [RNF005]</text><rect fill="#FEFEFE" height="36.3441" rx="12.5" ry="12.5" style="stroke:#555555;stroke-width:0.5;" width="198" x="749" y="1015.2667"/><text fill="#000000" font-family="sans-serif" font-size="12" lengthAdjust="spacing" textLength="178" x="759" y="1038.0948">Marcar primeiro_acesso = False</text><rect fill="#FEFEFE" height="36.3441" rx="12.5" ry="12.5" style="stroke:#555555;stroke-width:0.5;" width="159" x="768.5" y="1115.6108"/><text fill="#000000" font-family="sans-serif" font-size="12" lengthAdjust="spacing" textLength="139" x="778.5" y="1138.4389">Criar sess&#227;o autenticada</text><rect fill="#FEFEFE" height="52.6882" rx="12.5" ry="12.5" style="stroke:#555555;stroke-width:0.5;" width="229" x="733.5" y="1171.9549"/><text fill="#000000" font-family="sans-serif" font-size="12" lengthAdjust="spacing" textLength="167" x="743.5" y="1194.783">Redirecionar para /dashboard</text><text fill="#000000" font-family="sans-serif" font-size="12" lengthAdjust="spacing" textLength="209" x="743.5" y="1211.1271">conforme n&#237;vel de acesso (N1/N2/N3)</text><line style="stroke:#AAAAAA;stroke-width:1.5;" x1="490.5" x2="490.5" y1="53.8419" y2="1338.9873"/><line style="stroke:#AAAAAA;stroke-width:1.5;" x1="973.5" x2="973.5" y1="53.8419" y2="1338.9873"/><line style="stroke:#444444;stroke-width:1.0;" x1="249.75" x2="249.75" y1="103.3577" y2="123.3577"/><polygon fill="#444444" points="245.75,113.3577,249.75,123.3577,253.75,113.3577,249.75,117.3577" style="stroke:#444444;stroke-width:1.0;"/><line style="stroke:#444444;stroke-width:1.0;" x1="249.75" x2="249.75" y1="159.7018" y2="179.7018"/><polygon fill="#444444" points="245.75,169.7018,249.75,179.7018,253.75,169.7018,249.75,173.7018" style="stroke:#444444;stroke-width:1.0;"/><line style="stroke:#444444;stroke-width:1.0;" x1="123" x2="123" y1="476.7665" y2="511.7665"/><polygon fill="#444444" points="119,501.7665,123,511.7665,127,501.7665,123,505.7665" style="stroke:#444444;stroke-width:1.0;"/><line style="stroke:#444444;stroke-width:1.0;" x1="376.5" x2="376.5" y1="438.5692" y2="473.5692"/><polygon fill="#444444" points="372.5,463.5692,376.5,473.5692,380.5,463.5692,376.5,467.5692" style="stroke:#444444;stroke-width:1.0;"/><line style="stroke:#444444;stroke-width:1.0;" x1="376.5" x2="376.5" y1="568.9134" y2="588.9134"/><polygon fill="#444444" points="372.5,578.9134,376.5,588.9134,380.5,578.9134,376.5,582.9134" style="stroke:#444444;stroke-width:1.0;"/><line style="stroke:#444444;stroke-width:1.0;" x1="329" x2="254.5" y1="908.6592" y2="908.6592"/><polygon fill="#444444" points="250.5,736.7989,254.5,726.7989,258.5,736.7989,254.5,732.7989" style="stroke:#444444;stroke-width:1.0;"/><line style="stroke:#444444;stroke-width:1.0;" x1="254.5" x2="254.5" y1="556.9134" y2="908.6592"/><line style="stroke:#444444;stroke-width:1.0;" x1="254.5" x2="364.5" y1="556.9134" y2="556.9134"/><polygon fill="#444444" points="354.5,552.9134,364.5,556.9134,354.5,560.9134,358.5,556.9134" style="stroke:#444444;stroke-width:1.0;"/><line style="stroke:#444444;stroke-width:1.0;" x1="376.5" x2="376.5" y1="509.9134" y2="544.9134"/><polygon fill="#444444" points="372.5,534.9134,376.5,544.9134,380.5,534.9134,376.5,538.9134" style="stroke:#444444;stroke-width:1.0;"/><line style="stroke:#444444;stroke-width:1.0;" x1="376.5" x2="376.5" y1="376.7342" y2="402.2251"/><polygon fill="#444444" points="372.5,392.2251,376.5,402.2251,380.5,392.2251,376.5,396.2251" style="stroke:#444444;stroke-width:1.0;"/><line style="stroke:#444444;stroke-width:1.0;" x1="298.5" x2="245" y1="364.7342" y2="364.7342"/><polygon fill="#444444" points="241,724.2898,245,734.2898,249,724.2898,245,728.2898" style="stroke:#444444;stroke-width:1.0;"/><line style="stroke:#444444;stroke-width:1.0;" x1="245" x2="245" y1="364.7342" y2="1083.6108"/><line style="stroke:#444444;stroke-width:1.0;" x1="245" x2="364.5" y1="1083.6108" y2="1083.6108"/><polygon fill="#444444" points="354.5,1079.6108,364.5,1083.6108,354.5,1087.6108,358.5,1083.6108" style="stroke:#444444;stroke-width:1.0;"/><line style="stroke:#444444;stroke-width:1.0;" x1="376.5" x2="376.5" y1="1280.9873" y2="1300.9873"/><polygon fill="#444444" points="372.5,1290.9873,376.5,1300.9873,380.5,1290.9873,376.5,1294.9873" style="stroke:#444444;stroke-width:1.0;"/><line style="stroke:#444444;stroke-width:1.0;" x1="848" x2="848" y1="770.8241" y2="796.315"/><polygon fill="#444444" points="844,786.315,848,796.315,852,786.315,848,790.315" style="stroke:#444444;stroke-width:1.0;"/><line style="stroke:#444444;stroke-width:1.0;" x1="895.5" x2="936.5" y1="758.8241" y2="758.8241"/><polygon fill="#444444" points="932.5,804.4871,936.5,814.4871,940.5,804.4871,936.5,808.4871" style="stroke:#444444;stroke-width:1.0;"/><line style="stroke:#444444;stroke-width:1.0;" x1="936.5" x2="936.5" y1="758.8241" y2="864.6592"/><line style="stroke:#444444;stroke-width:1.0;" x1="936.5" x2="860" y1="864.6592" y2="864.6592"/><polygon fill="#444444" points="870,860.6592,860,864.6592,870,868.6592,866,864.6592" style="stroke:#444444;stroke-width:1.0;"/><line style="stroke:#444444;stroke-width:1.0;" x1="848" x2="848" y1="832.6592" y2="852.6592"/><polygon fill="#444444" points="844,842.6592,848,852.6592,852,842.6592,848,846.6592" style="stroke:#444444;stroke-width:1.0;"/><line style="stroke:#444444;stroke-width:1.0;" x1="848" x2="848" y1="714.2898" y2="746.8241"/><polygon fill="#444444" points="844,736.8241,848,746.8241,852,736.8241,848,740.8241" style="stroke:#444444;stroke-width:1.0;"/><line style="stroke:#444444;stroke-width:1.0;" x1="848" x2="848" y1="995.2667" y2="1015.2667"/><polygon fill="#444444" points="844,1005.2667,848,1015.2667,852,1005.2667,848,1009.2667" style="stroke:#444444;stroke-width:1.0;"/><line style="stroke:#444444;stroke-width:1.0;" x1="848" x2="848" y1="1151.9549" y2="1171.9549"/><polygon fill="#444444" points="844,1161.9549,848,1171.9549,852,1161.9549,848,1165.9549" style="stroke:#444444;stroke-width:1.0;"/><line style="stroke:#444444;stroke-width:1.0;" x1="657.25" x2="594.5" y1="320.7342" y2="320.7342"/><line style="stroke:#444444;stroke-width:1.0;" x1="594.5" x2="594.5" y1="320.7342" y2="352.7342"/><polygon fill="#444444" points="590.5,342.7342,594.5,352.7342,598.5,342.7342,594.5,346.7342" style="stroke:#444444;stroke-width:1.0;"/><line style="stroke:#444444;stroke-width:1.0;" x1="721.25" x2="721.25" y1="288.7342" y2="308.7342"/><polygon fill="#444444" points="717.25,298.7342,721.25,308.7342,725.25,298.7342,721.25,302.7342" style="stroke:#444444;stroke-width:1.0;"/><line style="stroke:#444444;stroke-width:1.0;" x1="249.75" x2="249.75" y1="216.046" y2="221.046"/><line style="stroke:#444444;stroke-width:1.0;" x1="249.75" x2="721.25" y1="221.046" y2="221.046"/><line style="stroke:#444444;stroke-width:1.0;" x1="721.25" x2="721.25" y1="221.046" y2="236.046"/><polygon fill="#444444" points="717.25,226.046,721.25,236.046,725.25,226.046,721.25,230.046" style="stroke:#444444;stroke-width:1.0;"/><line style="stroke:#444444;stroke-width:1.0;" x1="594.5" x2="594.5" y1="405.4224" y2="422.9224"/><line style="stroke:#444444;stroke-width:1.0;" x1="594.5" x2="123" y1="422.9224" y2="422.9224"/><line style="stroke:#444444;stroke-width:1.0;" x1="123" x2="123" y1="422.9224" y2="440.4224"/><polygon fill="#444444" points="119,430.4224,123,440.4224,127,430.4224,123,434.4224" style="stroke:#444444;stroke-width:1.0;"/><line style="stroke:#444444;stroke-width:1.0;" x1="376.5" x2="376.5" y1="625.2575" y2="630.2575"/><line style="stroke:#444444;stroke-width:1.0;" x1="376.5" x2="848" y1="630.2575" y2="630.2575"/><line style="stroke:#444444;stroke-width:1.0;" x1="848" x2="848" y1="630.2575" y2="645.2575"/><polygon fill="#444444" points="844,635.2575,848,645.2575,852,635.2575,848,639.2575" style="stroke:#444444;stroke-width:1.0;"/><line style="stroke:#444444;stroke-width:1.0;" x1="848" x2="848" y1="876.6592" y2="881.6592"/><line style="stroke:#444444;stroke-width:1.0;" x1="848" x2="376.5" y1="881.6592" y2="881.6592"/><line style="stroke:#444444;stroke-width:1.0;" x1="376.5" x2="376.5" y1="881.6592" y2="896.6592"/><polygon fill="#444444" points="372.5,886.6592,376.5,896.6592,380.5,886.6592,376.5,890.6592" style="stroke:#444444;stroke-width:1.0;"/><line style="stroke:#444444;stroke-width:1.0;" x1="376.5" x2="376.5" y1="920.6592" y2="943.9226"/><line style="stroke:#444444;stroke-width:1.0;" x1="376.5" x2="848" y1="943.9226" y2="943.9226"/><line style="stroke:#444444;stroke-width:1.0;" x1="848" x2="848" y1="943.9226" y2="958.9226"/><polygon fill="#444444" points="844,948.9226,848,958.9226,852,948.9226,848,952.9226" style="stroke:#444444;stroke-width:1.0;"/><text fill="#000000" font-family="sans-serif" font-size="11" lengthAdjust="spacing" textLength="18" x="380.5" y="937.4226">sim</text><line style="stroke:#444444;stroke-width:1.0;" x1="848" x2="848" y1="1051.6108" y2="1058.8654"/><line style="stroke:#444444;stroke-width:1.0;" x1="848" x2="376.5" y1="1058.8654" y2="1058.8654"/><line style="stroke:#444444;stroke-width:1.0;" x1="376.5" x2="376.5" y1="1058.8654" y2="1071.6108"/><polygon fill="#444444" points="372.5,1061.6108,376.5,1071.6108,380.5,1061.6108,376.5,1065.6108" style="stroke:#444444;stroke-width:1.0;"/><line style="stroke:#444444;stroke-width:1.0;" x1="376.5" x2="376.5" y1="1095.6108" y2="1100.6108"/><line style="stroke:#444444;stroke-width:1.0;" x1="376.5" x2="848" y1="1100.6108" y2="1100.6108"/><line style="stroke:#444444;stroke-width:1.0;" x1="848" x2="848" y1="1100.6108" y2="1115.6108"/><polygon fill="#444444" points="844,1105.6108,848,1115.6108,852,1105.6108,848,1109.6108" style="stroke:#444444;stroke-width:1.0;"/><line style="stroke:#444444;stroke-width:1.0;" x1="848" x2="848" y1="1224.6432" y2="1229.6432"/><line style="stroke:#444444;stroke-width:1.0;" x1="848" x2="376.5" y1="1229.6432" y2="1229.6432"/><line style="stroke:#444444;stroke-width:1.0;" x1="376.5" x2="376.5" y1="1229.6432" y2="1244.6432"/><polygon fill="#444444" points="372.5,1234.6432,376.5,1244.6432,380.5,1234.6432,376.5,1238.6432" style="stroke:#444444;stroke-width:1.0;"/><line style="stroke:#444444;stroke-width:1.0;" x1="785.25" x2="797.25" y1="320.7342" y2="320.7342"/><line style="stroke:#444444;stroke-width:1.0;" x1="797.25" x2="797.25" y1="320.7342" y2="338.7342"/><line style="stroke:#444444;stroke-width:1.0;" x1="797.25" x2="376.5" y1="338.7342" y2="338.7342"/><line style="stroke:#444444;stroke-width:1.0;" x1="376.5" x2="376.5" y1="338.7342" y2="352.7342"/><polygon fill="#444444" points="372.5,342.7342,376.5,352.7342,380.5,342.7342,376.5,346.7342" style="stroke:#444444;stroke-width:1.0;"/><text fill="#000000" font-family="sans-serif" font-size="18" lengthAdjust="spacing" textLength="66" x="219.75" y="73.0838">Usu&#225;rio</text><text fill="#000000" font-family="sans-serif" font-size="18" lengthAdjust="spacing" textLength="68" x="698" y="73.0838">Sistema</text><!--SRC=[VLHDJzj04BtxLupe9H542HGgweXM8M2fgXeXlYuDgYRs95vXxwQxwz1A_1dKGzK3Vw1N_x7EscjmbAZEnR7VpBnvxwsji1d1wBets8SUZ0fBqeeOoz_bBmK45rha9BI2KKp6g20mzq8kKMCE65kn4lRdASRt2wqAcOnLfZIyYSxTRnjIwOIqHnrLrnRKcS1SoMIpRHIz7n_-fw3T_PYlmQ057ccj7lpBm-fglJGF8izGqkRCe-WuYhOXsyD6rHK4ZpUcA9-qK8-1iQXj45QgeOP-fXP23eFmavmhdVEJ7Aqkd-CYGrRPa4nno0skXB6KusCGtf8MSpP2Gwmf8HaB50QaWXdAM4rbfzLW5r8qAIHOD-fo9p67phXLk2gVCf6W-TW5cvA4ZcH_km50UFv3p8I6dJRwaspmErFvDITfS44vB4YMVpIJugHSJgB1uF1ko2rQQtE_QmuGivPgXLne2LG1oAGJ9L4xkB5g6L1c23f6v8w38xlqGVk6LT3Wv0IkTK4lV3sK1vncwdj1FC8ZKV7c9fqfrCcmXbnI8ZJ5meq4Pnpqc_wzkeebSiWrwW2QbeIskkKkBrwvNMffsQjOoRdWnzK96Nhigt6-zXQTV3nSPUMpEr2GU9jPq4gxTo4SxqASeZPxd0PH_ZNEpBsfp8Li_W3VvQJL7jVcCCiudnbFkclcEkMkAcBUi0r_FH_lCl4fC8xAgkAtjiE66W1hBbKFPC8pMrh1Gohu-x51WaFKej3x0DoaqNnDg_0AirMjiQfZV77w-Imws3MOMQYbElBxXbzGknEnaHM8a9awKCsucUpfkbYEjU1AmtZtOSFcEvUWgzeMc9TCJQMpd9D0xCRpYZAddv_ScUpt9mVzoTjkjTpwIRXn9r_nvjMwhz6lIVq3]--></g></svg>