<?xml version="1.0" encoding="us-ascii" standalone="no"?><svg xmlns="http://www.w3.org/2000/svg" xmlns:xlink="http://www.w3.org/1999/xlink" contentStyleType="text/css" height="1149px" preserveAspectRatio="none" style="width:842px;height:1149px;background:#FFFFFF;" version="1.1" viewBox="0 0 842 1149" width="842px" zoomAndPan="magnify"><defs/><g><text fill="#000000" font-family="sans-serif" font-size="14" font-weight="bold" lengthAdjust="spacing" textLength="321" x="259.375" y="34.9659">AT-03 - Cria&#231;&#227;o de Equipe pelo Capit&#227;o (RF006)</text><rect fill="none" height="24.5158" style="stroke:none;stroke-width:1.0;" width="809.75" x="15" y="53.8419"/><ellipse cx="94" cy="93.3577" fill="#222222" rx="10" ry="10" style="stroke:#222222;stroke-width:1.0;"/><rect fill="#FEFEFE" height="36.3441" rx="12.5" ry="12.5" style="stroke:#555555;stroke-width:0.5;" width="146" x="21" y="123.3577"/><text fill="#000000" font-family="sans-serif" font-size="12" lengthAdjust="spacing" textLength="126" x="31" y="146.1858">Acessar /equipes/criar</text><rect fill="#FEFEFE" height="52.6882" rx="12.5" ry="12.5" style="stroke:#555555;stroke-width:0.5;" width="208" x="116.25" y="280.046"/><text fill="#000000" font-family="sans-serif" font-size="12" lengthAdjust="spacing" textLength="143" x="126.25" y="302.874">Visualizar formul&#225;rio com</text><text fill="#000000" font-family="sans-serif" font-size="12" lengthAdjust="spacing" textLength="188" x="126.25" y="319.2182">atletas e modalidades dispon&#237;veis</text><rect fill="#FEFEFE" height="85.3765" rx="12.5" ry="12.5" style="stroke:#555555;stroke-width:0.5;" width="142" x="149.25" y="411.7342"/><text fill="#000000" font-family="sans-serif" font-size="12" lengthAdjust="spacing" textLength="61" x="159.25" y="434.5623">Preencher:</text><text fill="#000000" font-family="sans-serif" font-size="12" lengthAdjust="spacing" textLength="99" x="159.25" y="450.9064">- Nome da equipe</text><text fill="#000000" font-family="sans-serif" font-size="12" lengthAdjust="spacing" textLength="73" x="159.25" y="467.2505">- Modalidade</text><text fill="#000000" font-family="sans-serif" font-size="12" lengthAdjust="spacing" textLength="122" x="159.25" y="483.5946">- Atletas selecionados</text><polygon fill="#FFF9C4" points="220.25,367.7342,232.25,379.7342,220.25,391.7342,208.25,379.7342,220.25,367.7342" style="stroke:#888800;stroke-width:0.5;"/><polygon fill="#FFF9C4" points="181.25,925.0104,259.25,925.0104,271.25,937.0104,259.25,949.0104,181.25,949.0104,169.25,937.0104,181.25,925.0104" style="stroke:#888800;stroke-width:0.5;"/><text fill="#000000" font-family="sans-serif" font-size="11" lengthAdjust="spacing" textLength="78" x="181.25" y="941.2784">Dados v&#225;lidos?</text><text fill="#000000" font-family="sans-serif" font-size="11" lengthAdjust="spacing" textLength="20" x="271.25" y="933.7874">n&#227;o</text><rect fill="#FEFEFE" height="36.3441" rx="12.5" ry="12.5" style="stroke:#555555;stroke-width:0.5;" width="147" x="146.75" y="1043.6179"/><text fill="#000000" font-family="sans-serif" font-size="12" lengthAdjust="spacing" textLength="127" x="156.75" y="1066.446">Visualizar confirma&#231;&#227;o</text><ellipse cx="220.25" cy="1110.9621" fill="none" rx="11" ry="11" style="stroke:#222222;stroke-width:1.0;"/><ellipse cx="220.25" cy="1110.9621" fill="#222222" rx="6" ry="6" style="stroke:#222222;stroke-width:1.0;"/><line style="stroke:#AAAAAA;stroke-width:1.5;" x1="15" x2="15" y1="53.8419" y2="1137.9621"/><rect fill="#FEFEFE" height="36.3441" rx="12.5" ry="12.5" style="stroke:#555555;stroke-width:0.5;" width="167" x="454" y="179.7018"/><text fill="#000000" font-family="sans-serif" font-size="12" lengthAdjust="spacing" textLength="147" x="464" y="202.5299">Verificar sess&#227;o e n&#237;vel N1</text><polygon fill="#FFF9C4" points="506,236.046,569,236.046,581,248.046,569,260.046,506,260.046,494,248.046,506,236.046" style="stroke:#888800;stroke-width:0.5;"/><text fill="#000000" font-family="sans-serif" font-size="11" lengthAdjust="spacing" textLength="63" x="506" y="252.3139">Autorizado?</text><text fill="#000000" font-family="sans-serif" font-size="11" lengthAdjust="spacing" textLength="20" x="474" y="244.823">n&#227;o</text><text fill="#000000" font-family="sans-serif" font-size="11" lengthAdjust="spacing" textLength="18" x="581" y="244.823">sim</text><rect fill="#FEFEFE" height="36.3441" rx="12.5" ry="12.5" style="stroke:#555555;stroke-width:0.5;" width="154" x="334.25" y="280.046"/><text fill="#000000" font-family="sans-serif" font-size="12" lengthAdjust="spacing" textLength="134" x="344.25" y="302.874">Redirecionar para /login</text><ellipse cx="411.25" cy="362.3901" fill="none" rx="11" ry="11" style="stroke:#222222;stroke-width:1.0;"/><ellipse cx="411.25" cy="362.3901" fill="#222222" rx="6" ry="6" style="stroke:#222222;stroke-width:1.0;"/><rect fill="#FEFEFE" height="36.3441" rx="12.5" ry="12.5" style="stroke:#555555;stroke-width:0.5;" width="311" x="508.25" y="517.1106"/><text fill="#000000" font-family="sans-serif" font-size="12" lengthAdjust="spacing" textLength="291" x="518.25" y="539.9387">Validar nome &#250;nico por atl&#233;tica/modalidade [RN004]</text><rect fill="#FEFEFE" height="52.6882" rx="12.5" ry="12.5" style="stroke:#555555;stroke-width:0.5;" width="246" x="540.75" y="573.4548"/><text fill="#000000" font-family="sans-serif" font-size="12" lengthAdjust="spacing" textLength="154" x="550.75" y="596.2828">Verificar se todos os atletas</text><text fill="#000000" font-family="sans-serif" font-size="12" lengthAdjust="spacing" textLength="226" x="550.75" y="612.627">pertencem &#224; atl&#233;tica do Capit&#227;o [RN004]</text><rect fill="#FEFEFE" height="52.6882" rx="12.5" ry="12.5" style="stroke:#555555;stroke-width:0.5;" width="254" x="536.75" y="646.143"/><text fill="#000000" font-family="sans-serif" font-size="12" lengthAdjust="spacing" textLength="171" x="546.75" y="668.9711">Verificar quantidade de atletas</text><text fill="#000000" font-family="sans-serif" font-size="12" lengthAdjust="spacing" textLength="234" x="546.75" y="685.3152">[RN004: entre m&#237;n. e m&#225;x. da Modalidade]</text><rect fill="#FEFEFE" height="36.3441" rx="12.5" ry="12.5" style="stroke:#555555;stroke-width:0.5;" width="238" x="544.75" y="718.8312"/><text fill="#000000" font-family="sans-serif" font-size="12" lengthAdjust="spacing" textLength="218" x="554.75" y="741.6593">Verificar duplicatas na sele&#231;&#227;o [RN004]</text><rect fill="#FEFEFE" height="36.3441" rx="12.5" ry="12.5" style="stroke:#555555;stroke-width:0.5;" width="157" x="585.25" y="824.6663"/><text fill="#000000" font-family="sans-serif" font-size="12" lengthAdjust="spacing" textLength="137" x="595.25" y="847.4944">Exibir erros de valida&#231;&#227;o</text><polygon fill="#FFF9C4" points="624.75,775.1753,702.75,775.1753,714.75,787.1753,702.75,799.1753,624.75,799.1753,612.75,787.1753,624.75,775.1753" style="stroke:#888800;stroke-width:0.5;"/><text fill="#000000" font-family="sans-serif" font-size="11" lengthAdjust="spacing" textLength="20" x="667.75" y="810.9342">n&#227;o</text><text fill="#000000" font-family="sans-serif" font-size="11" lengthAdjust="spacing" textLength="78" x="624.75" y="791.4433">Dados v&#225;lidos?</text><text fill="#000000" font-family="sans-serif" font-size="11" lengthAdjust="spacing" textLength="18" x="714.75" y="783.9524">sim</text><polygon fill="#FFF9C4" points="663.75,881.0104,675.75,893.0104,663.75,905.0104,651.75,893.0104,663.75,881.0104" style="stroke:#888800;stroke-width:0.5;"/><rect fill="#FEFEFE" height="36.3441" rx="12.5" ry="12.5" style="stroke:#555555;stroke-width:0.5;" width="96" x="615.75" y="987.2738"/><text fill="#000000" font-family="sans-serif" font-size="12" lengthAdjust="spacing" textLength="76" x="625.75" y="1010.1019">Salvar Equipe</text><line style="stroke:#AAAAAA;stroke-width:1.5;" x1="328.25" x2="328.25" y1="53.8419" y2="1137.9621"/><line style="stroke:#AAAAAA;stroke-width:1.5;" x1="823.25" x2="823.25" y1="53.8419" y2="1137.9621"/><line style="stroke:#444444;stroke-width:1.0;" x1="94" x2="94" y1="103.3577" y2="123.3577"/><polygon fill="#444444" points="90,113.3577,94,123.3577,98,113.3577,94,117.3577" style="stroke:#444444;stroke-width:1.0;"/><line style="stroke:#444444;stroke-width:1.0;" x1="220.25" x2="220.25" y1="391.7342" y2="411.7342"/><polygon fill="#444444" points="216.25,401.7342,220.25,411.7342,224.25,401.7342,220.25,405.7342" style="stroke:#444444;stroke-width:1.0;"/><line style="stroke:#444444;stroke-width:1.0;" x1="169.25" x2="52.75" y1="937.0104" y2="937.0104"/><polygon fill="#444444" points="48.75,663.6178,52.75,653.6178,56.75,663.6178,52.75,659.6178" style="stroke:#444444;stroke-width:1.0;"/><line style="stroke:#444444;stroke-width:1.0;" x1="52.75" x2="52.75" y1="379.7342" y2="937.0104"/><line style="stroke:#444444;stroke-width:1.0;" x1="52.75" x2="208.25" y1="379.7342" y2="379.7342"/><polygon fill="#444444" points="198.25,375.7342,208.25,379.7342,198.25,383.7342,202.25,379.7342" style="stroke:#444444;stroke-width:1.0;"/><line style="stroke:#444444;stroke-width:1.0;" x1="220.25" x2="220.25" y1="332.7342" y2="367.7342"/><polygon fill="#444444" points="216.25,357.7342,220.25,367.7342,224.25,357.7342,220.25,361.7342" style="stroke:#444444;stroke-width:1.0;"/><line style="stroke:#444444;stroke-width:1.0;" x1="220.25" x2="220.25" y1="1079.9621" y2="1099.9621"/><polygon fill="#444444" points="216.25,1089.9621,220.25,1099.9621,224.25,1089.9621,220.25,1093.9621" style="stroke:#444444;stroke-width:1.0;"/><line style="stroke:#444444;stroke-width:1.0;" x1="411.25" x2="411.25" y1="316.3901" y2="351.3901"/><polygon fill="#444444" points="407.25,341.3901,411.25,351.3901,415.25,341.3901,411.25,345.3901" style="stroke:#444444;stroke-width:1.0;"/><line style="stroke:#444444;stroke-width:1.0;" x1="663.75" x2="663.75" y1="553.4548" y2="573.4548"/><polygon fill="#444444" points="659.75,563.4548,663.75,573.4548,667.75,563.4548,663.75,567.4548" style="stroke:#444444;stroke-width:1.0;"/><line style="stroke:#444444;stroke-width:1.0;" x1="663.75" x2="663.75" y1="626.143" y2="646.143"/><polygon fill="#444444" points="659.75,636.143,663.75,646.143,667.75,636.143,663.75,640.143" style="stroke:#444444;stroke-width:1.0;"/><line style="stroke:#444444;stroke-width:1.0;" x1="663.75" x2="663.75" y1="698.8312" y2="718.8312"/><polygon fill="#444444" points="659.75,708.8312,663.75,718.8312,667.75,708.8312,663.75,712.8312" style="stroke:#444444;stroke-width:1.0;"/><line style="stroke:#444444;stroke-width:1.0;" x1="663.75" x2="663.75" y1="799.1753" y2="824.6663"/><polygon fill="#444444" points="659.75,814.6663,663.75,824.6663,667.75,814.6663,663.75,818.6663" style="stroke:#444444;stroke-width:1.0;"/><line style="stroke:#444444;stroke-width:1.0;" x1="714.75" x2="752.25" y1="787.1753" y2="787.1753"/><polygon fill="#444444" points="748.25,832.8383,752.25,842.8383,756.25,832.8383,752.25,836.8383" style="stroke:#444444;stroke-width:1.0;"/><line style="stroke:#444444;stroke-width:1.0;" x1="752.25" x2="752.25" y1="787.1753" y2="893.0104"/><line style="stroke:#444444;stroke-width:1.0;" x1="752.25" x2="675.75" y1="893.0104" y2="893.0104"/><polygon fill="#444444" points="685.75,889.0104,675.75,893.0104,685.75,897.0104,681.75,893.0104" style="stroke:#444444;stroke-width:1.0;"/><line style="stroke:#444444;stroke-width:1.0;" x1="663.75" x2="663.75" y1="861.0104" y2="881.0104"/><polygon fill="#444444" points="659.75,871.0104,663.75,881.0104,667.75,871.0104,663.75,875.0104" style="stroke:#444444;stroke-width:1.0;"/><line style="stroke:#444444;stroke-width:1.0;" x1="663.75" x2="663.75" y1="755.1753" y2="775.1753"/><polygon fill="#444444" points="659.75,765.1753,663.75,775.1753,667.75,765.1753,663.75,769.1753" style="stroke:#444444;stroke-width:1.0;"/><line style="stroke:#444444;stroke-width:1.0;" x1="494" x2="411.25" y1="248.046" y2="248.046"/><line style="stroke:#444444;stroke-width:1.0;" x1="411.25" x2="411.25" y1="248.046" y2="280.046"/><polygon fill="#444444" points="407.25,270.046,411.25,280.046,415.25,270.046,411.25,274.046" style="stroke:#444444;stroke-width:1.0;"/><line style="stroke:#444444;stroke-width:1.0;" x1="537.5" x2="537.5" y1="216.046" y2="236.046"/><polygon fill="#444444" points="533.5,226.046,537.5,236.046,541.5,226.046,537.5,230.046" style="stroke:#444444;stroke-width:1.0;"/><line style="stroke:#444444;stroke-width:1.0;" x1="94" x2="94" y1="159.7018" y2="164.7018"/><line style="stroke:#444444;stroke-width:1.0;" x1="94" x2="537.5" y1="164.7018" y2="164.7018"/><line style="stroke:#444444;stroke-width:1.0;" x1="537.5" x2="537.5" y1="164.7018" y2="179.7018"/><polygon fill="#444444" points="533.5,169.7018,537.5,179.7018,541.5,169.7018,537.5,173.7018" style="stroke:#444444;stroke-width:1.0;"/><line style="stroke:#444444;stroke-width:1.0;" x1="220.25" x2="220.25" y1="497.1106" y2="502.1106"/><line style="stroke:#444444;stroke-width:1.0;" x1="220.25" x2="663.75" y1="502.1106" y2="502.1106"/><line style="stroke:#444444;stroke-width:1.0;" x1="663.75" x2="663.75" y1="502.1106" y2="517.1106"/><polygon fill="#444444" points="659.75,507.1106,663.75,517.1106,667.75,507.1106,663.75,511.1106" style="stroke:#444444;stroke-width:1.0;"/><line style="stroke:#444444;stroke-width:1.0;" x1="663.75" x2="663.75" y1="905.0104" y2="910.0104"/><line style="stroke:#444444;stroke-width:1.0;" x1="663.75" x2="220.25" y1="910.0104" y2="910.0104"/><line style="stroke:#444444;stroke-width:1.0;" x1="220.25" x2="220.25" y1="910.0104" y2="925.0104"/><polygon fill="#444444" points="216.25,915.0104,220.25,925.0104,224.25,915.0104,220.25,919.0104" style="stroke:#444444;stroke-width:1.0;"/><line style="stroke:#444444;stroke-width:1.0;" x1="220.25" x2="220.25" y1="949.0104" y2="972.2738"/><line style="stroke:#444444;stroke-width:1.0;" x1="220.25" x2="663.75" y1="972.2738" y2="972.2738"/><line style="stroke:#444444;stroke-width:1.0;" x1="663.75" x2="663.75" y1="972.2738" y2="987.2738"/><polygon fill="#444444" points="659.75,977.2738,663.75,987.2738,667.75,977.2738,663.75,981.2738" style="stroke:#444444;stroke-width:1.0;"/><text fill="#000000" font-family="sans-serif" font-size="11" lengthAdjust="spacing" textLength="18" x="224.25" y="965.7738">sim</text><line style="stroke:#444444;stroke-width:1.0;" x1="663.75" x2="663.75" y1="1023.6179" y2="1028.6179"/><line style="stroke:#444444;stroke-width:1.0;" x1="663.75" x2="220.25" y1="1028.6179" y2="1028.6179"/><line style="stroke:#444444;stroke-width:1.0;" x1="220.25" x2="220.25" y1="1028.6179" y2="1043.6179"/><polygon fill="#444444" points="216.25,1033.6179,220.25,1043.6179,224.25,1033.6179,220.25,1037.6179" style="stroke:#444444;stroke-width:1.0;"/><line style="stroke:#444444;stroke-width:1.0;" x1="581" x2="593" y1="248.046" y2="248.046"/><line style="stroke:#444444;stroke-width:1.0;" x1="593" x2="593" y1="248.046" y2="266.046"/><line style="stroke:#444444;stroke-width:1.0;" x1="593" x2="220.25" y1="266.046" y2="266.046"/><line style="stroke:#444444;stroke-width:1.0;" x1="220.25" x2="220.25" y1="266.046" y2="280.046"/><polygon fill="#444444" points="216.25,270.046,220.25,280.046,224.25,270.046,220.25,274.046" style="stroke:#444444;stroke-width:1.0;"/><text fill="#000000" font-family="sans-serif" font-size="18" lengthAdjust="spacing" textLength="65" x="139.125" y="73.0838">Capit&#227;o</text><text fill="#000000" font-family="sans-serif" font-size="18" lengthAdjust="spacing" textLength="68" x="541.75" y="73.0838">Sistema</text><!--SRC=[VLJ1RjD04BtxAqRYaXxI6D6YaaWWayOt8jIYNYY7nJjfHhLttTbrMb0_Xee3uj0VuEeVOtOT4bS9NVlWtNtpvktpiptv4Y7xD4nVmH2cJAhzrVwqe15cDmtL23MM5gQg9X_M1sTvchu-I19tJQPMh2fGXQSL-M_lLN5znROnUcfBo_0YduLh7zAoHbwZZkFOWpebLLcZTsdp_Ctqw9c2Flk9Z3JjWJDcUxlUF8gZj-bkgIgLmTsUn_b9dkz3zfjbSIJ9_J-xxXFd5Vjad1Ned68OOJJLZGfncYS2FIVdiLBtoVW2cHPK2Ce9E9YDODh75POmVobGMi0WQxnb-gwqVNS0Vea61aQG1md0-0mrCHPaZL04bJ0gxHMPYMmwR-i4IuSmS5G5U4-Zr5wGQrGfn0mBorLJjWzC5WfRNHeb2V7AYPhAQW5ffT619bVRA8-SY0DWh55vUH2wZuneYYNo-D8COMuh1AsWEtjO-R0X2hDitS1XsSdNjgCKbHjx8kz5h68mWR7zOwYmK8lp8h7zxSMxqLOYV3wRf-dHbycwjESkU2ijGExrsIvDZUn5CbRG_jZIWUv5_tzyDuqolcifzuQnWuy1ZMUnhdqqXy72zk7kC9YnjM2NKJTrAG_14wEYBTr7kL4G2q8UJeDNi6eVXCgwdKn4tjaTVIK6bE2xe70L-qR6oHhp90m0Ju8YKwEbsUOLm-sIv9-nsvlSjlFmBKXzLDf_X-DpLQxaXDs_PV9S3Wjh5iJLLcYNuKxBNm00]--></g></svg>