<?xml version="1.0" encoding="us-ascii" standalone="no"?><svg xmlns="http://www.w3.org/2000/svg" xmlns:xlink="http://www.w3.org/1999/xlink" contentStyleType="text/css" height="1405px" preserveAspectRatio="none" style="width:754px;height:1405px;background:#FFFFFF;" version="1.1" viewBox="0 0 754 1405" width="754px" zoomAndPan="magnify"><defs/><g><text fill="#000000" font-family="sans-serif" font-size="14" font-weight="bold" lengthAdjust="spacing" textLength="288" x="231.5" y="34.9659">AT-05 - Gerenciamento de Partida (RF007)</text><rect fill="none" height="24.5158" style="stroke:none;stroke-width:1.0;" width="721" x="15" y="53.8419"/><ellipse cx="95" cy="93.3577" fill="#222222" rx="10" ry="10" style="stroke:#222222;stroke-width:1.0;"/><rect fill="#FEFEFE" height="36.3441" rx="12.5" ry="12.5" style="stroke:#555555;stroke-width:0.5;" width="148" x="21" y="123.3577"/><text fill="#000000" font-family="sans-serif" font-size="12" lengthAdjust="spacing" textLength="128" x="31" y="146.1858">Acessar /partidas/criar</text><rect fill="#FEFEFE" height="36.3441" rx="12.5" ry="12.5" style="stroke:#555555;stroke-width:0.5;" width="196" x="102.5" y="280.046"/><text fill="#000000" font-family="sans-serif" font-size="12" lengthAdjust="spacing" textLength="176" x="112.5" y="302.874">Visualizar formul&#225;rio de partida</text><rect fill="#FEFEFE" height="150.7529" rx="12.5" ry="12.5" style="stroke:#555555;stroke-width:0.5;" width="215" x="93" y="380.3901"/><text fill="#000000" font-family="sans-serif" font-size="12" lengthAdjust="spacing" textLength="61" x="103" y="403.2182">Preencher:</text><text fill="#000000" font-family="sans-serif" font-size="12" lengthAdjust="spacing" textLength="105" x="103" y="419.5623">- Equipe mandante</text><text fill="#000000" font-family="sans-serif" font-size="12" lengthAdjust="spacing" textLength="95" x="103" y="435.9064">- Equipe visitante</text><text fill="#000000" font-family="sans-serif" font-size="12" lengthAdjust="spacing" textLength="73" x="103" y="452.2505">- Modalidade</text><text fill="#000000" font-family="sans-serif" font-size="12" lengthAdjust="spacing" textLength="66" x="103" y="468.5946">- Data/Hora</text><text fill="#000000" font-family="sans-serif" font-size="12" lengthAdjust="spacing" textLength="36" x="103" y="484.9387">- Local</text><text fill="#000000" font-family="sans-serif" font-size="12" lengthAdjust="spacing" textLength="195" x="103" y="501.2828">- Fase (grupos/quartas/semis/final)</text><text fill="#000000" font-family="sans-serif" font-size="12" lengthAdjust="spacing" textLength="42" x="103" y="517.627">- Status</text><polygon fill="#FFF9C4" points="200.5,336.3901,212.5,348.3901,200.5,360.3901,188.5,348.3901,200.5,336.3901" style="stroke:#888800;stroke-width:0.5;"/><polygon fill="#FFF9C4" points="161.5,773.6663,239.5,773.6663,251.5,785.6663,239.5,797.6663,161.5,797.6663,149.5,785.6663,161.5,773.6663" style="stroke:#888800;stroke-width:0.5;"/><text fill="#000000" font-family="sans-serif" font-size="11" lengthAdjust="spacing" textLength="78" x="161.5" y="789.9342">Dados v&#225;lidos?</text><text fill="#000000" font-family="sans-serif" font-size="11" lengthAdjust="spacing" textLength="20" x="251.5" y="782.4433">n&#227;o</text><rect fill="#FEFEFE" height="36.3441" rx="12.5" ry="12.5" style="stroke:#555555;stroke-width:0.5;" width="136" x="132.5" y="1014.453"/><text fill="#000000" font-family="sans-serif" font-size="12" lengthAdjust="spacing" textLength="116" x="142.5" y="1037.2811">Registrar placar final</text><rect fill="#FEFEFE" height="36.3441" rx="12.5" ry="12.5" style="stroke:#555555;stroke-width:0.5;" width="147" x="127" y="1298.8295"/><text fill="#000000" font-family="sans-serif" font-size="12" lengthAdjust="spacing" textLength="127" x="137" y="1321.6575">Visualizar confirma&#231;&#227;o</text><ellipse cx="200.5" cy="1366.1736" fill="none" rx="11" ry="11" style="stroke:#222222;stroke-width:1.0;"/><ellipse cx="200.5" cy="1366.1736" fill="#222222" rx="6" ry="6" style="stroke:#222222;stroke-width:1.0;"/><line style="stroke:#AAAAAA;stroke-width:1.5;" x1="15" x2="15" y1="53.8419" y2="1393.1736"/><rect fill="#FEFEFE" height="36.3441" rx="12.5" ry="12.5" style="stroke:#555555;stroke-width:0.5;" width="184" x="408.5" y="179.7018"/><text fill="#000000" font-family="sans-serif" font-size="12" lengthAdjust="spacing" textLength="164" x="418.5" y="202.5299">Verificar sess&#227;o e n&#237;vel &gt;= N2</text><polygon fill="#FFF9C4" points="469,236.046,532,236.046,544,248.046,532,260.046,469,260.046,457,248.046,469,236.046" style="stroke:#888800;stroke-width:0.5;"/><text fill="#000000" font-family="sans-serif" font-size="11" lengthAdjust="spacing" textLength="63" x="469" y="252.3139">Autorizado?</text><text fill="#000000" font-family="sans-serif" font-size="11" lengthAdjust="spacing" textLength="20" x="437" y="244.823">n&#227;o</text><text fill="#000000" font-family="sans-serif" font-size="11" lengthAdjust="spacing" textLength="18" x="544" y="244.823">sim</text><rect fill="#FEFEFE" height="36.3441" rx="12.5" ry="12.5" style="stroke:#555555;stroke-width:0.5;" width="154" x="318" y="280.046"/><text fill="#000000" font-family="sans-serif" font-size="12" lengthAdjust="spacing" textLength="134" x="328" y="302.874">Redirecionar para /login</text><ellipse cx="395" cy="347.3901" fill="none" rx="11" ry="11" style="stroke:#222222;stroke-width:1.0;"/><ellipse cx="395" cy="347.3901" fill="#222222" rx="6" ry="6" style="stroke:#222222;stroke-width:1.0;"/><rect fill="#FEFEFE" height="52.6882" rx="12.5" ry="12.5" style="stroke:#555555;stroke-width:0.5;" width="228" x="492" y="551.143"/><text fill="#000000" font-family="sans-serif" font-size="12" lengthAdjust="spacing" textLength="136" x="502" y="573.9711">Validar equipes distintas</text><text fill="#000000" font-family="sans-serif" font-size="12" lengthAdjust="spacing" textLength="208" x="502" y="590.3152">e pertencentes &#224; mesma modalidade</text><rect fill="#FEFEFE" height="36.3441" rx="12.5" ry="12.5" style="stroke:#555555;stroke-width:0.5;" width="157" x="527.5" y="673.3222"/><text fill="#000000" font-family="sans-serif" font-size="12" lengthAdjust="spacing" textLength="137" x="537.5" y="696.1502">Exibir erros de valida&#231;&#227;o</text><polygon fill="#FFF9C4" points="567,623.8312,645,623.8312,657,635.8312,645,647.8312,567,647.8312,555,635.8312,567,623.8312" style="stroke:#888800;stroke-width:0.5;"/><text fill="#000000" font-family="sans-serif" font-size="11" lengthAdjust="spacing" textLength="20" x="610" y="659.5901">n&#227;o</text><text fill="#000000" font-family="sans-serif" font-size="11" lengthAdjust="spacing" textLength="78" x="567" y="640.0992">Dados v&#225;lidos?</text><text fill="#000000" font-family="sans-serif" font-size="11" lengthAdjust="spacing" textLength="18" x="657" y="632.6082">sim</text><polygon fill="#FFF9C4" points="606,729.6663,618,741.6663,606,753.6663,594,741.6663,606,729.6663" style="stroke:#888800;stroke-width:0.5;"/><rect fill="#FEFEFE" height="36.3441" rx="12.5" ry="12.5" style="stroke:#555555;stroke-width:0.5;" width="98" x="557" y="835.9297"/><text fill="#000000" font-family="sans-serif" font-size="12" lengthAdjust="spacing" textLength="78" x="567" y="858.7578">Salvar Partida</text><rect fill="#FEFEFE" height="52.6882" rx="12.5" ry="12.5" style="stroke:#555555;stroke-width:0.5;" width="185" x="513.5" y="892.2738"/><text fill="#000000" font-family="sans-serif" font-size="12" lengthAdjust="spacing" textLength="144" x="523.5" y="915.1019">Gerar S&#250;mula autom&#225;tica</text><text fill="#000000" font-family="sans-serif" font-size="12" lengthAdjust="spacing" textLength="165" x="523.5" y="931.446">[RN005 - via signal post_save]</text><rect fill="#FEFEFE" height="36.3441" rx="12.5" ry="12.5" style="stroke:#555555;stroke-width:0.5;" width="188" x="512" y="1070.7971"/><text fill="#000000" font-family="sans-serif" font-size="12" lengthAdjust="spacing" textLength="168" x="522" y="1093.6252">Atualizar status = "encerrada"</text><rect fill="#FEFEFE" height="36.3441" rx="12.5" ry="12.5" style="stroke:#555555;stroke-width:0.5;" width="121" x="545.5" y="1142.1412"/><text fill="#000000" font-family="sans-serif" font-size="12" lengthAdjust="spacing" textLength="101" x="555.5" y="1164.9693">Calcular vencedor</text><rect fill="#FEFEFE" height="36.3441" rx="12.5" ry="12.5" style="stroke:#555555;stroke-width:0.5;" width="199" x="506.5" y="1198.4853"/><text fill="#000000" font-family="sans-serif" font-size="12" lengthAdjust="spacing" textLength="179" x="516.5" y="1221.3134">Atualizar tabela de classifica&#231;&#227;o</text><polygon fill="#FFF9C4" points="555,964.9621,657,964.9621,669,976.9621,657,988.9621,555,988.9621,543,976.9621,555,964.9621" style="stroke:#888800;stroke-width:0.5;"/><text fill="#000000" font-family="sans-serif" font-size="11" lengthAdjust="spacing" textLength="18" x="610" y="1000.721">sim</text><text fill="#000000" font-family="sans-serif" font-size="11" lengthAdjust="spacing" textLength="102" x="555" y="981.23">Status = encerrada?</text><text fill="#000000" font-family="sans-serif" font-size="11" lengthAdjust="spacing" textLength="20" x="669" y="973.7391">n&#227;o</text><polygon fill="#FFF9C4" points="606,1254.8295,618,1266.8295,606,1278.8295,594,1266.8295,606,1254.8295" style="stroke:#888800;stroke-width:0.5;"/><line style="stroke:#AAAAAA;stroke-width:1.5;" x1="312" x2="312" y1="53.8419" y2="1393.1736"/><line style="stroke:#AAAAAA;stroke-width:1.5;" x1="734.5" x2="734.5" y1="53.8419" y2="1393.1736"/><line style="stroke:#444444;stroke-width:1.0;" x1="95" x2="95" y1="103.3577" y2="123.3577"/><polygon fill="#444444" points="91,113.3577,95,123.3577,99,113.3577,95,117.3577" style="stroke:#444444;stroke-width:1.0;"/><line style="stroke:#444444;stroke-width:1.0;" x1="200.5" x2="200.5" y1="360.3901" y2="380.3901"/><polygon fill="#444444" points="196.5,370.3901,200.5,380.3901,204.5,370.3901,200.5,374.3901" style="stroke:#444444;stroke-width:1.0;"/><line style="stroke:#444444;stroke-width:1.0;" x1="149.5" x2="74.5" y1="785.6663" y2="785.6663"/><polygon fill="#444444" points="70.5,579.7736,74.5,569.7736,78.5,579.7736,74.5,575.7736" style="stroke:#444444;stroke-width:1.0;"/><line style="stroke:#444444;stroke-width:1.0;" x1="74.5" x2="74.5" y1="348.3901" y2="785.6663"/><line style="stroke:#444444;stroke-width:1.0;" x1="74.5" x2="188.5" y1="348.3901" y2="348.3901"/><polygon fill="#444444" points="178.5,344.3901,188.5,348.3901,178.5,352.3901,182.5,348.3901" style="stroke:#444444;stroke-width:1.0;"/><line style="stroke:#444444;stroke-width:1.0;" x1="200.5" x2="200.5" y1="316.3901" y2="336.3901"/><polygon fill="#444444" points="196.5,326.3901,200.5,336.3901,204.5,326.3901,200.5,330.3901" style="stroke:#444444;stroke-width:1.0;"/><line style="stroke:#444444;stroke-width:1.0;" x1="200.5" x2="200.5" y1="1335.1736" y2="1355.1736"/><polygon fill="#444444" points="196.5,1345.1736,200.5,1355.1736,204.5,1345.1736,200.5,1349.1736" style="stroke:#444444;stroke-width:1.0;"/><line style="stroke:#444444;stroke-width:1.0;" x1="395" x2="395" y1="316.3901" y2="336.3901"/><polygon fill="#444444" points="391,326.3901,395,336.3901,399,326.3901,395,330.3901" style="stroke:#444444;stroke-width:1.0;"/><line style="stroke:#444444;stroke-width:1.0;" x1="606" x2="606" y1="647.8312" y2="673.3222"/><polygon fill="#444444" points="602,663.3222,606,673.3222,610,663.3222,606,667.3222" style="stroke:#444444;stroke-width:1.0;"/><line style="stroke:#444444;stroke-width:1.0;" x1="657" x2="694.5" y1="635.8312" y2="635.8312"/><polygon fill="#444444" points="690.5,681.4942,694.5,691.4942,698.5,681.4942,694.5,685.4942" style="stroke:#444444;stroke-width:1.0;"/><line style="stroke:#444444;stroke-width:1.0;" x1="694.5" x2="694.5" y1="635.8312" y2="741.6663"/><line style="stroke:#444444;stroke-width:1.0;" x1="694.5" x2="618" y1="741.6663" y2="741.6663"/><polygon fill="#444444" points="628,737.6663,618,741.6663,628,745.6663,624,741.6663" style="stroke:#444444;stroke-width:1.0;"/><line style="stroke:#444444;stroke-width:1.0;" x1="606" x2="606" y1="709.6663" y2="729.6663"/><polygon fill="#444444" points="602,719.6663,606,729.6663,610,719.6663,606,723.6663" style="stroke:#444444;stroke-width:1.0;"/><line style="stroke:#444444;stroke-width:1.0;" x1="606" x2="606" y1="603.8312" y2="623.8312"/><polygon fill="#444444" points="602,613.8312,606,623.8312,610,613.8312,606,617.8312" style="stroke:#444444;stroke-width:1.0;"/><line style="stroke:#444444;stroke-width:1.0;" x1="606" x2="606" y1="872.2738" y2="892.2738"/><polygon fill="#444444" points="602,882.2738,606,892.2738,610,882.2738,606,886.2738" style="stroke:#444444;stroke-width:1.0;"/><line style="stroke:#444444;stroke-width:1.0;" x1="606" x2="606" y1="1107.1412" y2="1142.1412"/><polygon fill="#444444" points="602,1132.1412,606,1142.1412,610,1132.1412,606,1136.1412" style="stroke:#444444;stroke-width:1.0;"/><line style="stroke:#444444;stroke-width:1.0;" x1="606" x2="606" y1="1178.4853" y2="1198.4853"/><polygon fill="#444444" points="602,1188.4853,606,1198.4853,610,1188.4853,606,1192.4853" style="stroke:#444444;stroke-width:1.0;"/><line style="stroke:#444444;stroke-width:1.0;" x1="669" x2="715.5" y1="976.9621" y2="976.9621"/><polygon fill="#444444" points="711.5,1114.6412,715.5,1124.6412,719.5,1114.6412,715.5,1118.6412" style="stroke:#444444;stroke-width:1.0;"/><line style="stroke:#444444;stroke-width:1.0;" x1="715.5" x2="715.5" y1="976.9621" y2="1266.8295"/><line style="stroke:#444444;stroke-width:1.0;" x1="715.5" x2="618" y1="1266.8295" y2="1266.8295"/><polygon fill="#444444" points="628,1262.8295,618,1266.8295,628,1270.8295,624,1266.8295" style="stroke:#444444;stroke-width:1.0;"/><line style="stroke:#444444;stroke-width:1.0;" x1="606" x2="606" y1="1234.8295" y2="1254.8295"/><polygon fill="#444444" points="602,1244.8295,606,1254.8295,610,1244.8295,606,1248.8295" style="stroke:#444444;stroke-width:1.0;"/><line style="stroke:#444444;stroke-width:1.0;" x1="606" x2="606" y1="944.9621" y2="964.9621"/><polygon fill="#444444" points="602,954.9621,606,964.9621,610,954.9621,606,958.9621" style="stroke:#444444;stroke-width:1.0;"/><line style="stroke:#444444;stroke-width:1.0;" x1="457" x2="395" y1="248.046" y2="248.046"/><line style="stroke:#444444;stroke-width:1.0;" x1="395" x2="395" y1="248.046" y2="280.046"/><polygon fill="#444444" points="391,270.046,395,280.046,399,270.046,395,274.046" style="stroke:#444444;stroke-width:1.0;"/><line style="stroke:#444444;stroke-width:1.0;" x1="500.5" x2="500.5" y1="216.046" y2="236.046"/><polygon fill="#444444" points="496.5,226.046,500.5,236.046,504.5,226.046,500.5,230.046" style="stroke:#444444;stroke-width:1.0;"/><line style="stroke:#444444;stroke-width:1.0;" x1="95" x2="95" y1="159.7018" y2="164.7018"/><line style="stroke:#444444;stroke-width:1.0;" x1="95" x2="500.5" y1="164.7018" y2="164.7018"/><line style="stroke:#444444;stroke-width:1.0;" x1="500.5" x2="500.5" y1="164.7018" y2="179.7018"/><polygon fill="#444444" points="496.5,169.7018,500.5,179.7018,504.5,169.7018,500.5,173.7018" style="stroke:#444444;stroke-width:1.0;"/><line style="stroke:#444444;stroke-width:1.0;" x1="200.5" x2="200.5" y1="531.143" y2="536.143"/><line style="stroke:#444444;stroke-width:1.0;" x1="200.5" x2="606" y1="536.143" y2="536.143"/><line style="stroke:#444444;stroke-width:1.0;" x1="606" x2="606" y1="536.143" y2="551.143"/><polygon fill="#444444" points="602,541.143,606,551.143,610,541.143,606,545.143" style="stroke:#444444;stroke-width:1.0;"/><line style="stroke:#444444;stroke-width:1.0;" x1="606" x2="606" y1="753.6663" y2="758.6663"/><line style="stroke:#444444;stroke-width:1.0;" x1="606" x2="200.5" y1="758.6663" y2="758.6663"/><line style="stroke:#444444;stroke-width:1.0;" x1="200.5" x2="200.5" y1="758.6663" y2="773.6663"/><polygon fill="#444444" points="196.5,763.6663,200.5,773.6663,204.5,763.6663,200.5,767.6663" style="stroke:#444444;stroke-width:1.0;"/><line style="stroke:#444444;stroke-width:1.0;" x1="200.5" x2="200.5" y1="797.6663" y2="820.9297"/><line style="stroke:#444444;stroke-width:1.0;" x1="200.5" x2="606" y1="820.9297" y2="820.9297"/><line style="stroke:#444444;stroke-width:1.0;" x1="606" x2="606" y1="820.9297" y2="835.9297"/><polygon fill="#444444" points="602,825.9297,606,835.9297,610,825.9297,606,829.9297" style="stroke:#444444;stroke-width:1.0;"/><text fill="#000000" font-family="sans-serif" font-size="11" lengthAdjust="spacing" textLength="18" x="204.5" y="814.4297">sim</text><line style="stroke:#444444;stroke-width:1.0;" x1="200.5" x2="200.5" y1="1050.7971" y2="1055.7971"/><line style="stroke:#444444;stroke-width:1.0;" x1="200.5" x2="606" y1="1055.7971" y2="1055.7971"/><line style="stroke:#444444;stroke-width:1.0;" x1="606" x2="606" y1="1055.7971" y2="1070.7971"/><polygon fill="#444444" points="602,1060.7971,606,1070.7971,610,1060.7971,606,1064.7971" style="stroke:#444444;stroke-width:1.0;"/><line style="stroke:#444444;stroke-width:1.0;" x1="606" x2="606" y1="988.9621" y2="1001.7075"/><line style="stroke:#444444;stroke-width:1.0;" x1="606" x2="200.5" y1="1001.7075" y2="1001.7075"/><line style="stroke:#444444;stroke-width:1.0;" x1="200.5" x2="200.5" y1="1001.7075" y2="1014.453"/><polygon fill="#444444" points="196.5,1004.453,200.5,1014.453,204.5,1004.453,200.5,1008.453" style="stroke:#444444;stroke-width:1.0;"/><line style="stroke:#444444;stroke-width:1.0;" x1="606" x2="606" y1="1278.8295" y2="1283.8295"/><line style="stroke:#444444;stroke-width:1.0;" x1="606" x2="200.5" y1="1283.8295" y2="1283.8295"/><line style="stroke:#444444;stroke-width:1.0;" x1="200.5" x2="200.5" y1="1283.8295" y2="1298.8295"/><polygon fill="#444444" points="196.5,1288.8295,200.5,1298.8295,204.5,1288.8295,200.5,1292.8295" style="stroke:#444444;stroke-width:1.0;"/><line style="stroke:#444444;stroke-width:1.0;" x1="544" x2="556" y1="248.046" y2="248.046"/><line style="stroke:#444444;stroke-width:1.0;" x1="556" x2="556" y1="248.046" y2="266.046"/><line style="stroke:#444444;stroke-width:1.0;" x1="556" x2="200.5" y1="266.046" y2="266.046"/><line style="stroke:#444444;stroke-width:1.0;" x1="200.5" x2="200.5" y1="266.046" y2="280.046"/><polygon fill="#444444" points="196.5,270.046,200.5,280.046,204.5,270.046,200.5,274.046" style="stroke:#444444;stroke-width:1.0;"/><text fill="#000000" font-family="sans-serif" font-size="18" lengthAdjust="spacing" textLength="94" x="116.5" y="73.0838">Moderador</text><text fill="#000000" font-family="sans-serif" font-size="18" lengthAdjust="spacing" textLength="68" x="489.25" y="73.0838">Sistema</text><!--SRC=[VLF1Jjj04BtxAqRqaXoYH1MeD15KAU3sq5Q8L5nALGts98omTytishGL7rFKGq_zWLxzOnrl4cD8nFhYtNapR-RDZ6UV4Km_3qPxC81t96GInfoCjv0IdA9uJX5wP_5ezAeVHUwQJO62EM3YkMB_uoqcrmknfKcFR6O5NiGdpRSDQIKbMQ7smjc2EbPwQzBDi77y-cZt6OTkz7qzer47F1MnjolZRZWTexlbF4D3cvnxyNuSRqDsoQRXHD7THwkFc5gvYvnNvQBnD27dK61OB8LqmqGOPQBW6JjFETv5utCIddEYCAVe-hS50bF_hIY3mmFuz5BHF8VUjFHM-AV6VzC7VqK6UaR1_GXWV4Of2oLiZKPfKeLXPXTi9cfqtXOHPOwWvpXluDr4rVcSNOcPHXQOMydBhBuN3krVPQq900WLX5v_rEDKIEVaYcHyOGPmSbDoGP2ZIT5uwZnLxDYltvHKML9Cm-qOFGxVMy7cyi4cc3K_CJPfBgGih1lUb4glaZdAsGtdR33hDw2PHr-wa9JMqkeOCZiF508K4d2GgfMDHhamMWw9rxnrkDLI_uASN8wGjtcjGZPY7wiw3ghwNYtMRGWUk4w-yoKhbOwMQzIgGfZwZs8cAynZfG4UjK6l9bMsLboulMBTnaroTW_KWqDG_v1gj_Rn3BDA2pzTjqoVT9trPLR_qvuYeCvFNjzxdRGBy-NiqoYiVCMeyHQgBQZc_fl3Yhw6w8qCIwdX01hPH0l1LegsYASrwZ0kDA-6kiYm6UlGkicsTatzUlBScccdfTfPkeoFC4kq086gCIdFvAcpnqlI2hK7IOREXMrg-x3KV2tVIl9djo2nPiwIFuHOhj3Iypy0]--></g></svg>