<?xml version="1.0" encoding="us-ascii" standalone="no"?><svg xmlns="http://www.w3.org/2000/svg" xmlns:xlink="http://www.w3.org/1999/xlink" contentStyleType="text/css" height="1591px" preserveAspectRatio="none" style="width:1983px;height:1591px;background:#FFFFFF;" version="1.1" viewBox="0 0 1983 1591" width="1983px" zoomAndPan="magnify"><defs/><g><text fill="#000000" font-family="sans-serif" font-size="14" font-weight="bold" lengthAdjust="spacing" textLength="310" x="829.75" y="24.9659">Diagrama de Caso de Uso - Portal JES / SGDU</text><!--cluster Portal JES - SGDU--><g id="cluster_Portal JES - SGDU"><rect fill="none" height="1538" rx="2.5" ry="2.5" style="stroke:#181818;stroke-width:1.0;" width="1345" x="530" y="47.0679"/><text fill="#000000" font-family="sans-serif" font-size="14" font-weight="bold" lengthAdjust="spacing" textLength="119" x="1143" y="64.0339">Portal JES - SGDU</text></g><!--cluster ?rea P?blica--><g id="cluster_&#193;rea P&#250;blica"><rect fill="none" height="207" rx="2.5" ry="2.5" style="stroke:#181818;stroke-width:1.0;" width="326" x="564.5" y="1354.0679"/><text fill="#000000" font-family="sans-serif" font-size="14" font-weight="bold" lengthAdjust="spacing" textLength="86" x="684.5" y="1371.0339">&#193;rea P&#250;blica</text></g><!--cluster Autentica??o--><g id="cluster_Autentica&#231;&#227;o"><rect fill="none" height="126" rx="2.5" ry="2.5" style="stroke:#181818;stroke-width:1.0;" width="757.5" x="565" y="1204.0679"/><text fill="#000000" font-family="sans-serif" font-size="14" font-weight="bold" lengthAdjust="spacing" textLength="91" x="898.25" y="1221.0339">Autentica&#231;&#227;o</text></g><!--cluster Capit?o (N1)--><g id="cluster_Capit&#227;o (N1)"><rect fill="none" height="213" rx="2.5" ry="2.5" style="stroke:#181818;stroke-width:1.0;" width="317" x="1038" y="93.0679"/><text fill="#000000" font-family="sans-serif" font-size="14" font-weight="bold" lengthAdjust="spacing" textLength="86" x="1153.5" y="110.0339">Capit&#227;o (N1)</text></g><!--cluster Moderador (N2)--><g id="cluster_Moderador (N2)"><rect fill="none" height="514" rx="2.5" ry="2.5" style="stroke:#181818;stroke-width:1.0;" width="771.5" x="554" y="330.0679"/><text fill="#000000" font-family="sans-serif" font-size="14" font-weight="bold" lengthAdjust="spacing" textLength="110" x="884.75" y="347.0339">Moderador (N2)</text></g><!--cluster Administrador (N3)--><g id="cluster_Administrador (N3)"><rect fill="none" height="312" rx="2.5" ry="2.5" style="stroke:#181818;stroke-width:1.0;" width="325" x="565" y="868.0679"/><text fill="#000000" font-family="sans-serif" font-size="14" font-weight="bold" lengthAdjust="spacing" textLength="134" x="660.5" y="885.0339">Administrador (N3)</text></g><!--cluster Sistema / Automa??o--><g id="cluster_Sistema / Automa&#231;&#227;o"><rect fill="none" height="214" rx="2.5" ry="2.5" style="stroke:#181818;stroke-width:1.0;" width="321" x="1530" y="1012.0679"/><text fill="#000000" font-family="sans-serif" font-size="14" font-weight="bold" lengthAdjust="spacing" textLength="149" x="1616" y="1029.0339">Sistema / Automa&#231;&#227;o</text></g><g id="elem_UC01"><ellipse cx="727.5615" cy="1423.8802" fill="#FEFEFE" rx="147.0615" ry="31.8123" style="stroke:#555555;stroke-width:0.5;"/><text fill="#000000" font-family="sans-serif" font-size="14" lengthAdjust="spacing" textLength="190" x="632.3637" y="1417.8231">UC01 - Consultar Homepage</text><text fill="#000000" font-family="sans-serif" font-size="14" lengthAdjust="spacing" textLength="204" x="625.3637" y="1436.891">(estat&#237;sticas, tabelas, partidas)</text></g><g id="elem_UC02"><ellipse cx="727.565" cy="1517.8809" fill="#FEFEFE" rx="122.065" ry="26.813" style="stroke:#555555;stroke-width:0.5;"/><text fill="#000000" font-family="sans-serif" font-size="14" lengthAdjust="spacing" textLength="206" x="622.6402" y="1522.1931">UC02 - Buscar / Filtrar Partidas</text></g><g id="elem_UC03"><ellipse cx="727.434" cy="1274.2547" fill="#FEFEFE" rx="146.434" ry="31.6868" style="stroke:#555555;stroke-width:0.5;"/><text fill="#000000" font-family="sans-serif" font-size="14" lengthAdjust="spacing" textLength="196" x="626.434" y="1269.4537">UC03 - Autenticar no Sistema</text><text fill="#000000" font-family="sans-serif" font-size="14" lengthAdjust="spacing" textLength="129" x="659.934" y="1288.5216">(matr&#237;cula + senha)</text></g><g id="elem_UC04"><ellipse cx="1196.4847" cy="1278.9501" fill="#FEFEFE" rx="109.9847" ry="30.3822" style="stroke:#555555;stroke-width:0.5;"/><text fill="#000000" font-family="sans-serif" font-size="14" lengthAdjust="spacing" textLength="137" x="1124.9847" y="1274.1491">UC04 - Trocar Senha</text><text fill="#000000" font-family="sans-serif" font-size="14" lengthAdjust="spacing" textLength="128" x="1129.4847" y="1293.2171">no Primeiro Acesso</text></g><g id="elem_UC05"><ellipse cx="1196.2548" cy="161.9189" fill="#FEFEFE" rx="142.2548" ry="30.851" style="stroke:#555555;stroke-width:0.5;"/><text fill="#000000" font-family="sans-serif" font-size="14" lengthAdjust="spacing" textLength="147" x="1122.7548" y="155.8169">UC05 - Manter Atletas</text><text fill="#000000" font-family="sans-serif" font-size="14" lengthAdjust="spacing" textLength="191" x="1100.7548" y="174.8848">(cadastrar, editar, consultar)</text></g><g id="elem_UC06"><ellipse cx="1196.3446" cy="258.9011" fill="#FEFEFE" rx="124.8446" ry="30.3332" style="stroke:#555555;stroke-width:0.5;"/><text fill="#000000" font-family="sans-serif" font-size="14" lengthAdjust="spacing" textLength="155" x="1115.0946" y="254.1001">UC06 - Manter Equipes</text><text fill="#000000" font-family="sans-serif" font-size="14" lengthAdjust="spacing" textLength="158" x="1113.5946" y="273.1681">(criar, editar, consultar)</text></g><g id="elem_UC07"><ellipse cx="727.5097" cy="604.2699" fill="#FEFEFE" rx="139.0097" ry="30.2019" style="stroke:#555555;stroke-width:0.5;"/><text fill="#000000" font-family="sans-serif" font-size="14" lengthAdjust="spacing" textLength="152" x="651.5097" y="598.1679">UC07 - Manter Capit&#227;o</text><text fill="#000000" font-family="sans-serif" font-size="14" lengthAdjust="spacing" textLength="182" x="636.5097" y="617.2358">(promover atleta a Capit&#227;o)</text></g><g id="elem_UC08"><ellipse cx="727.2548" cy="699.9189" fill="#FEFEFE" rx="142.2548" ry="30.851" style="stroke:#555555;stroke-width:0.5;"/><text fill="#000000" font-family="sans-serif" font-size="14" lengthAdjust="spacing" textLength="158" x="648.2548" y="693.8169">UC08 - Manter Atl&#233;ticas</text><text fill="#000000" font-family="sans-serif" font-size="14" lengthAdjust="spacing" textLength="191" x="631.7548" y="712.8848">(cadastrar, editar, consultar)</text></g><g id="elem_UC09"><ellipse cx="727.646" cy="797.1971" fill="#FEFEFE" rx="143.646" ry="31.1292" style="stroke:#555555;stroke-width:0.5;"/><text fill="#000000" font-family="sans-serif" font-size="14" lengthAdjust="spacing" textLength="188" x="630.646" y="792.3961">UC09 - Manter Modalidades</text><text fill="#000000" font-family="sans-serif" font-size="14" lengthAdjust="spacing" textLength="184" x="632.646" y="811.4641">(cadastrar limites m&#237;n/m&#225;x)</text></g><g id="elem_UC10"><ellipse cx="727.7025" cy="401.9084" fill="#FEFEFE" rx="154.7025" ry="33.3405" style="stroke:#555555;stroke-width:0.5;"/><text fill="#000000" font-family="sans-serif" font-size="14" lengthAdjust="spacing" textLength="173" x="641.2025" y="395.8064">UC10 - Gerenciar Partidas</text><text fill="#000000" font-family="sans-serif" font-size="14" lengthAdjust="spacing" textLength="224" x="615.7025" y="414.8743">(equipes, data, local, fase, status)</text></g><g id="elem_UC11"><ellipse cx="727.4406" cy="504.956" fill="#FEFEFE" rx="157.4406" ry="33.8881" style="stroke:#555555;stroke-width:0.5;"/><text fill="#000000" font-family="sans-serif" font-size="14" lengthAdjust="spacing" textLength="166" x="644.4406" y="498.854">UC11 - Carregar Planilha</text><text fill="#000000" font-family="sans-serif" font-size="14" lengthAdjust="spacing" textLength="231" x="611.9406" y="517.922">(popula&#231;&#227;o em lote com valida&#231;&#227;o)</text></g><g id="elem_UC12"><ellipse cx="1196.4106" cy="454.9635" fill="#FEFEFE" rx="112.9106" ry="30.3956" style="stroke:#555555;stroke-width:0.5;"/><text fill="#000000" font-family="sans-serif" font-size="14" lengthAdjust="spacing" textLength="141" x="1122.9106" y="450.1626">UC12 - Gerar S&#250;mula</text><text fill="#000000" font-family="sans-serif" font-size="14" lengthAdjust="spacing" textLength="76" x="1155.4106" y="469.2305">Autom&#225;tica</text></g><g id="elem_UC13"><ellipse cx="727.434" cy="938.2547" fill="#FEFEFE" rx="146.434" ry="31.6868" style="stroke:#555555;stroke-width:0.5;"/><text fill="#000000" font-family="sans-serif" font-size="14" lengthAdjust="spacing" textLength="191" x="626.434" y="933.4537">UC13 - Manter Moderadores</text><text fill="#000000" font-family="sans-serif" font-size="14" lengthAdjust="spacing" textLength="201" x="621.434" y="952.5216">(cadastrar com senha padr&#227;o)</text></g><g id="elem_UC14"><ellipse cx="727.4297" cy="1035.0363" fill="#FEFEFE" rx="131.9297" ry="30.4684" style="stroke:#555555;stroke-width:0.5;"/><text fill="#000000" font-family="sans-serif" font-size="14" lengthAdjust="spacing" textLength="167" x="640.9297" y="1030.2353">UC14 - Gerenciar Backup</text><text fill="#000000" font-family="sans-serif" font-size="14" lengthAdjust="spacing" textLength="163" x="642.9297" y="1049.3032">e Configura&#231;&#245;es Globais</text></g><g id="elem_UC15"><ellipse cx="727.5328" cy="1131.9745" fill="#FEFEFE" rx="145.0328" ry="31.4066" style="stroke:#555555;stroke-width:0.5;"/><text fill="#000000" font-family="sans-serif" font-size="14" lengthAdjust="spacing" textLength="192" x="628.5328" y="1127.1735">UC15 - Visualizar Estat&#237;sticas</text><text fill="#000000" font-family="sans-serif" font-size="14" lengthAdjust="spacing" textLength="82" x="683.5328" y="1146.2414">Estrat&#233;gicas</text></g><g id="elem_UC16"><ellipse cx="1690.531" cy="1080.9854" fill="#FEFEFE" rx="118.031" ry="30.4175" style="stroke:#555555;stroke-width:0.5;"/><text fill="#000000" font-family="sans-serif" font-size="14" lengthAdjust="spacing" textLength="148" x="1613.531" y="1076.1844">UC16 - Validar V&#237;nculo</text><text fill="#000000" font-family="sans-serif" font-size="14" lengthAdjust="spacing" textLength="73" x="1651.031" y="1095.2524">Acad&#234;mico</text></g><g id="elem_UC17"><ellipse cx="1690.6847" cy="1177.9049" fill="#FEFEFE" rx="144.6847" ry="31.3369" style="stroke:#555555;stroke-width:0.5;"/><text fill="#000000" font-family="sans-serif" font-size="14" lengthAdjust="spacing" textLength="191" x="1592.1847" y="1173.1039">UC17 - Gerar Hash de Senha</text><text fill="#000000" font-family="sans-serif" font-size="14" lengthAdjust="spacing" textLength="99" x="1638.1847" y="1192.1718">(PBKDF2 + salt)</text></g><!--entity Visitante--><g id="elem_Visitante"><ellipse cx="39.5" cy="1391.0679" fill="#F1F1F1" rx="16" ry="16" style="stroke:#333333;stroke-width:0.5;"/><path d="M39.5,1411.0679 C43.5,1411.0679 46.5,1411.0679 50.5,1407.0679 C58.5,1407.0679 66.5,1415.0679 66.5,1423.0679 L66.5,1427.0679 C66.5,1431.0679 62.5,1435.0679 58.5,1435.0679 L20.5,1435.0679 C16.5,1435.0679 12.5,1431.0679 12.5,1427.0679 L12.5,1423.0679 C12.5,1415.0679 20.5,1407.0679 28.5,1407.0679 C32.5,1411.0679 35.5,1411.0679 39.5,1411.0679 " fill="#F1F1F1" style="stroke:#333333;stroke-width:0.5;"/><text fill="#000000" font-family="sans-serif" font-size="14" lengthAdjust="spacing" textLength="67" x="6" y="1450.5339">Visitante /</text><text fill="#000000" font-family="sans-serif" font-size="14" lengthAdjust="spacing" textLength="39" x="6" y="1469.6018">Atleta</text></g><!--entity Capitao--><g id="elem_Capitao"><ellipse cx="161.5" cy="613.0679" fill="#F1F1F1" rx="16" ry="16" style="stroke:#333333;stroke-width:0.5;"/><path d="M161.5,633.0679 C165.5,633.0679 168.5,633.0679 172.5,629.0679 C180.5,629.0679 188.5,637.0679 188.5,645.0679 L188.5,649.0679 C188.5,653.0679 184.5,657.0679 180.5,657.0679 L142.5,657.0679 C138.5,657.0679 134.5,653.0679 134.5,649.0679 L134.5,645.0679 C134.5,637.0679 142.5,629.0679 150.5,629.0679 C154.5,633.0679 157.5,633.0679 161.5,633.0679 " fill="#F1F1F1" style="stroke:#333333;stroke-width:0.5;"/><text fill="#000000" font-family="sans-serif" font-size="14" lengthAdjust="spacing" textLength="51" x="136" y="672.5339">Capit&#227;o</text><text fill="#000000" font-family="sans-serif" font-size="14" lengthAdjust="spacing" textLength="27" x="136" y="691.6018">(N1)</text></g><!--entity Moderador--><g id="elem_Moderador"><ellipse cx="287.5" cy="613.0679" fill="#F1F1F1" rx="16" ry="16" style="stroke:#333333;stroke-width:0.5;"/><path d="M287.5,633.0679 C291.5,633.0679 294.5,633.0679 298.5,629.0679 C306.5,629.0679 314.5,637.0679 314.5,645.0679 L314.5,649.0679 C314.5,653.0679 310.5,657.0679 306.5,657.0679 L268.5,657.0679 C264.5,657.0679 260.5,653.0679 260.5,649.0679 L260.5,645.0679 C260.5,637.0679 268.5,629.0679 276.5,629.0679 C280.5,633.0679 283.5,633.0679 287.5,633.0679 " fill="#F1F1F1" style="stroke:#333333;stroke-width:0.5;"/><text fill="#000000" font-family="sans-serif" font-size="14" lengthAdjust="spacing" textLength="75" x="250" y="672.5339">Moderador</text><text fill="#000000" font-family="sans-serif" font-size="14" lengthAdjust="spacing" textLength="27" x="250" y="691.6018">(N2)</text></g><!--entity Admin--><g id="elem_Admin"><ellipse cx="434.5" cy="929.0679" fill="#F1F1F1" rx="16" ry="16" style="stroke:#333333;stroke-width:0.5;"/><path d="M434.5,949.0679 C438.5,949.0679 441.5,949.0679 445.5,945.0679 C453.5,945.0679 461.5,953.0679 461.5,961.0679 L461.5,965.0679 C461.5,969.0679 457.5,973.0679 453.5,973.0679 L415.5,973.0679 C411.5,973.0679 407.5,969.0679 407.5,965.0679 L407.5,961.0679 C407.5,953.0679 415.5,945.0679 423.5,945.0679 C427.5,949.0679 430.5,949.0679 434.5,949.0679 " fill="#F1F1F1" style="stroke:#333333;stroke-width:0.5;"/><text fill="#000000" font-family="sans-serif" font-size="14" lengthAdjust="spacing" textLength="97" x="386" y="988.5339">Administrador</text><text fill="#000000" font-family="sans-serif" font-size="14" lengthAdjust="spacing" textLength="27" x="386" y="1007.6018">(N3)</text></g><!--entity SUAP--><g id="elem_SUAP"><ellipse cx="1949.5" cy="1048.0679" fill="#ADD8E6" rx="16" ry="16" style="stroke:#333333;stroke-width:0.5;"/><path d="M1949.5,1068.0679 C1953.5,1068.0679 1956.5,1068.0679 1960.5,1064.0679 C1968.5,1064.0679 1976.5,1072.0679 1976.5,1080.0679 L1976.5,1084.0679 C1976.5,1088.0679 1972.5,1092.0679 1968.5,1092.0679 L1930.5,1092.0679 C1926.5,1092.0679 1922.5,1088.0679 1922.5,1084.0679 L1922.5,1080.0679 C1922.5,1072.0679 1930.5,1064.0679 1938.5,1064.0679 C1942.5,1068.0679 1945.5,1068.0679 1949.5,1068.0679 " fill="#ADD8E6" style="stroke:#333333;stroke-width:0.5;"/><text fill="#000000" font-family="sans-serif" font-size="14" lengthAdjust="spacing" textLength="35" x="1931" y="1107.5339">SUAP</text><text fill="#000000" font-family="sans-serif" font-size="14" lengthAdjust="spacing" textLength="37" x="1931" y="1126.6018">(IFPB)</text></g><!--reverse link Visitante to Capitao--><g id="link_Visitante_Capitao"><path d="M50.8841,1356.7283 C72.5041,1216.5683 131.17,836.1979 152.83,695.8079 " fill="none" id="Visitante-backto-Capitao" style="stroke:#444444;stroke-width:1.0;"/><polygon fill="none" points="48.14,1374.5179,56.814,1357.643,44.9542,1355.8136,48.14,1374.5179" style="stroke:#444444;stroke-width:1.0;"/></g><!--reverse link Capitao to Moderador--><g id="link_Capitao_Moderador"><path d="M207.1,646.0679 C224.75,646.0679 230.15,646.0679 249.59,646.0679 " fill="none" id="Capitao-backto-Moderador" style="stroke:#444444;stroke-width:1.0;"/><polygon fill="none" points="189.1,646.0679,207.1,652.0679,207.1,640.0679,189.1,646.0679" style="stroke:#444444;stroke-width:1.0;"/></g><!--reverse link Moderador to Admin--><g id="link_Moderador_Admin"><path d="M314.5661,712.538 C327.3361,744.568 338.1,770.2379 355,807.0679 C371.36,842.7079 391.34,882.1179 407.06,912.2879 " fill="none" id="Moderador-backto-Admin" style="stroke:#444444;stroke-width:1.0;"/><polygon fill="none" points="307.9,695.8179,308.9928,714.7601,320.1395,710.316,307.9,695.8179" style="stroke:#444444;stroke-width:1.0;"/></g><!--link Visitante to UC01--><g id="link_Visitante_UC01"><path d="M73.1,1424.0679 C97.23,1424.0679 130.92,1424.0679 160.5,1424.0679 C160.5,1424.0679 160.5,1424.0679 435.5,1424.0679 C482.61,1424.0679 528.01,1424.0679 574.33,1424.0679 " fill="none" id="Visitante-to-UC01" style="stroke:#444444;stroke-width:1.0;"/><polygon fill="#444444" points="580.33,1424.0679,571.33,1420.0679,575.33,1424.0679,571.33,1428.0679,580.33,1424.0679" style="stroke:#444444;stroke-width:1.0;"/></g><!--link Visitante to UC02--><g id="link_Visitante_UC02"><path d="M73.25,1462.1879 C95.39,1483.5979 126.69,1506.0679 160.5,1506.0679 C160.5,1506.0679 160.5,1506.0679 435.5,1506.0679 C492.76,1506.0679 550.3173,1508.1221 603.3873,1510.7421 " fill="none" id="Visitante-to-UC02" style="stroke:#444444;stroke-width:1.0;"/><polygon fill="#444444" points="609.38,1511.0379,600.5882,1506.599,604.3861,1510.7914,600.1937,1514.5893,609.38,1511.0379" style="stroke:#444444;stroke-width:1.0;"/></g><!--link Capitao to UC03--><g id="link_Capitao_UC03"><path d="M182.05,695.6879 C226.18,801.2079 343.75,1048.9479 522,1180.0679 C560.71,1208.5479 603.8668,1229.1353 644.0368,1245.1553 " fill="none" id="Capitao-to-UC03" style="stroke:#444444;stroke-width:1.0;"/><polygon fill="#444444" points="649.61,1247.3779,642.732,1240.3286,644.9657,1245.5257,639.7685,1247.7594,649.61,1247.3779" style="stroke:#444444;stroke-width:1.0;"/></g><!--link UC03 to UC04--><g id="link_UC03_UC04"><path d="M874.02,1275.6279 C942.68,1276.3579 1017.2303,1277.1644 1080.5303,1277.8344 " fill="none" id="UC03-to-UC04" style="stroke:#444444;stroke-width:1.0;stroke-dasharray:7.0,7.0;"/><polygon fill="#444444" points="1086.53,1277.8979,1077.5728,1273.8029,1081.5303,1277.845,1077.4882,1281.8024,1086.53,1277.8979" style="stroke:#444444;stroke-width:1.0;"/><text fill="#000000" font-family="sans-serif" font-size="13" lengthAdjust="spacing" textLength="57" x="940" y="1254.9649">&#171;include&#187;</text><text fill="#000000" font-family="sans-serif" font-size="13" lengthAdjust="spacing" textLength="102" x="917.5" y="1272.6709">[primeiro acesso]</text></g><!--link Capitao to UC05--><g id="link_Capitao_UC05"><path d="M165.34,596.2979 C173.49,477.0879 202.07,185.0679 286.5,185.0679 C286.5,185.0679 286.5,185.0679 728.5,185.0679 C840.93,185.0679 962.4031,178.7343 1055.7331,172.5543 " fill="none" id="Capitao-to-UC05" style="stroke:#444444;stroke-width:1.0;"/><polygon fill="#444444" points="1061.72,172.1579,1052.4754,168.7613,1056.7309,172.4883,1053.004,176.7438,1061.72,172.1579" style="stroke:#444444;stroke-width:1.0;"/></g><!--link Capitao to UC06--><g id="link_Capitao_UC06"><path d="M168.64,596.4379 C182.46,495.9879 220.09,278.0679 286.5,278.0679 C286.5,278.0679 286.5,278.0679 728.5,278.0679 C846.36,278.0679 974.8294,272.2841 1069.0994,266.9941 " fill="none" id="Capitao-to-UC06" style="stroke:#444444;stroke-width:1.0;"/><polygon fill="#444444" points="1075.09,266.6579,1065.88,263.1684,1070.0979,266.9381,1066.3282,271.1559,1075.09,266.6579" style="stroke:#444444;stroke-width:1.0;"/></g><!--link Moderador to UC07--><g id="link_Moderador_UC07"><path d="M325.09,642.5579 C384.92,636.8179 500.4373,625.7401 594.1673,616.7601 " fill="none" id="Moderador-to-UC07" style="stroke:#444444;stroke-width:1.0;"/><polygon fill="#444444" points="600.14,616.1879,590.7995,613.0645,595.1628,616.6648,591.5625,621.028,600.14,616.1879" style="stroke:#444444;stroke-width:1.0;"/></g><!--link Moderador to UC08--><g id="link_Moderador_UC08"><path d="M325.09,650.5779 C385.54,658.0279 502.9651,672.5139 597.0751,684.1139 " fill="none" id="Moderador-to-UC08" style="stroke:#444444;stroke-width:1.0;"/><polygon fill="#444444" points="603.03,684.8479,594.5869,679.777,598.0676,684.2362,593.6083,687.7169,603.03,684.8479" style="stroke:#444444;stroke-width:1.0;"/></g><!--link Moderador to UC09--><g id="link_Moderador_UC09"><path d="M325.31,664.5779 C370.66,686.8079 450.49,724.0879 522,748.0679 C554.19,758.8579 584.1381,766.9095 616.6681,774.5295 " fill="none" id="Moderador-to-UC09" style="stroke:#444444;stroke-width:1.0;"/><polygon fill="#444444" points="622.51,775.8979,614.6595,769.9507,617.6418,774.7576,612.8349,777.7398,622.51,775.8979" style="stroke:#444444;stroke-width:1.0;"/></g><!--link Moderador to UC10--><g id="link_Moderador_UC10"><path d="M325.3,605.8479 C368.18,561.5179 443.27,491.4079 522,453.0679 C548.32,440.2479 572.3514,431.9714 600.9414,424.5714 " fill="none" id="Moderador-to-UC10" style="stroke:#444444;stroke-width:1.0;"/><polygon fill="#444444" points="606.75,423.0679,597.0348,421.4507,601.9095,424.3208,599.0394,429.1955,606.75,423.0679" style="stroke:#444444;stroke-width:1.0;"/></g><!--link Moderador to UC11--><g id="link_Moderador_UC11"><path d="M325.09,627.5379 C334.72,622.9179 345.17,618.1279 355,614.0679 C427.63,584.0979 446.69,578.4879 522,556.0679 C553.39,546.7279 581.9961,539.121 613.5161,531.311 " fill="none" id="Moderador-to-UC11" style="stroke:#444444;stroke-width:1.0;"/><polygon fill="#444444" points="619.34,529.8679,609.6421,528.1499,614.4868,531.0704,611.5662,535.9151,619.34,529.8679" style="stroke:#444444;stroke-width:1.0;"/></g><!--link UC10 to UC12--><g id="link_UC10_UC12"><path d="M864.83,417.5379 C937.39,425.7779 1019.2183,435.0613 1086.0983,442.6513 " fill="none" id="UC10-to-UC12" style="stroke:#444444;stroke-width:1.0;stroke-dasharray:7.0,7.0;"/><polygon fill="#444444" points="1092.06,443.3279,1083.5685,438.3386,1087.0919,442.7641,1082.6664,446.2875,1092.06,443.3279" style="stroke:#444444;stroke-width:1.0;"/><text fill="#000000" font-family="sans-serif" font-size="13" lengthAdjust="spacing" textLength="57" x="940" y="401.9649">&#171;include&#187;</text><text fill="#000000" font-family="sans-serif" font-size="13" lengthAdjust="spacing" textLength="98" x="919.5" y="419.6709">[ao criar partida]</text></g><!--link UC11 to UC12--><g id="link_UC11_UC12"><path d="M884.64,502.1679 C929.14,500.1179 977.59,496.6979 1022,491.0679 C1051.45,487.3379 1077.4832,482.5554 1105.8032,476.4854 " fill="none" id="UC11-to-UC12" style="stroke:#444444;stroke-width:1.0;stroke-dasharray:7.0,7.0;"/><polygon fill="#444444" points="1111.67,475.2279,1102.0316,473.2029,1106.781,476.2758,1103.7082,481.0253,1111.67,475.2279" style="stroke:#444444;stroke-width:1.0;"/><text fill="#000000" font-family="sans-serif" font-size="13" lengthAdjust="spacing" textLength="56" x="940.5" y="468.9649">&#171;extend&#187;</text><text fill="#000000" font-family="sans-serif" font-size="13" lengthAdjust="spacing" textLength="105" x="916" y="486.6709">[partidas em lote]</text></g><!--link Admin to UC13--><g id="link_Admin_UC13"><path d="M483.23,958.1279 C512.65,955.7079 546.0303,952.9507 584.5003,949.7807 " fill="none" id="Admin-to-UC13" style="stroke:#444444;stroke-width:1.0;"/><polygon fill="#444444" points="590.48,949.2879,581.1819,946.0405,585.4969,949.6985,581.8389,954.0135,590.48,949.2879" style="stroke:#444444;stroke-width:1.0;"/></g><!--link Admin to UC14--><g id="link_Admin_UC14"><path d="M483.42,976.3879 C495.94,979.9979 509.45,983.7879 522,987.0679 C557.81,996.4379 591.5244,1004.5756 626.2344,1012.6056 " fill="none" id="Admin-to-UC14" style="stroke:#444444;stroke-width:1.0;"/><polygon fill="#444444" points="632.08,1013.9579,624.2132,1008.0323,627.2087,1012.831,622.41,1015.8265,632.08,1013.9579" style="stroke:#444444;stroke-width:1.0;"/></g><!--link Admin to UC15--><g id="link_Admin_UC15"><path d="M459.95,1011.7479 C474.66,1036.6979 495.65,1065.3279 522,1083.0679 C545.32,1098.7679 567.3098,1107.9223 594.7698,1115.1923 " fill="none" id="Admin-to-UC15" style="stroke:#444444;stroke-width:1.0;"/><polygon fill="#444444" points="600.57,1116.7279,592.8935,1110.5578,595.7365,1115.4483,590.846,1118.2913,600.57,1116.7279" style="stroke:#444444;stroke-width:1.0;"/></g><!--link UC05 to UC16--><g id="link_UC05_UC16"><path d="M1311.33,180.5379 C1330.24,187.6579 1348.42,197.4879 1363,211.0679 C1623.92,454.0479 1677.1981,919.8965 1687.0181,1044.3765 " fill="none" id="UC05-to-UC16" style="stroke:#444444;stroke-width:1.0;stroke-dasharray:7.0,7.0;"/><polygon fill="#444444" points="1687.49,1050.3579,1690.7698,1041.0712,1687.0968,1045.3734,1682.7946,1041.7004,1687.49,1050.3579" style="stroke:#444444;stroke-width:1.0;"/><text fill="#000000" font-family="sans-serif" font-size="13" lengthAdjust="spacing" textLength="56" x="1414.5" y="197.9649">&#171;extend&#187;</text><text fill="#000000" font-family="sans-serif" font-size="13" lengthAdjust="spacing" textLength="141" x="1372" y="215.6709">[valida&#231;&#227;o de matr&#237;cula]</text></g><!--link UC16 to SUAP--><g id="link_UC16_SUAP"><path d="M1808.72,1081.0679 C1850.95,1081.0679 1888.82,1081.0679 1915.89,1081.0679 " fill="none" id="UC16-to-SUAP" style="stroke:#444444;stroke-width:1.0;"/><polygon fill="#444444" points="1921.89,1081.0679,1912.89,1077.0679,1916.89,1081.0679,1912.89,1085.0679,1921.89,1081.0679" style="stroke:#444444;stroke-width:1.0;"/></g><!--link UC03 to UC17--><g id="link_UC03_UC17"><path d="M823.4,1250.1979 C852.62,1243.5279 885,1236.8079 915,1232.0679 C1133.51,1197.5479 1384.1825,1185.2704 1540.2725,1180.7804 " fill="none" id="UC03-to-UC17" style="stroke:#444444;stroke-width:1.0;stroke-dasharray:7.0,7.0;"/><polygon fill="#444444" points="1546.27,1180.6079,1537.1587,1176.8684,1541.2721,1180.7517,1537.3887,1184.865,1546.27,1180.6079" style="stroke:#444444;stroke-width:1.0;"/><text fill="#000000" font-family="sans-serif" font-size="13" lengthAdjust="spacing" textLength="57" x="1168" y="1184.9649">&#171;include&#187;</text></g><!--link UC04 to UC17--><g id="link_UC04_UC17"><path d="M1285.46,1261.0079 C1369.35,1243.7879 1489.8726,1219.0446 1578.9126,1200.7646 " fill="none" id="UC04-to-UC17" style="stroke:#444444;stroke-width:1.0;stroke-dasharray:7.0,7.0;"/><polygon fill="#444444" points="1584.79,1199.5579,1575.1694,1197.4496,1579.8922,1200.5634,1576.7783,1205.2862,1584.79,1199.5579" style="stroke:#444444;stroke-width:1.0;"/><text fill="#000000" font-family="sans-serif" font-size="13" lengthAdjust="spacing" textLength="57" x="1414" y="1212.9649">&#171;include&#187;</text></g><!--SRC=[bLRDRjj64BxpAGRAeIugnQP-xI8mGCcouxQEXT0o2bGvhCcrl0Z9PNQNIVeJe3tr1Te7A7eeKi37NdBbc_H9Ehly4QbrMfKsG75svkCtiz_CKZ4LKJXXP2r8J22aC2EIw_iIRprOSA5815_CVTW7_-nawJWHlLMWE0YslbCGCa43nNZYo9SiIGd200aK5xxw5f796ofvJ1kBAGbUaZKjbdKiITPHqo6JD22IJj5lBNYMX3CUSG6FJkVwxm57Ba8gIgUHkRQvj5m6vcguU4BmD-NYq5oEymdy_SkF__aFtjNbSopDBhwEOGATQoOPvgmexAyI3wklI0U8XDfUESv8obJ-ErybUy_SJusFCH5UULnmp8g4N6YNVk5IsoedBunPmgIg7GU5ex4xJWa9lIpj_N3SO543LKlLoqrWPToyRjUI-UV-rVp2W_dNL_Fdpox_L-tyfRV05CvF5zCY2Ms0Hrzf9KwZZEvCOkRvbpwSp67fxyYWLYfq6ZtHCptHWUyT1ofbGoV_IL02Y_p3JSG2ebS1hrAkq5dE3boCdF54Pf4Y0fvYXwGOYQbHgOZAxwN2GDa5HMvef7-WKXKBYIpIrWWMPXynfvaC470VJbc4EovWKSPLONqCUzSYwsMA9lfr-HyejeV83X2uzXAGSF1HJpGco3ScIkJtGHOH-0maJUv8pN1W0GqHw4fm3U9hrrM2M0l1Oie41o-WKl8gUcWHhVe1YdQmUOuG_a9hLq3HLn891WIprwNe0WrHltWFgiBNL4SMrdY3DN-LiPGQBC7-7MTiaTvqKT6XDkl9vasDZay5Z_bhj16J2P1wiNxPn88wR1KWVsz4j6iD3YsuemqSfa4Yr558MtWGiPWfAY7ExvFzEF_jRGrtj0td7Y3S6HKq2LX3c5hpHO6x4195kX2XGA8kt69S5tGxPBNgtGCBrNGI4OAkDMX44XPfOUsbF4LH6aq3ZH4K1sx0OtXjyZ3s6jNg9RTVSDL2pJ_428IZEbCSCrIceuku1vgfEMoXcBNMbhk3Lc4BVMmLLbCrxOJOeMYIjThA7ROAgy_DB5qbL0-OMxREXCxsBzoaiuZV45QD0dTe0Ua6mWCWmn9zXqZpvYnQ9NFDJENlr_gn0XbP9IXd0yuWKx6FZXLNjzYrsGq1rwWV72AeV0zhaFyPiw2Q1ExOYfpKk_EKo3lziLAEaxt5zCkJqxuUHIHITSacXkIxtKzrtx-SdNlvp_clknxkcrEzrpikvhDbwZTEsy8oSCnuVVpOF0tXStZoX2L1b8Nq-7YLV9DMiv6OsVZ20XXj6yPEy-0kR1FRT6YRZYmJTfjbSXtJoGLZR9DjniZ4JCdgm7hXc1vj-TEtU9Q4HOBb5AXQ53CiFo-ArmtQZyFsuyXnpDWlqSVRw8rUroBPd5M6rTZ0w2y8fxaDgAvMKexPcO-i_GC0]--></g></svg>