<?xml version="1.0" encoding="us-ascii" standalone="no"?><svg xmlns="http://www.w3.org/2000/svg" xmlns:xlink="http://www.w3.org/1999/xlink" contentStyleType="text/css" height="895px" preserveAspectRatio="none" style="width:4303px;height:895px;background:#FFFFFF;" version="1.1" viewBox="0 0 4303 895" width="4303px" zoomAndPan="magnify"><defs/><g><text fill="#000000" font-family="sans-serif" font-size="14" font-weight="bold" lengthAdjust="spacing" textLength="527" x="1884.25" y="29.9659">SD-03 - Cria&#231;&#227;o de Partida e Gera&#231;&#227;o de S&#250;mula Autom&#225;tica (RF007 + RN005)</text><rect fill="#FFFFFF" height="559.4143" style="stroke:#AAAAAA;stroke-width:1.0;" width="10" x="2296" y="214.3218"/><rect fill="#FFFFFF" height="31.706" style="stroke:#AAAAAA;stroke-width:1.0;" width="10" x="2547" y="246.0278"/><rect fill="#FFFFFF" height="334.7662" style="stroke:#AAAAAA;stroke-width:1.0;" width="10" x="2617" y="389.5579"/><rect fill="#FFFFFF" height="176.2361" style="stroke:#AAAAAA;stroke-width:1.0;" width="10" x="2698.5" y="516.382"/><rect fill="#FFFFFF" height="31.706" style="stroke:#AAAAAA;stroke-width:1.0;" width="10" x="2992.5" y="421.2639"/><rect fill="#FFFFFF" height="31.706" style="stroke:#AAAAAA;stroke-width:1.0;" width="10" x="2992.5" y="548.088"/><rect fill="#FFFFFF" height="31.706" style="stroke:#AAAAAA;stroke-width:1.0;" width="10" x="2992.5" y="629.206"/><rect fill="#FFFFFF" height="207.9421" style="stroke:#AAAAAA;stroke-width:1.0;" width="10" x="3103" y="484.6759"/><line style="stroke:#AAAAAA;stroke-width:0.5;stroke-dasharray:5.0,5.0;" x1="114" x2="114" y1="143.2038" y2="792.7361"/><line style="stroke:#AAAAAA;stroke-width:0.5;stroke-dasharray:5.0,5.0;" x1="361.5" x2="361.5" y1="143.2038" y2="792.7361"/><line style="stroke:#AAAAAA;stroke-width:0.5;stroke-dasharray:5.0,5.0;" x1="596" x2="596" y1="143.2038" y2="792.7361"/><line style="stroke:#AAAAAA;stroke-width:0.5;stroke-dasharray:5.0,5.0;" x1="835.5" x2="835.5" y1="143.2038" y2="792.7361"/><line style="stroke:#AAAAAA;stroke-width:0.5;stroke-dasharray:5.0,5.0;" x1="930.5" x2="930.5" y1="143.2038" y2="792.7361"/><line style="stroke:#AAAAAA;stroke-width:0.5;stroke-dasharray:5.0,5.0;" x1="1234" x2="1234" y1="143.2038" y2="792.7361"/><line style="stroke:#AAAAAA;stroke-width:0.5;stroke-dasharray:5.0,5.0;" x1="1442" x2="1442" y1="143.2038" y2="792.7361"/><line style="stroke:#AAAAAA;stroke-width:0.5;stroke-dasharray:5.0,5.0;" x1="1543" x2="1543" y1="143.2038" y2="792.7361"/><line style="stroke:#AAAAAA;stroke-width:0.5;stroke-dasharray:5.0,5.0;" x1="1766" x2="1766" y1="143.2038" y2="792.7361"/><line style="stroke:#AAAAAA;stroke-width:0.5;stroke-dasharray:5.0,5.0;" x1="1929.5" x2="1929.5" y1="143.2038" y2="792.7361"/><line style="stroke:#AAAAAA;stroke-width:0.5;stroke-dasharray:5.0,5.0;" x1="2036.5" x2="2036.5" y1="143.2038" y2="792.7361"/><line style="stroke:#AAAAAA;stroke-width:0.5;stroke-dasharray:5.0,5.0;" x1="2300.5" x2="2300.5" y1="143.2038" y2="792.7361"/><line style="stroke:#AAAAAA;stroke-width:0.5;stroke-dasharray:5.0,5.0;" x1="2552" x2="2552" y1="143.2038" y2="792.7361"/><line style="stroke:#AAAAAA;stroke-width:0.5;stroke-dasharray:5.0,5.0;" x1="2622" x2="2622" y1="143.2038" y2="792.7361"/><line style="stroke:#AAAAAA;stroke-width:0.5;stroke-dasharray:5.0,5.0;" x1="2703" x2="2703" y1="143.2038" y2="792.7361"/><line style="stroke:#AAAAAA;stroke-width:0.5;stroke-dasharray:5.0,5.0;" x1="2997.5" x2="2997.5" y1="143.2038" y2="792.7361"/><line style="stroke:#AAAAAA;stroke-width:0.5;stroke-dasharray:5.0,5.0;" x1="3107.5" x2="3107.5" y1="143.2038" y2="792.7361"/><line style="stroke:#AAAAAA;stroke-width:0.5;stroke-dasharray:5.0,5.0;" x1="3226.5" x2="3226.5" y1="143.2038" y2="792.7361"/><line style="stroke:#AAAAAA;stroke-width:0.5;stroke-dasharray:5.0,5.0;" x1="3472" x2="3472" y1="143.2038" y2="792.7361"/><line style="stroke:#AAAAAA;stroke-width:0.5;stroke-dasharray:5.0,5.0;" x1="3692.5" x2="3692.5" y1="143.2038" y2="792.7361"/><line style="stroke:#AAAAAA;stroke-width:0.5;stroke-dasharray:5.0,5.0;" x1="3930.5" x2="3930.5" y1="143.2038" y2="792.7361"/><line style="stroke:#AAAAAA;stroke-width:0.5;stroke-dasharray:5.0,5.0;" x1="4037.5" x2="4037.5" y1="143.2038" y2="792.7361"/><line style="stroke:#AAAAAA;stroke-width:0.5;stroke-dasharray:5.0,5.0;" x1="4209.5" x2="4209.5" y1="143.2038" y2="792.7361"/><text fill="#000000" font-family="sans-serif" font-size="14" lengthAdjust="spacing" textLength="52" x="85.5" y="120.0339">Usu&#225;rio</text><text fill="#000000" font-family="sans-serif" font-size="14" lengthAdjust="spacing" textLength="143" x="40" y="139.1018">(Capit&#227;o/Mod/Admin)</text><ellipse cx="114.5" cy="53.5679" fill="#E2E2F0" rx="8" ry="8" style="stroke:#181818;stroke-width:0.5;"/><path d="M114.5,61.5679 L114.5,88.5679 M101.5,69.5679 L127.5,69.5679 M114.5,88.5679 L101.5,103.5679 M114.5,88.5679 L127.5,103.5679 " fill="none" style="stroke:#181818;stroke-width:0.5;"/><text fill="#000000" font-family="sans-serif" font-size="14" lengthAdjust="spacing" textLength="52" x="85.5" y="806.702">Usu&#225;rio</text><text fill="#000000" font-family="sans-serif" font-size="14" lengthAdjust="spacing" textLength="143" x="40" y="825.77">(Capit&#227;o/Mod/Admin)</text><ellipse cx="114.5" cy="838.3719" fill="#E2E2F0" rx="8" ry="8" style="stroke:#181818;stroke-width:0.5;"/><path d="M114.5,846.3719 L114.5,873.3719 M101.5,854.3719 L127.5,854.3719 M114.5,873.3719 L101.5,888.3719 M114.5,873.3719 L127.5,888.3719 " fill="none" style="stroke:#181818;stroke-width:0.5;"/><rect fill="#E8F0FE" height="52.1358" rx="2.5" ry="2.5" style="stroke:#555555;stroke-width:0.5;" width="90" x="316.5" y="90.0679"/><text fill="#000000" font-family="sans-serif" font-size="14" lengthAdjust="spacing" textLength="31" x="346" y="112.0339">View</text><text fill="#000000" font-family="sans-serif" font-size="14" lengthAdjust="spacing" textLength="76" x="323.5" y="131.1018">(LoginView)</text><rect fill="#E8F0FE" height="52.1358" rx="2.5" ry="2.5" style="stroke:#555555;stroke-width:0.5;" width="90" x="316.5" y="791.7361"/><text fill="#000000" font-family="sans-serif" font-size="14" lengthAdjust="spacing" textLength="31" x="346" y="813.702">View</text><text fill="#000000" font-family="sans-serif" font-size="14" lengthAdjust="spacing" textLength="76" x="323.5" y="832.77">(LoginView)</text><rect fill="#E8F0FE" height="52.1358" rx="2.5" ry="2.5" style="stroke:#555555;stroke-width:0.5;" width="115" x="539" y="90.0679"/><text fill="#000000" font-family="sans-serif" font-size="14" lengthAdjust="spacing" textLength="36" x="578.5" y="112.0339">RBAC</text><text fill="#000000" font-family="sans-serif" font-size="14" lengthAdjust="spacing" textLength="101" x="546" y="131.1018">(Auth Backend)</text><rect fill="#E8F0FE" height="52.1358" rx="2.5" ry="2.5" style="stroke:#555555;stroke-width:0.5;" width="115" x="539" y="791.7361"/><text fill="#000000" font-family="sans-serif" font-size="14" lengthAdjust="spacing" textLength="36" x="578.5" y="813.702">RBAC</text><text fill="#000000" font-family="sans-serif" font-size="14" lengthAdjust="spacing" textLength="101" x="546" y="832.77">(Auth Backend)</text><text fill="#000000" font-family="sans-serif" font-size="14" lengthAdjust="spacing" textLength="108" x="778.5" y="139.1018">Banco de Dados</text><path d="M817.5,88.1358 C817.5,78.1358 835.5,78.1358 835.5,78.1358 C835.5,78.1358 853.5,78.1358 853.5,88.1358 L853.5,114.1358 C853.5,124.1358 835.5,124.1358 835.5,124.1358 C835.5,124.1358 817.5,124.1358 817.5,114.1358 L817.5,88.1358 " fill="#E2E2F0" style="stroke:#181818;stroke-width:1.5;"/><path d="M817.5,88.1358 C817.5,98.1358 835.5,98.1358 835.5,98.1358 C835.5,98.1358 853.5,98.1358 853.5,88.1358 " fill="none" style="stroke:#181818;stroke-width:1.5;"/><text fill="#000000" font-family="sans-serif" font-size="14" lengthAdjust="spacing" textLength="108" x="778.5" y="806.702">Banco de Dados</text><path d="M817.5,820.804 C817.5,810.804 835.5,810.804 835.5,810.804 C835.5,810.804 853.5,810.804 853.5,820.804 L853.5,846.804 C853.5,856.804 835.5,856.804 835.5,856.804 C835.5,856.804 817.5,856.804 817.5,846.804 L817.5,820.804 " fill="#E2E2F0" style="stroke:#181818;stroke-width:1.5;"/><path d="M817.5,820.804 C817.5,830.804 835.5,830.804 835.5,830.804 C835.5,830.804 853.5,830.804 853.5,820.804 " fill="none" style="stroke:#181818;stroke-width:1.5;"/><text fill="#000000" font-family="sans-serif" font-size="14" lengthAdjust="spacing" textLength="51" x="902.5" y="139.1018">Capit&#227;o</text><ellipse cx="931" cy="72.6358" fill="#E2E2F0" rx="8" ry="8" style="stroke:#181818;stroke-width:0.5;"/><path d="M931,80.6358 L931,107.6358 M918,88.6358 L944,88.6358 M931,107.6358 L918,122.6358 M931,107.6358 L944,122.6358 " fill="none" style="stroke:#181818;stroke-width:0.5;"/><text fill="#000000" font-family="sans-serif" font-size="14" lengthAdjust="spacing" textLength="51" x="902.5" y="806.702">Capit&#227;o</text><ellipse cx="931" cy="819.304" fill="#E2E2F0" rx="8" ry="8" style="stroke:#181818;stroke-width:0.5;"/><path d="M931,827.304 L931,854.304 M918,835.304 L944,835.304 M931,854.304 L918,869.304 M931,854.304 L944,869.304 " fill="none" style="stroke:#181818;stroke-width:0.5;"/><rect fill="#E8F0FE" height="52.1358" rx="2.5" ry="2.5" style="stroke:#555555;stroke-width:0.5;" width="136" x="1166" y="90.0679"/><text fill="#000000" font-family="sans-serif" font-size="14" lengthAdjust="spacing" textLength="31" x="1218.5" y="112.0339">View</text><text fill="#000000" font-family="sans-serif" font-size="14" lengthAdjust="spacing" textLength="122" x="1173" y="131.1018">(AtletaCreateView)</text><rect fill="#E8F0FE" height="52.1358" rx="2.5" ry="2.5" style="stroke:#555555;stroke-width:0.5;" width="136" x="1166" y="791.7361"/><text fill="#000000" font-family="sans-serif" font-size="14" lengthAdjust="spacing" textLength="31" x="1218.5" y="813.702">View</text><text fill="#000000" font-family="sans-serif" font-size="14" lengthAdjust="spacing" textLength="122" x="1173" y="832.77">(AtletaCreateView)</text><rect fill="#E8F0FE" height="52.1358" rx="2.5" ry="2.5" style="stroke:#555555;stroke-width:0.5;" width="88" x="1398" y="90.0679"/><text fill="#000000" font-family="sans-serif" font-size="14" lengthAdjust="spacing" textLength="36" x="1424" y="112.0339">RBAC</text><text fill="#000000" font-family="sans-serif" font-size="14" lengthAdjust="spacing" textLength="74" x="1405" y="131.1018">(Decorator)</text><rect fill="#E8F0FE" height="52.1358" rx="2.5" ry="2.5" style="stroke:#555555;stroke-width:0.5;" width="88" x="1398" y="791.7361"/><text fill="#000000" font-family="sans-serif" font-size="14" lengthAdjust="spacing" textLength="36" x="1424" y="813.702">RBAC</text><text fill="#000000" font-family="sans-serif" font-size="14" lengthAdjust="spacing" textLength="74" x="1405" y="832.77">(Decorator)</text><rect fill="#E8F0FE" height="52.1358" rx="2.5" ry="2.5" style="stroke:#555555;stroke-width:0.5;" width="95" x="1496" y="90.0679"/><text fill="#000000" font-family="sans-serif" font-size="14" lengthAdjust="spacing" textLength="34" x="1526.5" y="112.0339">Form</text><text fill="#000000" font-family="sans-serif" font-size="14" lengthAdjust="spacing" textLength="81" x="1503" y="131.1018">(AtletaForm)</text><rect fill="#E8F0FE" height="52.1358" rx="2.5" ry="2.5" style="stroke:#555555;stroke-width:0.5;" width="95" x="1496" y="791.7361"/><text fill="#000000" font-family="sans-serif" font-size="14" lengthAdjust="spacing" textLength="34" x="1526.5" y="813.702">Form</text><text fill="#000000" font-family="sans-serif" font-size="14" lengthAdjust="spacing" textLength="81" x="1503" y="832.77">(AtletaForm)</text><rect fill="#E8F0FE" height="52.1358" rx="2.5" ry="2.5" style="stroke:#555555;stroke-width:0.5;" width="61" x="1736" y="90.0679"/><text fill="#000000" font-family="sans-serif" font-size="14" lengthAdjust="spacing" textLength="42" x="1745.5" y="112.0339">Model</text><text fill="#000000" font-family="sans-serif" font-size="14" lengthAdjust="spacing" textLength="47" x="1743" y="131.1018">(Atleta)</text><rect fill="#E8F0FE" height="52.1358" rx="2.5" ry="2.5" style="stroke:#555555;stroke-width:0.5;" width="61" x="1736" y="791.7361"/><text fill="#000000" font-family="sans-serif" font-size="14" lengthAdjust="spacing" textLength="42" x="1745.5" y="813.702">Model</text><text fill="#000000" font-family="sans-serif" font-size="14" lengthAdjust="spacing" textLength="47" x="1743" y="832.77">(Atleta)</text><text fill="#000000" font-family="sans-serif" font-size="14" lengthAdjust="spacing" textLength="108" x="1872.5" y="139.1018">Banco de Dados</text><path d="M1911.5,88.1358 C1911.5,78.1358 1929.5,78.1358 1929.5,78.1358 C1929.5,78.1358 1947.5,78.1358 1947.5,88.1358 L1947.5,114.1358 C1947.5,124.1358 1929.5,124.1358 1929.5,124.1358 C1929.5,124.1358 1911.5,124.1358 1911.5,114.1358 L1911.5,88.1358 " fill="#E2E2F0" style="stroke:#181818;stroke-width:1.5;"/><path d="M1911.5,88.1358 C1911.5,98.1358 1929.5,98.1358 1929.5,98.1358 C1929.5,98.1358 1947.5,98.1358 1947.5,88.1358 " fill="none" style="stroke:#181818;stroke-width:1.5;"/><text fill="#000000" font-family="sans-serif" font-size="14" lengthAdjust="spacing" textLength="108" x="1872.5" y="806.702">Banco de Dados</text><path d="M1911.5,820.804 C1911.5,810.804 1929.5,810.804 1929.5,810.804 C1929.5,810.804 1947.5,810.804 1947.5,820.804 L1947.5,846.804 C1947.5,856.804 1929.5,856.804 1929.5,856.804 C1929.5,856.804 1911.5,856.804 1911.5,846.804 L1911.5,820.804 " fill="#E2E2F0" style="stroke:#181818;stroke-width:1.5;"/><path d="M1911.5,820.804 C1911.5,830.804 1929.5,830.804 1929.5,830.804 C1929.5,830.804 1947.5,830.804 1947.5,820.804 " fill="none" style="stroke:#181818;stroke-width:1.5;"/><text fill="#000000" font-family="sans-serif" font-size="14" lengthAdjust="spacing" textLength="75" x="1996.5" y="139.1018">Moderador</text><ellipse cx="2037" cy="72.6358" fill="#E2E2F0" rx="8" ry="8" style="stroke:#181818;stroke-width:0.5;"/><path d="M2037,80.6358 L2037,107.6358 M2024,88.6358 L2050,88.6358 M2037,107.6358 L2024,122.6358 M2037,107.6358 L2050,122.6358 " fill="none" style="stroke:#181818;stroke-width:0.5;"/><text fill="#000000" font-family="sans-serif" font-size="14" lengthAdjust="spacing" textLength="75" x="1996.5" y="806.702">Moderador</text><ellipse cx="2037" cy="819.304" fill="#E2E2F0" rx="8" ry="8" style="stroke:#181818;stroke-width:0.5;"/><path d="M2037,827.304 L2037,854.304 M2024,835.304 L2050,835.304 M2037,854.304 L2024,869.304 M2037,854.304 L2050,869.304 " fill="none" style="stroke:#181818;stroke-width:0.5;"/><rect fill="#E8F0FE" height="52.1358" rx="2.5" ry="2.5" style="stroke:#555555;stroke-width:0.5;" width="145" x="2228.5" y="90.0679"/><text fill="#000000" font-family="sans-serif" font-size="14" lengthAdjust="spacing" textLength="31" x="2285.5" y="112.0339">View</text><text fill="#000000" font-family="sans-serif" font-size="14" lengthAdjust="spacing" textLength="131" x="2235.5" y="131.1018">(PartidaCreateView)</text><rect fill="#E8F0FE" height="52.1358" rx="2.5" ry="2.5" style="stroke:#555555;stroke-width:0.5;" width="145" x="2228.5" y="791.7361"/><text fill="#000000" font-family="sans-serif" font-size="14" lengthAdjust="spacing" textLength="31" x="2285.5" y="813.702">View</text><text fill="#000000" font-family="sans-serif" font-size="14" lengthAdjust="spacing" textLength="131" x="2235.5" y="832.77">(PartidaCreateView)</text><rect fill="#E8F0FE" height="33.0679" rx="2.5" ry="2.5" style="stroke:#555555;stroke-width:0.5;" width="50" x="2527" y="109.1358"/><text fill="#000000" font-family="sans-serif" font-size="14" lengthAdjust="spacing" textLength="36" x="2534" y="131.1018">RBAC</text><rect fill="#E8F0FE" height="33.0679" rx="2.5" ry="2.5" style="stroke:#555555;stroke-width:0.5;" width="50" x="2527" y="791.7361"/><text fill="#000000" font-family="sans-serif" font-size="14" lengthAdjust="spacing" textLength="36" x="2534" y="813.702">RBAC</text><rect fill="#E8F0FE" height="52.1358" rx="2.5" ry="2.5" style="stroke:#555555;stroke-width:0.5;" width="70" x="2587" y="90.0679"/><text fill="#000000" font-family="sans-serif" font-size="14" lengthAdjust="spacing" textLength="42" x="2601" y="112.0339">Model</text><text fill="#000000" font-family="sans-serif" font-size="14" lengthAdjust="spacing" textLength="56" x="2594" y="131.1018">(Partida)</text><rect fill="#E8F0FE" height="52.1358" rx="2.5" ry="2.5" style="stroke:#555555;stroke-width:0.5;" width="70" x="2587" y="791.7361"/><text fill="#000000" font-family="sans-serif" font-size="14" lengthAdjust="spacing" textLength="42" x="2601" y="813.702">Model</text><text fill="#000000" font-family="sans-serif" font-size="14" lengthAdjust="spacing" textLength="56" x="2594" y="832.77">(Partida)</text><rect fill="#E8F0FE" height="52.1358" rx="2.5" ry="2.5" style="stroke:#555555;stroke-width:0.5;" width="73" x="2667" y="90.0679"/><text fill="#000000" font-family="sans-serif" font-size="14" lengthAdjust="spacing" textLength="42" x="2682.5" y="112.0339">Model</text><text fill="#000000" font-family="sans-serif" font-size="14" lengthAdjust="spacing" textLength="59" x="2674" y="131.1018">(Sumula)</text><rect fill="#E8F0FE" height="52.1358" rx="2.5" ry="2.5" style="stroke:#555555;stroke-width:0.5;" width="73" x="2667" y="791.7361"/><text fill="#000000" font-family="sans-serif" font-size="14" lengthAdjust="spacing" textLength="42" x="2682.5" y="813.702">Model</text><text fill="#000000" font-family="sans-serif" font-size="14" lengthAdjust="spacing" textLength="59" x="2674" y="832.77">(Sumula)</text><text fill="#000000" font-family="sans-serif" font-size="14" lengthAdjust="spacing" textLength="108" x="2940.5" y="139.1018">Banco de Dados</text><path d="M2979.5,88.1358 C2979.5,78.1358 2997.5,78.1358 2997.5,78.1358 C2997.5,78.1358 3015.5,78.1358 3015.5,88.1358 L3015.5,114.1358 C3015.5,124.1358 2997.5,124.1358 2997.5,124.1358 C2997.5,124.1358 2979.5,124.1358 2979.5,114.1358 L2979.5,88.1358 " fill="#E2E2F0" style="stroke:#181818;stroke-width:1.5;"/><path d="M2979.5,88.1358 C2979.5,98.1358 2997.5,98.1358 2997.5,98.1358 C2997.5,98.1358 3015.5,98.1358 3015.5,88.1358 " fill="none" style="stroke:#181818;stroke-width:1.5;"/><text fill="#000000" font-family="sans-serif" font-size="14" lengthAdjust="spacing" textLength="108" x="2940.5" y="806.702">Banco de Dados</text><path d="M2979.5,820.804 C2979.5,810.804 2997.5,810.804 2997.5,810.804 C2997.5,810.804 3015.5,810.804 3015.5,820.804 L3015.5,846.804 C3015.5,856.804 2997.5,856.804 2997.5,856.804 C2997.5,856.804 2979.5,856.804 2979.5,846.804 L2979.5,820.804 " fill="#E2E2F0" style="stroke:#181818;stroke-width:1.5;"/><path d="M2979.5,820.804 C2979.5,830.804 2997.5,830.804 2997.5,830.804 C2997.5,830.804 3015.5,830.804 3015.5,820.804 " fill="none" style="stroke:#181818;stroke-width:1.5;"/><rect fill="#E8F0FE" height="52.1358" rx="2.5" ry="2.5" style="stroke:#555555;stroke-width:0.5;" width="87" x="3064.5" y="90.0679"/><text fill="#000000" font-family="sans-serif" font-size="14" lengthAdjust="spacing" textLength="42" x="3087" y="112.0339">Signal</text><text fill="#000000" font-family="sans-serif" font-size="14" lengthAdjust="spacing" textLength="73" x="3071.5" y="131.1018">(post_save)</text><rect fill="#E8F0FE" height="52.1358" rx="2.5" ry="2.5" style="stroke:#555555;stroke-width:0.5;" width="87" x="3064.5" y="791.7361"/><text fill="#000000" font-family="sans-serif" font-size="14" lengthAdjust="spacing" textLength="42" x="3087" y="813.702">Signal</text><text fill="#000000" font-family="sans-serif" font-size="14" lengthAdjust="spacing" textLength="73" x="3071.5" y="832.77">(post_save)</text><text fill="#000000" font-family="sans-serif" font-size="14" lengthAdjust="spacing" textLength="124" x="3161.5" y="139.1018">Moderador/Admin</text><ellipse cx="3226.5" cy="72.6358" fill="#E2E2F0" rx="8" ry="8" style="stroke:#181818;stroke-width:0.5;"/><path d="M3226.5,80.6358 L3226.5,107.6358 M3213.5,88.6358 L3239.5,88.6358 M3226.5,107.6358 L3213.5,122.6358 M3226.5,107.6358 L3239.5,122.6358 " fill="none" style="stroke:#181818;stroke-width:0.5;"/><text fill="#000000" font-family="sans-serif" font-size="14" lengthAdjust="spacing" textLength="124" x="3161.5" y="806.702">Moderador/Admin</text><ellipse cx="3226.5" cy="819.304" fill="#E2E2F0" rx="8" ry="8" style="stroke:#181818;stroke-width:0.5;"/><path d="M3226.5,827.304 L3226.5,854.304 M3213.5,835.304 L3239.5,835.304 M3226.5,854.304 L3213.5,869.304 M3226.5,854.304 L3239.5,869.304 " fill="none" style="stroke:#181818;stroke-width:0.5;"/><rect fill="#E8F0FE" height="52.1358" rx="2.5" ry="2.5" style="stroke:#555555;stroke-width:0.5;" width="155" x="3395" y="90.0679"/><text fill="#000000" font-family="sans-serif" font-size="14" lengthAdjust="spacing" textLength="31" x="3457" y="112.0339">View</text><text fill="#000000" font-family="sans-serif" font-size="14" lengthAdjust="spacing" textLength="141" x="3402" y="131.1018">(PlanilhaUploadView)</text><rect fill="#E8F0FE" height="52.1358" rx="2.5" ry="2.5" style="stroke:#555555;stroke-width:0.5;" width="155" x="3395" y="791.7361"/><text fill="#000000" font-family="sans-serif" font-size="14" lengthAdjust="spacing" textLength="31" x="3457" y="813.702">View</text><text fill="#000000" font-family="sans-serif" font-size="14" lengthAdjust="spacing" textLength="141" x="3402" y="832.77">(PlanilhaUploadView)</text><rect fill="#E8F0FE" height="52.1358" rx="2.5" ry="2.5" style="stroke:#555555;stroke-width:0.5;" width="136" x="3624.5" y="90.0679"/><text fill="#000000" font-family="sans-serif" font-size="14" lengthAdjust="spacing" textLength="64" x="3660.5" y="112.0339">Validador</text><text fill="#000000" font-family="sans-serif" font-size="14" lengthAdjust="spacing" textLength="122" x="3631.5" y="131.1018">(PlanilhaValidator)</text><rect fill="#E8F0FE" height="52.1358" rx="2.5" ry="2.5" style="stroke:#555555;stroke-width:0.5;" width="136" x="3624.5" y="791.7361"/><text fill="#000000" font-family="sans-serif" font-size="14" lengthAdjust="spacing" textLength="64" x="3660.5" y="813.702">Validador</text><text fill="#000000" font-family="sans-serif" font-size="14" lengthAdjust="spacing" textLength="122" x="3631.5" y="832.77">(PlanilhaValidator)</text><rect fill="#E8F0FE" height="52.1358" rx="2.5" ry="2.5" style="stroke:#555555;stroke-width:0.5;" width="124" x="3868.5" y="90.0679"/><text fill="#000000" font-family="sans-serif" font-size="14" lengthAdjust="spacing" textLength="42" x="3909.5" y="112.0339">Model</text><text fill="#000000" font-family="sans-serif" font-size="14" lengthAdjust="spacing" textLength="110" x="3875.5" y="131.1018">(PlanilhaUpload)</text><rect fill="#E8F0FE" height="52.1358" rx="2.5" ry="2.5" style="stroke:#555555;stroke-width:0.5;" width="124" x="3868.5" y="791.7361"/><text fill="#000000" font-family="sans-serif" font-size="14" lengthAdjust="spacing" textLength="42" x="3909.5" y="813.702">Model</text><text fill="#000000" font-family="sans-serif" font-size="14" lengthAdjust="spacing" textLength="110" x="3875.5" y="832.77">(PlanilhaUpload)</text><rect fill="#E8F0FE" height="52.1358" rx="2.5" ry="2.5" style="stroke:#555555;stroke-width:0.5;" width="70" x="4002.5" y="90.0679"/><text fill="#000000" font-family="sans-serif" font-size="14" lengthAdjust="spacing" textLength="42" x="4016.5" y="112.0339">Model</text><text fill="#000000" font-family="sans-serif" font-size="14" lengthAdjust="spacing" textLength="56" x="4009.5" y="131.1018">(Partida)</text><rect fill="#E8F0FE" height="52.1358" rx="2.5" ry="2.5" style="stroke:#555555;stroke-width:0.5;" width="70" x="4002.5" y="791.7361"/><text fill="#000000" font-family="sans-serif" font-size="14" lengthAdjust="spacing" textLength="42" x="4016.5" y="813.702">Model</text><text fill="#000000" font-family="sans-serif" font-size="14" lengthAdjust="spacing" textLength="56" x="4009.5" y="832.77">(Partida)</text><text fill="#000000" font-family="sans-serif" font-size="14" lengthAdjust="spacing" textLength="108" x="4152.5" y="139.1018">Banco de Dados</text><path d="M4191.5,88.1358 C4191.5,78.1358 4209.5,78.1358 4209.5,78.1358 C4209.5,78.1358 4227.5,78.1358 4227.5,88.1358 L4227.5,114.1358 C4227.5,124.1358 4209.5,124.1358 4209.5,124.1358 C4209.5,124.1358 4191.5,124.1358 4191.5,114.1358 L4191.5,88.1358 " fill="#E2E2F0" style="stroke:#181818;stroke-width:1.5;"/><path d="M4191.5,88.1358 C4191.5,98.1358 4209.5,98.1358 4209.5,98.1358 C4209.5,98.1358 4227.5,98.1358 4227.5,88.1358 " fill="none" style="stroke:#181818;stroke-width:1.5;"/><text fill="#000000" font-family="sans-serif" font-size="14" lengthAdjust="spacing" textLength="108" x="4152.5" y="806.702">Banco de Dados</text><path d="M4191.5,820.804 C4191.5,810.804 4209.5,810.804 4209.5,810.804 C4209.5,810.804 4227.5,810.804 4227.5,820.804 L4227.5,846.804 C4227.5,856.804 4209.5,856.804 4209.5,856.804 C4209.5,856.804 4191.5,856.804 4191.5,846.804 L4191.5,820.804 " fill="#E2E2F0" style="stroke:#181818;stroke-width:1.5;"/><path d="M4191.5,820.804 C4191.5,830.804 4209.5,830.804 4209.5,830.804 C4209.5,830.804 4227.5,830.804 4227.5,820.804 " fill="none" style="stroke:#181818;stroke-width:1.5;"/><rect fill="#FFFFFF" height="559.4143" style="stroke:#AAAAAA;stroke-width:1.0;" width="10" x="2296" y="214.3218"/><rect fill="#FFFFFF" height="31.706" style="stroke:#AAAAAA;stroke-width:1.0;" width="10" x="2547" y="246.0278"/><rect fill="#FFFFFF" height="334.7662" style="stroke:#AAAAAA;stroke-width:1.0;" width="10" x="2617" y="389.5579"/><rect fill="#FFFFFF" height="176.2361" style="stroke:#AAAAAA;stroke-width:1.0;" width="10" x="2698.5" y="516.382"/><rect fill="#FFFFFF" height="31.706" style="stroke:#AAAAAA;stroke-width:1.0;" width="10" x="2992.5" y="421.2639"/><rect fill="#FFFFFF" height="31.706" style="stroke:#AAAAAA;stroke-width:1.0;" width="10" x="2992.5" y="548.088"/><rect fill="#FFFFFF" height="31.706" style="stroke:#AAAAAA;stroke-width:1.0;" width="10" x="2992.5" y="629.206"/><rect fill="#FFFFFF" height="207.9421" style="stroke:#AAAAAA;stroke-width:1.0;" width="10" x="3103" y="484.6759"/><line style="stroke:#000000;stroke-width:1.0;stroke-dasharray:2.0,2.0;" x1="0" x2="4296.5" y1="154.2038" y2="154.2038"/><polygon fill="#181818" points="2284,210.3218,2294,214.3218,2284,218.3218,2288,214.3218" style="stroke:#181818;stroke-width:1.0;"/><line style="stroke:#181818;stroke-width:1.5;" x1="2037" x2="2290" y1="214.3218" y2="214.3218"/><text fill="#000000" font-family="sans-serif" font-size="13" lengthAdjust="spacing" textLength="120" x="2044" y="173.1008">POST /partidas/criar</text><text fill="#000000" font-family="sans-serif" font-size="13" lengthAdjust="spacing" textLength="221" x="2044" y="190.8068">{equipe_mandante, equipe_visitante,</text><text fill="#000000" font-family="sans-serif" font-size="13" lengthAdjust="spacing" textLength="206" x="2044" y="208.5128">modalidade, data_hora, local, fase}</text><polygon fill="#181818" points="2535,242.0278,2545,246.0278,2535,250.0278,2539,246.0278" style="stroke:#181818;stroke-width:1.0;"/><line style="stroke:#181818;stroke-width:1.5;" x1="2306" x2="2541" y1="246.0278" y2="246.0278"/><text fill="#000000" font-family="sans-serif" font-size="13" lengthAdjust="spacing" textLength="179" x="2313" y="240.2188">verificar_sessao() + nivel &gt;= N2</text><polygon fill="#181818" points="2317,273.7338,2307,277.7338,2317,281.7338,2313,277.7338" style="stroke:#181818;stroke-width:1.0;"/><line style="stroke:#181818;stroke-width:1.5;stroke-dasharray:2.0,2.0;" x1="2311" x2="2551" y1="277.7338" y2="277.7338"/><text fill="#000000" font-family="sans-serif" font-size="13" lengthAdjust="spacing" textLength="65" x="2323" y="271.9248">autorizado</text><line style="stroke:#181818;stroke-width:1.5;" x1="2306" x2="2348" y1="344.8519" y2="344.8519"/><line style="stroke:#181818;stroke-width:1.5;" x1="2348" x2="2348" y1="344.8519" y2="357.8519"/><line style="stroke:#181818;stroke-width:1.5;" x1="2307" x2="2348" y1="357.8519" y2="357.8519"/><polygon fill="#181818" points="2317,353.8519,2307,357.8519,2317,361.8519,2313,357.8519" style="stroke:#181818;stroke-width:1.0;"/><text fill="#000000" font-family="sans-serif" font-size="13" lengthAdjust="spacing" textLength="101" x="2313" y="303.6308">validar_equipes()</text><text fill="#000000" font-family="sans-serif" font-size="13" lengthAdjust="spacing" textLength="227" x="2313" y="321.3369">[equipes de modalidades compat&#237;veis,</text><text fill="#000000" font-family="sans-serif" font-size="13" lengthAdjust="spacing" textLength="105" x="2313" y="339.0429">equipes distintas]</text><polygon fill="#181818" points="2605,385.5579,2615,389.5579,2605,393.5579,2609,389.5579" style="stroke:#181818;stroke-width:1.0;"/><line style="stroke:#181818;stroke-width:1.5;" x1="2306" x2="2611" y1="389.5579" y2="389.5579"/><text fill="#000000" font-family="sans-serif" font-size="13" lengthAdjust="spacing" textLength="146" x="2313" y="383.7489">Partida.objects.create(...)</text><polygon fill="#181818" points="2980.5,417.2639,2990.5,421.2639,2980.5,425.2639,2984.5,421.2639" style="stroke:#181818;stroke-width:1.0;"/><line style="stroke:#181818;stroke-width:1.5;" x1="2627" x2="2986.5" y1="421.2639" y2="421.2639"/><text fill="#000000" font-family="sans-serif" font-size="13" lengthAdjust="spacing" textLength="143" x="2634" y="415.4549">INSERT INTO partida (...)</text><polygon fill="#181818" points="2638,448.9699,2628,452.9699,2638,456.9699,2634,452.9699" style="stroke:#181818;stroke-width:1.0;"/><line style="stroke:#181818;stroke-width:1.5;stroke-dasharray:2.0,2.0;" x1="2632" x2="2996.5" y1="452.9699" y2="452.9699"/><text fill="#000000" font-family="sans-serif" font-size="13" lengthAdjust="spacing" textLength="57" x="2644" y="447.1609">partida.id</text><polygon fill="#181818" points="3091,480.6759,3101,484.6759,3091,488.6759,3095,484.6759" style="stroke:#181818;stroke-width:1.0;"/><line style="stroke:#181818;stroke-width:1.5;" x1="2627" x2="3097" y1="484.6759" y2="484.6759"/><text fill="#000000" font-family="sans-serif" font-size="13" lengthAdjust="spacing" textLength="196" x="2634" y="478.8669">post_save(Partida, created=True)</text><polygon fill="#181818" points="2719.5,512.382,2709.5,516.382,2719.5,520.382,2715.5,516.382" style="stroke:#181818;stroke-width:1.0;"/><line style="stroke:#181818;stroke-width:1.5;" x1="2713.5" x2="3102" y1="516.382" y2="516.382"/><text fill="#000000" font-family="sans-serif" font-size="13" lengthAdjust="spacing" textLength="244" x="2725.5" y="510.573">Sumula.gerar_automaticamente(partida)</text><polygon fill="#181818" points="2980.5,544.088,2990.5,548.088,2980.5,552.088,2984.5,548.088" style="stroke:#181818;stroke-width:1.0;"/><line style="stroke:#181818;stroke-width:1.5;" x1="2708.5" x2="2986.5" y1="548.088" y2="548.088"/><text fill="#000000" font-family="sans-serif" font-size="13" lengthAdjust="spacing" textLength="234" x="2715.5" y="542.279">SELECT template WHERE modalidade=?</text><polygon fill="#181818" points="2719.5,575.794,2709.5,579.794,2719.5,583.794,2715.5,579.794" style="stroke:#181818;stroke-width:1.0;"/><line style="stroke:#181818;stroke-width:1.5;stroke-dasharray:2.0,2.0;" x1="2713.5" x2="2996.5" y1="579.794" y2="579.794"/><text fill="#000000" font-family="sans-serif" font-size="13" lengthAdjust="spacing" textLength="104" x="2725.5" y="573.985">template_sumula</text><polygon fill="#181818" points="2980.5,625.206,2990.5,629.206,2980.5,633.206,2984.5,629.206" style="stroke:#181818;stroke-width:1.0;"/><line style="stroke:#181818;stroke-width:1.5;" x1="2708.5" x2="2986.5" y1="629.206" y2="629.206"/><text fill="#000000" font-family="sans-serif" font-size="13" lengthAdjust="spacing" textLength="124" x="2715.5" y="605.691">INSERT INTO sumula</text><text fill="#000000" font-family="sans-serif" font-size="13" lengthAdjust="spacing" textLength="265" x="2715.5" y="623.397">(partida, modalidade, conteudo, gerada_em)</text><polygon fill="#181818" points="2719.5,656.912,2709.5,660.912,2719.5,664.912,2715.5,660.912" style="stroke:#181818;stroke-width:1.0;"/><line style="stroke:#181818;stroke-width:1.5;stroke-dasharray:2.0,2.0;" x1="2713.5" x2="2996.5" y1="660.912" y2="660.912"/><text fill="#000000" font-family="sans-serif" font-size="13" lengthAdjust="spacing" textLength="58" x="2725.5" y="655.103">sumula.id</text><polygon fill="#181818" points="3096,688.6181,3106,692.6181,3096,696.6181,3100,692.6181" style="stroke:#181818;stroke-width:1.0;"/><line style="stroke:#181818;stroke-width:1.5;stroke-dasharray:2.0,2.0;" x1="2703.5" x2="3102" y1="692.6181" y2="692.6181"/><text fill="#000000" font-family="sans-serif" font-size="13" lengthAdjust="spacing" textLength="122" x="2710.5" y="686.8091">sumula_obj  [RN005]</text><polygon fill="#181818" points="2317,720.3241,2307,724.3241,2317,728.3241,2313,724.3241" style="stroke:#181818;stroke-width:1.0;"/><line style="stroke:#181818;stroke-width:1.5;stroke-dasharray:2.0,2.0;" x1="2311" x2="2621" y1="724.3241" y2="724.3241"/><text fill="#000000" font-family="sans-serif" font-size="13" lengthAdjust="spacing" textLength="68" x="2323" y="718.5151">partida_obj</text><polygon fill="#181818" points="2048,769.7361,2038,773.7361,2048,777.7361,2044,773.7361" style="stroke:#181818;stroke-width:1.0;"/><line style="stroke:#181818;stroke-width:1.5;stroke-dasharray:2.0,2.0;" x1="2042" x2="2300" y1="773.7361" y2="773.7361"/><text fill="#000000" font-family="sans-serif" font-size="13" lengthAdjust="spacing" textLength="172" x="2054" y="750.2211">HTTP 302 - Redirect /partidas</text><text fill="#000000" font-family="sans-serif" font-size="13" lengthAdjust="spacing" textLength="235" x="2054" y="767.9271">+ mensagem "Partida e s&#250;mula criadas"</text><line style="stroke:#000000;stroke-width:1.0;stroke-dasharray:2.0,2.0;" x1="0" x2="4296.5" y1="781.7361" y2="781.7361"/><!--SRC=[rLdRRjl86RxdKmpKYqYD9SkoamO6d8KFSdRRh2DOqhR0sX36v5YU3JcZdI4LeqNUOM_s0O9U52sGgxtRMxr9dwJ_FmToIDDskXU5gqqs8lMVJzy_PCxpb94JJfUAPbIJX94f-x7O_4l4d98-cKYLqvJySJmbssJwvcGUHVez5oiAv4G39HCnErHAVfZTyFYzO5gJdS6B5g8tIXQh8waIfevbAXNvtIlpQI4zahT7D7w_10wHEEBJ5_XVG0p_ptdCLrJaTuZ7hqw7f-DxY4CJNfXFYmbl-JNy5Qn6VMW-KVIC_FlddvxK7p1fUj8VxkoJmo9d0dobctzi_Yv9B3CoKJnZN4bo64Dwv5CqNx0FAxfarWaekuONZCoKZAcjJd53YP1tl8fed4EIEdDTR3ufBYz4zvYkU0xysz_APFimoRZeTGWK-Lmp5GKbGJhVSVO16DxA9HVutTAPophX-T7XCH22VJS4ouw9nDBY3r52Stf5DIET8ofYYVQUq4HgGt5o54MecVHVMybadqpUJMTaEyMh2_6tZEQAnqLAjw0EmSsFw1DVqvmvKoBB1m9G7V1J7oVLRJBtAcPZMsHOWFNa21YduxVZunafT44XLkJFNu_FnwGKSV1LnGnc0qU_qgdOakiS0Wzz8aMkm46O3G9q5bcKi90necbEOiKIXkE4QyB5UlCfvGc4mnYy-OpgY2oipV1xB9LYELXFhBv-42sCkdKtvrASKfwo1EW2dSPJuXYGrGHydtmzcqt8Q3Y4qkeS1_PyKzhJkH3VPqnegCACB9dO_1D2WHFm_EnqEDoxZ5WAUGrzyPnjbXQWTY6lVc1ntc9WPM4z6ojNqWjgIjfb1ML1GWW98qk8IuhNsE2jQyLK03yaewdYu01Qgs24V7z-EjmPNWBPVU7R7Oum72pX2jmYsrvKlzHOq-ag5kysg_xDUDREtc1kjULKggn8JOjZVmcvfhPu_Wi3RDirB806H64B8smB9gUuvYgZCPKV7p6k4hocM19giP8fnpgrmhgLt1wKcQceb_larNCItr2bjw3n-EPNRPhtGi2OyXS4lcLCIMpfZ5obC71IwBrBwnNcqxUDAqPp_-7w7mDO6votjfe1QzXCWLjvhT9ShSud9uUpiIKykA7w9lGEp6zKsC4f1RbEKhs2yTEeudT_SlVhnTkmmmsYM748jGOjL7QnIteFkj-iNsZTcoj9LN9NPPLXcEyOR1ERbjwfdFj2utwBQIs6eLd6j2UxYepsoJ45Fn0eeDWEOStCALcnL18Foqzz4S6SFEO3wSBS7ExqolN3_s0WtrnGsRfhM6a0Hf3NQkN0RwqRnma3PAIWebetHdL278obNBombFYjJWZR44jBIajbxZssluoYo7c4XOwc-c5EZIYz7TjmKLNj3yOZG-kQOuHpaYb-ZMkBxv0UUKu4NxEKl3uWPplrtMKKMRv-fHKM7wduNy6ug86k8wSCQBsnTq33cLdZDNQs-6Unuew31YqojaLgUzUjX0c8KLm8gcCO5oA7uNqjS_cn4P7_RKXARHY82gUw2MOts1HDiKI6oCpxKRMS7B-Rdyswl-yzl2kE8cJgLvfYE9RbzRLmPFV2OF_xOVE9i5j0DfobLdlbrtV6Ljpu4BfKj_DjdT6d9A4TdB4jsG_GBom4F1inH4ExsmNsR7uLa8dIbcRO5gNpNOldGpnvwSql7gy1qb_sTuOasNnUybpgo_j5DOgb50ZpSsSFP0m95IXFuB2vBl92qKk_p9dibU0ljK6Bny9dFEurWSKa7k_zbl0vVBJcF6ZCDLuxYbOJ0XjUsw64Uxzfle7Tf_KWDZEp2vjIrNgs5nzgGBXlcXWIUn1RtmR-Hg- -uDbXYBUi1MKhV7Cs7P_Fu9_PEs8d0kaE1eC6ErQutMri9tWtBCU0tq5rp-2q1IrjEF0WqMIn9ZwOiUPIuKROXNXEoeDEns5QsKCshRem6qwdgTLChl-7xMCNjWzOmEpJ0nZu4yI_X196tZ1LtPv2kqBvFFL5P1SNaIzt1y_9Cjjymigs-yaV04fmgBoezXGi8Cotyl3VkgGuHSqjPTA-ffIRoMxxmk6aEHcsX5i9fmNwOUccNxIQD3HE-L9GbBIIEbzekcPEcBaVHI0JktfIm_YLDGz07dTt07ZsOy5N3AOzJ1IHmtnnDzPSGwFX7PX1CZ43De6VpTovWJLjYwGofYaC7h0uG7uRjsWIOl_kuzW_gcF_RcJv-e47zuF_Rg3FKtlmiVve0phkEmQsyadZE5ZHVFDvpRW6Tqig06ikO9nSXkBzf7E9RaviCoghODZ4Je8PkzkOiIuZfC69wKRYVgZJqU9uhOtMtK23JJyI-xBmDRb5h8t90JuE2NJvYd6iACHhj5KwM48VgGKc0F08aeYOmxhEd52IzNVQyDUjLpdBLYcIkVMgJ45zlweSBytmd0jjx6bwFtqWlfO3syH78IndVBh7YWJm4rrCw89blKTiiG9RSZ2jiArCWYL6TCF7JpYUBaCst_ZiJYucbJ1VqSu10vK1XwinNw8MZEzzeENwluwGrQpLRhpYUC0dXZL5jhEVB23kxPFvAfKqCV2HKi7J6nf0YNxg6BXd3kDAiQLfi106DRIpgfmoYFVA8TxB5iIphm8yxfcBTl1p4ctWAlIRtqK_ksI3x83DBTx-n5vUteEDDMLEqGCGsS3IqMC0kMT0ppYBis3UZdmhPmM07rKmwjToS9lgsm32hFFHtCzyBwY2C7QRO_FOeunXn-VxWrYlBmE-CXp1QTIf38PC5RIeOcXobvfND56IwOL_Gs61BPPf0OS18gyKNmAK_GBjgxVCKOIQizdzaXrCvXpmOi4qb1bCTfGP8gGzk6RuJagRR_Ih1sJIT0b0dMToGQzmuuwfN9Y3av6Ri1n64LNsO0L7Kb7WgmR89PovhZZwT6bFpvQWUWM3vwr0QP2PvW5GiHHfk5oKHy5mnIyZJaYPB2YV9ZAxGbaKfbwX87LEyq8VF4EXpxP8YvPvE8Hj9TOEb-V8WkannMlOBiIPUQz4orN03j-wpROcxJDQFmMgHzZjKJ4nNwnTtshInGVhzyO2xgTIhj0AUrWgxH6qr6bVDLJBqEYHJQXsQCGMnXl8rXxnsYvKaWOk1HX8kizBk5fp2eM9o7ddr6-LkcVSLKkNQrnj9ZLy25Bke_Yi5xwbcljZz3pOG1wfeu0wSCp-vex1OTxBK_3zfVLb8FyN7pnDU8PjRW6-hSeWMFy1]--></g></svg>