<?xml version="1.0" encoding="us-ascii" standalone="no"?><svg xmlns="http://www.w3.org/2000/svg" xmlns:xlink="http://www.w3.org/1999/xlink" contentStyleType="text/css" height="1102px" preserveAspectRatio="none" style="width:4303px;height:1102px;background:#FFFFFF;" version="1.1" viewBox="0 0 4303 1102" width="4303px" zoomAndPan="magnify"><defs/><g><text fill="#000000" font-family="sans-serif" font-size="14" font-weight="bold" lengthAdjust="spacing" textLength="436" x="1929.75" y="29.9659">SD-04 - Carregamento de Partidas por Planilha (RF008 + RN006)</text><rect fill="#FFFFFF" height="438.5902" style="stroke:#AAAAAA;stroke-width:1.0;" width="10" x="3467.5" y="196.6158"/><rect fill="#FFFFFF" height="245.6481" style="stroke:#AAAAAA;stroke-width:1.0;" width="10" x="3687.5" y="290.7338"/><rect fill="#FFFFFF" height="63.412" style="stroke:#AAAAAA;stroke-width:1.0;" width="10" x="3925.5" y="862.13"/><rect fill="#FFFFFF" height="63.412" style="stroke:#AAAAAA;stroke-width:1.0;" width="10" x="4032.5" y="742.306"/><rect fill="none" height="489.9842" style="stroke:#888888;stroke-width:1.5;" width="1135" x="3151.5" y="492.9699"/><rect fill="none" height="114.8241" style="stroke:#888888;stroke-width:1.5;" width="891.5" x="3385" y="698.8939"/><line style="stroke:#AAAAAA;stroke-width:0.5;stroke-dasharray:5.0,5.0;" x1="114" x2="114" y1="143.2038" y2="999.9541"/><line style="stroke:#AAAAAA;stroke-width:0.5;stroke-dasharray:5.0,5.0;" x1="361.5" x2="361.5" y1="143.2038" y2="999.9541"/><line style="stroke:#AAAAAA;stroke-width:0.5;stroke-dasharray:5.0,5.0;" x1="596" x2="596" y1="143.2038" y2="999.9541"/><line style="stroke:#AAAAAA;stroke-width:0.5;stroke-dasharray:5.0,5.0;" x1="835.5" x2="835.5" y1="143.2038" y2="999.9541"/><line style="stroke:#AAAAAA;stroke-width:0.5;stroke-dasharray:5.0,5.0;" x1="930.5" x2="930.5" y1="143.2038" y2="999.9541"/><line style="stroke:#AAAAAA;stroke-width:0.5;stroke-dasharray:5.0,5.0;" x1="1234" x2="1234" y1="143.2038" y2="999.9541"/><line style="stroke:#AAAAAA;stroke-width:0.5;stroke-dasharray:5.0,5.0;" x1="1442" x2="1442" y1="143.2038" y2="999.9541"/><line style="stroke:#AAAAAA;stroke-width:0.5;stroke-dasharray:5.0,5.0;" x1="1543" x2="1543" y1="143.2038" y2="999.9541"/><line style="stroke:#AAAAAA;stroke-width:0.5;stroke-dasharray:5.0,5.0;" x1="1766" x2="1766" y1="143.2038" y2="999.9541"/><line style="stroke:#AAAAAA;stroke-width:0.5;stroke-dasharray:5.0,5.0;" x1="1929.5" x2="1929.5" y1="143.2038" y2="999.9541"/><line style="stroke:#AAAAAA;stroke-width:0.5;stroke-dasharray:5.0,5.0;" x1="2036.5" x2="2036.5" y1="143.2038" y2="999.9541"/><line style="stroke:#AAAAAA;stroke-width:0.5;stroke-dasharray:5.0,5.0;" x1="2300.5" x2="2300.5" y1="143.2038" y2="999.9541"/><line style="stroke:#AAAAAA;stroke-width:0.5;stroke-dasharray:5.0,5.0;" x1="2552" x2="2552" y1="143.2038" y2="999.9541"/><line style="stroke:#AAAAAA;stroke-width:0.5;stroke-dasharray:5.0,5.0;" x1="2622" x2="2622" y1="143.2038" y2="999.9541"/><line style="stroke:#AAAAAA;stroke-width:0.5;stroke-dasharray:5.0,5.0;" x1="2703" x2="2703" y1="143.2038" y2="999.9541"/><line style="stroke:#AAAAAA;stroke-width:0.5;stroke-dasharray:5.0,5.0;" x1="2997.5" x2="2997.5" y1="143.2038" y2="999.9541"/><line style="stroke:#AAAAAA;stroke-width:0.5;stroke-dasharray:5.0,5.0;" x1="3107.5" x2="3107.5" y1="143.2038" y2="999.9541"/><line style="stroke:#AAAAAA;stroke-width:0.5;stroke-dasharray:5.0,5.0;" x1="3226.5" x2="3226.5" y1="143.2038" y2="999.9541"/><line style="stroke:#AAAAAA;stroke-width:0.5;stroke-dasharray:5.0,5.0;" x1="3472" x2="3472" y1="143.2038" y2="999.9541"/><line style="stroke:#AAAAAA;stroke-width:0.5;stroke-dasharray:5.0,5.0;" x1="3692.5" x2="3692.5" y1="143.2038" y2="999.9541"/><line style="stroke:#AAAAAA;stroke-width:0.5;stroke-dasharray:5.0,5.0;" x1="3930.5" x2="3930.5" y1="143.2038" y2="999.9541"/><line style="stroke:#AAAAAA;stroke-width:0.5;stroke-dasharray:5.0,5.0;" x1="4037.5" x2="4037.5" y1="143.2038" y2="999.9541"/><line style="stroke:#AAAAAA;stroke-width:0.5;stroke-dasharray:5.0,5.0;" x1="4209.5" x2="4209.5" y1="143.2038" y2="999.9541"/><text fill="#000000" font-family="sans-serif" font-size="14" lengthAdjust="spacing" textLength="52" x="85.5" y="120.0339">Usu&#225;rio</text><text fill="#000000" font-family="sans-serif" font-size="14" lengthAdjust="spacing" textLength="143" x="40" y="139.1018">(Capit&#227;o/Mod/Admin)</text><ellipse cx="114.5" cy="53.5679" fill="#E2E2F0" rx="8" ry="8" style="stroke:#181818;stroke-width:0.5;"/><path d="M114.5,61.5679 L114.5,88.5679 M101.5,69.5679 L127.5,69.5679 M114.5,88.5679 L101.5,103.5679 M114.5,88.5679 L127.5,103.5679 " fill="none" style="stroke:#181818;stroke-width:0.5;"/><text fill="#000000" font-family="sans-serif" font-size="14" lengthAdjust="spacing" textLength="52" x="85.5" y="1013.92">Usu&#225;rio</text><text fill="#000000" font-family="sans-serif" font-size="14" lengthAdjust="spacing" textLength="143" x="40" y="1032.988">(Capit&#227;o/Mod/Admin)</text><ellipse cx="114.5" cy="1045.5899" fill="#E2E2F0" rx="8" ry="8" style="stroke:#181818;stroke-width:0.5;"/><path d="M114.5,1053.5899 L114.5,1080.5899 M101.5,1061.5899 L127.5,1061.5899 M114.5,1080.5899 L101.5,1095.5899 M114.5,1080.5899 L127.5,1095.5899 " fill="none" style="stroke:#181818;stroke-width:0.5;"/><rect fill="#E8F0FE" height="52.1358" rx="2.5" ry="2.5" style="stroke:#555555;stroke-width:0.5;" width="90" x="316.5" y="90.0679"/><text fill="#000000" font-family="sans-serif" font-size="14" lengthAdjust="spacing" textLength="31" x="346" y="112.0339">View</text><text fill="#000000" font-family="sans-serif" font-size="14" lengthAdjust="spacing" textLength="76" x="323.5" y="131.1018">(LoginView)</text><rect fill="#E8F0FE" height="52.1358" rx="2.5" ry="2.5" style="stroke:#555555;stroke-width:0.5;" width="90" x="316.5" y="998.9541"/><text fill="#000000" font-family="sans-serif" font-size="14" lengthAdjust="spacing" textLength="31" x="346" y="1020.92">View</text><text fill="#000000" font-family="sans-serif" font-size="14" lengthAdjust="spacing" textLength="76" x="323.5" y="1039.988">(LoginView)</text><rect fill="#E8F0FE" height="52.1358" rx="2.5" ry="2.5" style="stroke:#555555;stroke-width:0.5;" width="115" x="539" y="90.0679"/><text fill="#000000" font-family="sans-serif" font-size="14" lengthAdjust="spacing" textLength="36" x="578.5" y="112.0339">RBAC</text><text fill="#000000" font-family="sans-serif" font-size="14" lengthAdjust="spacing" textLength="101" x="546" y="131.1018">(Auth Backend)</text><rect fill="#E8F0FE" height="52.1358" rx="2.5" ry="2.5" style="stroke:#555555;stroke-width:0.5;" width="115" x="539" y="998.9541"/><text fill="#000000" font-family="sans-serif" font-size="14" lengthAdjust="spacing" textLength="36" x="578.5" y="1020.92">RBAC</text><text fill="#000000" font-family="sans-serif" font-size="14" lengthAdjust="spacing" textLength="101" x="546" y="1039.988">(Auth Backend)</text><text fill="#000000" font-family="sans-serif" font-size="14" lengthAdjust="spacing" textLength="108" x="778.5" y="139.1018">Banco de Dados</text><path d="M817.5,88.1358 C817.5,78.1358 835.5,78.1358 835.5,78.1358 C835.5,78.1358 853.5,78.1358 853.5,88.1358 L853.5,114.1358 C853.5,124.1358 835.5,124.1358 835.5,124.1358 C835.5,124.1358 817.5,124.1358 817.5,114.1358 L817.5,88.1358 " fill="#E2E2F0" style="stroke:#181818;stroke-width:1.5;"/><path d="M817.5,88.1358 C817.5,98.1358 835.5,98.1358 835.5,98.1358 C835.5,98.1358 853.5,98.1358 853.5,88.1358 " fill="none" style="stroke:#181818;stroke-width:1.5;"/><text fill="#000000" font-family="sans-serif" font-size="14" lengthAdjust="spacing" textLength="108" x="778.5" y="1013.92">Banco de Dados</text><path d="M817.5,1028.022 C817.5,1018.022 835.5,1018.022 835.5,1018.022 C835.5,1018.022 853.5,1018.022 853.5,1028.022 L853.5,1054.022 C853.5,1064.022 835.5,1064.022 835.5,1064.022 C835.5,1064.022 817.5,1064.022 817.5,1054.022 L817.5,1028.022 " fill="#E2E2F0" style="stroke:#181818;stroke-width:1.5;"/><path d="M817.5,1028.022 C817.5,1038.022 835.5,1038.022 835.5,1038.022 C835.5,1038.022 853.5,1038.022 853.5,1028.022 " fill="none" style="stroke:#181818;stroke-width:1.5;"/><text fill="#000000" font-family="sans-serif" font-size="14" lengthAdjust="spacing" textLength="51" x="902.5" y="139.1018">Capit&#227;o</text><ellipse cx="931" cy="72.6358" fill="#E2E2F0" rx="8" ry="8" style="stroke:#181818;stroke-width:0.5;"/><path d="M931,80.6358 L931,107.6358 M918,88.6358 L944,88.6358 M931,107.6358 L918,122.6358 M931,107.6358 L944,122.6358 " fill="none" style="stroke:#181818;stroke-width:0.5;"/><text fill="#000000" font-family="sans-serif" font-size="14" lengthAdjust="spacing" textLength="51" x="902.5" y="1013.92">Capit&#227;o</text><ellipse cx="931" cy="1026.522" fill="#E2E2F0" rx="8" ry="8" style="stroke:#181818;stroke-width:0.5;"/><path d="M931,1034.522 L931,1061.522 M918,1042.522 L944,1042.522 M931,1061.522 L918,1076.522 M931,1061.522 L944,1076.522 " fill="none" style="stroke:#181818;stroke-width:0.5;"/><rect fill="#E8F0FE" height="52.1358" rx="2.5" ry="2.5" style="stroke:#555555;stroke-width:0.5;" width="136" x="1166" y="90.0679"/><text fill="#000000" font-family="sans-serif" font-size="14" lengthAdjust="spacing" textLength="31" x="1218.5" y="112.0339">View</text><text fill="#000000" font-family="sans-serif" font-size="14" lengthAdjust="spacing" textLength="122" x="1173" y="131.1018">(AtletaCreateView)</text><rect fill="#E8F0FE" height="52.1358" rx="2.5" ry="2.5" style="stroke:#555555;stroke-width:0.5;" width="136" x="1166" y="998.9541"/><text fill="#000000" font-family="sans-serif" font-size="14" lengthAdjust="spacing" textLength="31" x="1218.5" y="1020.92">View</text><text fill="#000000" font-family="sans-serif" font-size="14" lengthAdjust="spacing" textLength="122" x="1173" y="1039.988">(AtletaCreateView)</text><rect fill="#E8F0FE" height="52.1358" rx="2.5" ry="2.5" style="stroke:#555555;stroke-width:0.5;" width="88" x="1398" y="90.0679"/><text fill="#000000" font-family="sans-serif" font-size="14" lengthAdjust="spacing" textLength="36" x="1424" y="112.0339">RBAC</text><text fill="#000000" font-family="sans-serif" font-size="14" lengthAdjust="spacing" textLength="74" x="1405" y="131.1018">(Decorator)</text><rect fill="#E8F0FE" height="52.1358" rx="2.5" ry="2.5" style="stroke:#555555;stroke-width:0.5;" width="88" x="1398" y="998.9541"/><text fill="#000000" font-family="sans-serif" font-size="14" lengthAdjust="spacing" textLength="36" x="1424" y="1020.92">RBAC</text><text fill="#000000" font-family="sans-serif" font-size="14" lengthAdjust="spacing" textLength="74" x="1405" y="1039.988">(Decorator)</text><rect fill="#E8F0FE" height="52.1358" rx="2.5" ry="2.5" style="stroke:#555555;stroke-width:0.5;" width="95" x="1496" y="90.0679"/><text fill="#000000" font-family="sans-serif" font-size="14" lengthAdjust="spacing" textLength="34" x="1526.5" y="112.0339">Form</text><text fill="#000000" font-family="sans-serif" font-size="14" lengthAdjust="spacing" textLength="81" x="1503" y="131.1018">(AtletaForm)</text><rect fill="#E8F0FE" height="52.1358" rx="2.5" ry="2.5" style="stroke:#555555;stroke-width:0.5;" width="95" x="1496" y="998.9541"/><text fill="#000000" font-family="sans-serif" font-size="14" lengthAdjust="spacing" textLength="34" x="1526.5" y="1020.92">Form</text><text fill="#000000" font-family="sans-serif" font-size="14" lengthAdjust="spacing" textLength="81" x="1503" y="1039.988">(AtletaForm)</text><rect fill="#E8F0FE" height="52.1358" rx="2.5" ry="2.5" style="stroke:#555555;stroke-width:0.5;" width="61" x="1736" y="90.0679"/><text fill="#000000" font-family="sans-serif" font-size="14" lengthAdjust="spacing" textLength="42" x="1745.5" y="112.0339">Model</text><text fill="#000000" font-family="sans-serif" font-size="14" lengthAdjust="spacing" textLength="47" x="1743" y="131.1018">(Atleta)</text><rect fill="#E8F0FE" height="52.1358" rx="2.5" ry="2.5" style="stroke:#555555;stroke-width:0.5;" width="61" x="1736" y="998.9541"/><text fill="#000000" font-family="sans-serif" font-size="14" lengthAdjust="spacing" textLength="42" x="1745.5" y="1020.92">Model</text><text fill="#000000" font-family="sans-serif" font-size="14" lengthAdjust="spacing" textLength="47" x="1743" y="1039.988">(Atleta)</text><text fill="#000000" font-family="sans-serif" font-size="14" lengthAdjust="spacing" textLength="108" x="1872.5" y="139.1018">Banco de Dados</text><path d="M1911.5,88.1358 C1911.5,78.1358 1929.5,78.1358 1929.5,78.1358 C1929.5,78.1358 1947.5,78.1358 1947.5,88.1358 L1947.5,114.1358 C1947.5,124.1358 1929.5,124.1358 1929.5,124.1358 C1929.5,124.1358 1911.5,124.1358 1911.5,114.1358 L1911.5,88.1358 " fill="#E2E2F0" style="stroke:#181818;stroke-width:1.5;"/><path d="M1911.5,88.1358 C1911.5,98.1358 1929.5,98.1358 1929.5,98.1358 C1929.5,98.1358 1947.5,98.1358 1947.5,88.1358 " fill="none" style="stroke:#181818;stroke-width:1.5;"/><text fill="#000000" font-family="sans-serif" font-size="14" lengthAdjust="spacing" textLength="108" x="1872.5" y="1013.92">Banco de Dados</text><path d="M1911.5,1028.022 C1911.5,1018.022 1929.5,1018.022 1929.5,1018.022 C1929.5,1018.022 1947.5,1018.022 1947.5,1028.022 L1947.5,1054.022 C1947.5,1064.022 1929.5,1064.022 1929.5,1064.022 C1929.5,1064.022 1911.5,1064.022 1911.5,1054.022 L1911.5,1028.022 " fill="#E2E2F0" style="stroke:#181818;stroke-width:1.5;"/><path d="M1911.5,1028.022 C1911.5,1038.022 1929.5,1038.022 1929.5,1038.022 C1929.5,1038.022 1947.5,1038.022 1947.5,1028.022 " fill="none" style="stroke:#181818;stroke-width:1.5;"/><text fill="#000000" font-family="sans-serif" font-size="14" lengthAdjust="spacing" textLength="75" x="1996.5" y="139.1018">Moderador</text><ellipse cx="2037" cy="72.6358" fill="#E2E2F0" rx="8" ry="8" style="stroke:#181818;stroke-width:0.5;"/><path d="M2037,80.6358 L2037,107.6358 M2024,88.6358 L2050,88.6358 M2037,107.6358 L2024,122.6358 M2037,107.6358 L2050,122.6358 " fill="none" style="stroke:#181818;stroke-width:0.5;"/><text fill="#000000" font-family="sans-serif" font-size="14" lengthAdjust="spacing" textLength="75" x="1996.5" y="1013.92">Moderador</text><ellipse cx="2037" cy="1026.522" fill="#E2E2F0" rx="8" ry="8" style="stroke:#181818;stroke-width:0.5;"/><path d="M2037,1034.522 L2037,1061.522 M2024,1042.522 L2050,1042.522 M2037,1061.522 L2024,1076.522 M2037,1061.522 L2050,1076.522 " fill="none" style="stroke:#181818;stroke-width:0.5;"/><rect fill="#E8F0FE" height="52.1358" rx="2.5" ry="2.5" style="stroke:#555555;stroke-width:0.5;" width="145" x="2228.5" y="90.0679"/><text fill="#000000" font-family="sans-serif" font-size="14" lengthAdjust="spacing" textLength="31" x="2285.5" y="112.0339">View</text><text fill="#000000" font-family="sans-serif" font-size="14" lengthAdjust="spacing" textLength="131" x="2235.5" y="131.1018">(PartidaCreateView)</text><rect fill="#E8F0FE" height="52.1358" rx="2.5" ry="2.5" style="stroke:#555555;stroke-width:0.5;" width="145" x="2228.5" y="998.9541"/><text fill="#000000" font-family="sans-serif" font-size="14" lengthAdjust="spacing" textLength="31" x="2285.5" y="1020.92">View</text><text fill="#000000" font-family="sans-serif" font-size="14" lengthAdjust="spacing" textLength="131" x="2235.5" y="1039.988">(PartidaCreateView)</text><rect fill="#E8F0FE" height="33.0679" rx="2.5" ry="2.5" style="stroke:#555555;stroke-width:0.5;" width="50" x="2527" y="109.1358"/><text fill="#000000" font-family="sans-serif" font-size="14" lengthAdjust="spacing" textLength="36" x="2534" y="131.1018">RBAC</text><rect fill="#E8F0FE" height="33.0679" rx="2.5" ry="2.5" style="stroke:#555555;stroke-width:0.5;" width="50" x="2527" y="998.9541"/><text fill="#000000" font-family="sans-serif" font-size="14" lengthAdjust="spacing" textLength="36" x="2534" y="1020.92">RBAC</text><rect fill="#E8F0FE" height="52.1358" rx="2.5" ry="2.5" style="stroke:#555555;stroke-width:0.5;" width="70" x="2587" y="90.0679"/><text fill="#000000" font-family="sans-serif" font-size="14" lengthAdjust="spacing" textLength="42" x="2601" y="112.0339">Model</text><text fill="#000000" font-family="sans-serif" font-size="14" lengthAdjust="spacing" textLength="56" x="2594" y="131.1018">(Partida)</text><rect fill="#E8F0FE" height="52.1358" rx="2.5" ry="2.5" style="stroke:#555555;stroke-width:0.5;" width="70" x="2587" y="998.9541"/><text fill="#000000" font-family="sans-serif" font-size="14" lengthAdjust="spacing" textLength="42" x="2601" y="1020.92">Model</text><text fill="#000000" font-family="sans-serif" font-size="14" lengthAdjust="spacing" textLength="56" x="2594" y="1039.988">(Partida)</text><rect fill="#E8F0FE" height="52.1358" rx="2.5" ry="2.5" style="stroke:#555555;stroke-width:0.5;" width="73" x="2667" y="90.0679"/><text fill="#000000" font-family="sans-serif" font-size="14" lengthAdjust="spacing" textLength="42" x="2682.5" y="112.0339">Model</text><text fill="#000000" font-family="sans-serif" font-size="14" lengthAdjust="spacing" textLength="59" x="2674" y="131.1018">(Sumula)</text><rect fill="#E8F0FE" height="52.1358" rx="2.5" ry="2.5" style="stroke:#555555;stroke-width:0.5;" width="73" x="2667" y="998.9541"/><text fill="#000000" font-family="sans-serif" font-size="14" lengthAdjust="spacing" textLength="42" x="2682.5" y="1020.92">Model</text><text fill="#000000" font-family="sans-serif" font-size="14" lengthAdjust="spacing" textLength="59" x="2674" y="1039.988">(Sumula)</text><text fill="#000000" font-family="sans-serif" font-size="14" lengthAdjust="spacing" textLength="108" x="2940.5" y="139.1018">Banco de Dados</text><path d="M2979.5,88.1358 C2979.5,78.1358 2997.5,78.1358 2997.5,78.1358 C2997.5,78.1358 3015.5,78.1358 3015.5,88.1358 L3015.5,114.1358 C3015.5,124.1358 2997.5,124.1358 2997.5,124.1358 C2997.5,124.1358 2979.5,124.1358 2979.5,114.1358 L2979.5,88.1358 " fill="#E2E2F0" style="stroke:#181818;stroke-width:1.5;"/><path d="M2979.5,88.1358 C2979.5,98.1358 2997.5,98.1358 2997.5,98.1358 C2997.5,98.1358 3015.5,98.1358 3015.5,88.1358 " fill="none" style="stroke:#181818;stroke-width:1.5;"/><text fill="#000000" font-family="sans-serif" font-size="14" lengthAdjust="spacing" textLength="108" x="2940.5" y="1013.92">Banco de Dados</text><path d="M2979.5,1028.022 C2979.5,1018.022 2997.5,1018.022 2997.5,1018.022 C2997.5,1018.022 3015.5,1018.022 3015.5,1028.022 L3015.5,1054.022 C3015.5,1064.022 2997.5,1064.022 2997.5,1064.022 C2997.5,1064.022 2979.5,1064.022 2979.5,1054.022 L2979.5,1028.022 " fill="#E2E2F0" style="stroke:#181818;stroke-width:1.5;"/><path d="M2979.5,1028.022 C2979.5,1038.022 2997.5,1038.022 2997.5,1038.022 C2997.5,1038.022 3015.5,1038.022 3015.5,1028.022 " fill="none" style="stroke:#181818;stroke-width:1.5;"/><rect fill="#E8F0FE" height="52.1358" rx="2.5" ry="2.5" style="stroke:#555555;stroke-width:0.5;" width="87" x="3064.5" y="90.0679"/><text fill="#000000" font-family="sans-serif" font-size="14" lengthAdjust="spacing" textLength="42" x="3087" y="112.0339">Signal</text><text fill="#000000" font-family="sans-serif" font-size="14" lengthAdjust="spacing" textLength="73" x="3071.5" y="131.1018">(post_save)</text><rect fill="#E8F0FE" height="52.1358" rx="2.5" ry="2.5" style="stroke:#555555;stroke-width:0.5;" width="87" x="3064.5" y="998.9541"/><text fill="#000000" font-family="sans-serif" font-size="14" lengthAdjust="spacing" textLength="42" x="3087" y="1020.92">Signal</text><text fill="#000000" font-family="sans-serif" font-size="14" lengthAdjust="spacing" textLength="73" x="3071.5" y="1039.988">(post_save)</text><text fill="#000000" font-family="sans-serif" font-size="14" lengthAdjust="spacing" textLength="124" x="3161.5" y="139.1018">Moderador/Admin</text><ellipse cx="3226.5" cy="72.6358" fill="#E2E2F0" rx="8" ry="8" style="stroke:#181818;stroke-width:0.5;"/><path d="M3226.5,80.6358 L3226.5,107.6358 M3213.5,88.6358 L3239.5,88.6358 M3226.5,107.6358 L3213.5,122.6358 M3226.5,107.6358 L3239.5,122.6358 " fill="none" style="stroke:#181818;stroke-width:0.5;"/><text fill="#000000" font-family="sans-serif" font-size="14" lengthAdjust="spacing" textLength="124" x="3161.5" y="1013.92">Moderador/Admin</text><ellipse cx="3226.5" cy="1026.522" fill="#E2E2F0" rx="8" ry="8" style="stroke:#181818;stroke-width:0.5;"/><path d="M3226.5,1034.522 L3226.5,1061.522 M3213.5,1042.522 L3239.5,1042.522 M3226.5,1061.522 L3213.5,1076.522 M3226.5,1061.522 L3239.5,1076.522 " fill="none" style="stroke:#181818;stroke-width:0.5;"/><rect fill="#E8F0FE" height="52.1358" rx="2.5" ry="2.5" style="stroke:#555555;stroke-width:0.5;" width="155" x="3395" y="90.0679"/><text fill="#000000" font-family="sans-serif" font-size="14" lengthAdjust="spacing" textLength="31" x="3457" y="112.0339">View</text><text fill="#000000" font-family="sans-serif" font-size="14" lengthAdjust="spacing" textLength="141" x="3402" y="131.1018">(PlanilhaUploadView)</text><rect fill="#E8F0FE" height="52.1358" rx="2.5" ry="2.5" style="stroke:#555555;stroke-width:0.5;" width="155" x="3395" y="998.9541"/><text fill="#000000" font-family="sans-serif" font-size="14" lengthAdjust="spacing" textLength="31" x="3457" y="1020.92">View</text><text fill="#000000" font-family="sans-serif" font-size="14" lengthAdjust="spacing" textLength="141" x="3402" y="1039.988">(PlanilhaUploadView)</text><rect fill="#E8F0FE" height="52.1358" rx="2.5" ry="2.5" style="stroke:#555555;stroke-width:0.5;" width="136" x="3624.5" y="90.0679"/><text fill="#000000" font-family="sans-serif" font-size="14" lengthAdjust="spacing" textLength="64" x="3660.5" y="112.0339">Validador</text><text fill="#000000" font-family="sans-serif" font-size="14" lengthAdjust="spacing" textLength="122" x="3631.5" y="131.1018">(PlanilhaValidator)</text><rect fill="#E8F0FE" height="52.1358" rx="2.5" ry="2.5" style="stroke:#555555;stroke-width:0.5;" width="136" x="3624.5" y="998.9541"/><text fill="#000000" font-family="sans-serif" font-size="14" lengthAdjust="spacing" textLength="64" x="3660.5" y="1020.92">Validador</text><text fill="#000000" font-family="sans-serif" font-size="14" lengthAdjust="spacing" textLength="122" x="3631.5" y="1039.988">(PlanilhaValidator)</text><rect fill="#E8F0FE" height="52.1358" rx="2.5" ry="2.5" style="stroke:#555555;stroke-width:0.5;" width="124" x="3868.5" y="90.0679"/><text fill="#000000" font-family="sans-serif" font-size="14" lengthAdjust="spacing" textLength="42" x="3909.5" y="112.0339">Model</text><text fill="#000000" font-family="sans-serif" font-size="14" lengthAdjust="spacing" textLength="110" x="3875.5" y="131.1018">(PlanilhaUpload)</text><rect fill="#E8F0FE" height="52.1358" rx="2.5" ry="2.5" style="stroke:#555555;stroke-width:0.5;" width="124" x="3868.5" y="998.9541"/><text fill="#000000" font-family="sans-serif" font-size="14" lengthAdjust="spacing" textLength="42" x="3909.5" y="1020.92">Model</text><text fill="#000000" font-family="sans-serif" font-size="14" lengthAdjust="spacing" textLength="110" x="3875.5" y="1039.988">(PlanilhaUpload)</text><rect fill="#E8F0FE" height="52.1358" rx="2.5" ry="2.5" style="stroke:#555555;stroke-width:0.5;" width="70" x="4002.5" y="90.0679"/><text fill="#000000" font-family="sans-serif" font-size="14" lengthAdjust="spacing" textLength="42" x="4016.5" y="112.0339">Model</text><text fill="#000000" font-family="sans-serif" font-size="14" lengthAdjust="spacing" textLength="56" x="4009.5" y="131.1018">(Partida)</text><rect fill="#E8F0FE" height="52.1358" rx="2.5" ry="2.5" style="stroke:#555555;stroke-width:0.5;" width="70" x="4002.5" y="998.9541"/><text fill="#000000" font-family="sans-serif" font-size="14" lengthAdjust="spacing" textLength="42" x="4016.5" y="1020.92">Model</text><text fill="#000000" font-family="sans-serif" font-size="14" lengthAdjust="spacing" textLength="56" x="4009.5" y="1039.988">(Partida)</text><text fill="#000000" font-family="sans-serif" font-size="14" lengthAdjust="spacing" textLength="108" x="4152.5" y="139.1018">Banco de Dados</text><path d="M4191.5,88.1358 C4191.5,78.1358 4209.5,78.1358 4209.5,78.1358 C4209.5,78.1358 4227.5,78.1358 4227.5,88.1358 L4227.5,114.1358 C4227.5,124.1358 4209.5,124.1358 4209.5,124.1358 C4209.5,124.1358 4191.5,124.1358 4191.5,114.1358 L4191.5,88.1358 " fill="#E2E2F0" style="stroke:#181818;stroke-width:1.5;"/><path d="M4191.5,88.1358 C4191.5,98.1358 4209.5,98.1358 4209.5,98.1358 C4209.5,98.1358 4227.5,98.1358 4227.5,88.1358 " fill="none" style="stroke:#181818;stroke-width:1.5;"/><text fill="#000000" font-family="sans-serif" font-size="14" lengthAdjust="spacing" textLength="108" x="4152.5" y="1013.92">Banco de Dados</text><path d="M4191.5,1028.022 C4191.5,1018.022 4209.5,1018.022 4209.5,1018.022 C4209.5,1018.022 4227.5,1018.022 4227.5,1028.022 L4227.5,1054.022 C4227.5,1064.022 4209.5,1064.022 4209.5,1064.022 C4209.5,1064.022 4191.5,1064.022 4191.5,1054.022 L4191.5,1028.022 " fill="#E2E2F0" style="stroke:#181818;stroke-width:1.5;"/><path d="M4191.5,1028.022 C4191.5,1038.022 4209.5,1038.022 4209.5,1038.022 C4209.5,1038.022 4227.5,1038.022 4227.5,1028.022 " fill="none" style="stroke:#181818;stroke-width:1.5;"/><rect fill="#FFFFFF" height="438.5902" style="stroke:#AAAAAA;stroke-width:1.0;" width="10" x="3467.5" y="196.6158"/><rect fill="#FFFFFF" height="245.6481" style="stroke:#AAAAAA;stroke-width:1.0;" width="10" x="3687.5" y="290.7338"/><rect fill="#FFFFFF" height="63.412" style="stroke:#AAAAAA;stroke-width:1.0;" width="10" x="3925.5" y="862.13"/><rect fill="#FFFFFF" height="63.412" style="stroke:#AAAAAA;stroke-width:1.0;" width="10" x="4032.5" y="742.306"/><line style="stroke:#000000;stroke-width:1.0;stroke-dasharray:2.0,2.0;" x1="0" x2="4296.5" y1="154.2038" y2="154.2038"/><polygon fill="#181818" points="3455.5,192.6158,3465.5,196.6158,3455.5,200.6158,3459.5,196.6158" style="stroke:#181818;stroke-width:1.0;"/><line style="stroke:#181818;stroke-width:1.5;" x1="3226.5" x2="3461.5" y1="196.6158" y2="196.6158"/><text fill="#000000" font-family="sans-serif" font-size="13" lengthAdjust="spacing" textLength="141" x="3233.5" y="173.1008">POST /partidas/planilha</text><text fill="#000000" font-family="sans-serif" font-size="13" lengthAdjust="spacing" textLength="82" x="3233.5" y="190.8068">{arquivo.xlsx}</text><line style="stroke:#181818;stroke-width:1.5;" x1="3477.5" x2="3519.5" y1="246.0278" y2="246.0278"/><line style="stroke:#181818;stroke-width:1.5;" x1="3519.5" x2="3519.5" y1="246.0278" y2="259.0278"/><line style="stroke:#181818;stroke-width:1.5;" x1="3478.5" x2="3519.5" y1="259.0278" y2="259.0278"/><polygon fill="#181818" points="3488.5,255.0278,3478.5,259.0278,3488.5,263.0278,3484.5,259.0278" style="stroke:#181818;stroke-width:1.0;"/><text fill="#000000" font-family="sans-serif" font-size="13" lengthAdjust="spacing" textLength="116" x="3484.5" y="222.5128">verificar_extensao()</text><text fill="#000000" font-family="sans-serif" font-size="13" lengthAdjust="spacing" textLength="78" x="3484.5" y="240.2188">[.xlsx ou .csv]</text><polygon fill="#181818" points="3675.5,286.7338,3685.5,290.7338,3675.5,294.7338,3679.5,290.7338" style="stroke:#181818;stroke-width:1.0;"/><line style="stroke:#181818;stroke-width:1.5;" x1="3477.5" x2="3681.5" y1="290.7338" y2="290.7338"/><text fill="#000000" font-family="sans-serif" font-size="13" lengthAdjust="spacing" textLength="94" x="3484.5" y="284.9248">validar(arquivo)</text><line style="stroke:#181818;stroke-width:1.5;" x1="3697.5" x2="3739.5" y1="340.1459" y2="340.1459"/><line style="stroke:#181818;stroke-width:1.5;" x1="3739.5" x2="3739.5" y1="340.1459" y2="353.1459"/><line style="stroke:#181818;stroke-width:1.5;" x1="3698.5" x2="3739.5" y1="353.1459" y2="353.1459"/><polygon fill="#181818" points="3708.5,349.1459,3698.5,353.1459,3708.5,357.1459,3704.5,353.1459" style="stroke:#181818;stroke-width:1.0;"/><text fill="#000000" font-family="sans-serif" font-size="13" lengthAdjust="spacing" textLength="169" x="3704.5" y="316.6308">verificar_padroes_registros()</text><text fill="#000000" font-family="sans-serif" font-size="13" lengthAdjust="spacing" textLength="191" x="3704.5" y="334.3369">[colunas obrigat&#243;rias, formatos]</text><line style="stroke:#181818;stroke-width:1.5;" x1="3697.5" x2="3739.5" y1="402.5579" y2="402.5579"/><line style="stroke:#181818;stroke-width:1.5;" x1="3739.5" x2="3739.5" y1="402.5579" y2="415.5579"/><line style="stroke:#181818;stroke-width:1.5;" x1="3698.5" x2="3739.5" y1="415.5579" y2="415.5579"/><polygon fill="#181818" points="3708.5,411.5579,3698.5,415.5579,3708.5,419.5579,3704.5,415.5579" style="stroke:#181818;stroke-width:1.0;"/><text fill="#000000" font-family="sans-serif" font-size="13" lengthAdjust="spacing" textLength="136" x="3704.5" y="379.0429">validar_tipos_esporte()</text><text fill="#000000" font-family="sans-serif" font-size="13" lengthAdjust="spacing" textLength="209" x="3704.5" y="396.7489">[modalidades existem no sistema?]</text><line style="stroke:#181818;stroke-width:1.5;" x1="3697.5" x2="3739.5" y1="464.9699" y2="464.9699"/><line style="stroke:#181818;stroke-width:1.5;" x1="3739.5" x2="3739.5" y1="464.9699" y2="477.9699"/><line style="stroke:#181818;stroke-width:1.5;" x1="3698.5" x2="3739.5" y1="477.9699" y2="477.9699"/><polygon fill="#181818" points="3708.5,473.9699,3698.5,477.9699,3708.5,481.9699,3704.5,477.9699" style="stroke:#181818;stroke-width:1.0;"/><text fill="#000000" font-family="sans-serif" font-size="13" lengthAdjust="spacing" textLength="175" x="3704.5" y="441.4549">algoritmo_abstracao_dados()</text><text fill="#000000" font-family="sans-serif" font-size="13" lengthAdjust="spacing" textLength="214" x="3704.5" y="459.1609">[detectar erros manuais de &#225;rbitros]</text><path d="M3151.5,492.9699 L3214.5,492.9699 L3214.5,502.6759 L3204.5,512.6759 L3151.5,512.6759 L3151.5,492.9699 " fill="#EEEEEE" style="stroke:#888888;stroke-width:1.5;"/><rect fill="none" height="489.9842" style="stroke:#888888;stroke-width:1.5;" width="1135" x="3151.5" y="492.9699"/><text fill="#000000" font-family="sans-serif" font-size="13" font-weight="bold" lengthAdjust="spacing" textLength="18" x="3166.5" y="507.8669">alt</text><text fill="#000000" font-family="sans-serif" font-size="11" font-weight="bold" lengthAdjust="spacing" textLength="110" x="3229.5" y="506.7288">[erros encontrados]</text><polygon fill="#181818" points="3488.5,532.382,3478.5,536.382,3488.5,540.382,3484.5,536.382" style="stroke:#181818;stroke-width:1.0;"/><line style="stroke:#181818;stroke-width:1.5;stroke-dasharray:2.0,2.0;" x1="3482.5" x2="3691.5" y1="536.382" y2="536.382"/><text fill="#000000" font-family="sans-serif" font-size="13" lengthAdjust="spacing" textLength="186" x="3494.5" y="530.573">ValidationError(relatorio_erros)</text><polygon fill="#181818" points="4197.5,581.794,4207.5,585.794,4197.5,589.794,4201.5,585.794" style="stroke:#181818;stroke-width:1.0;"/><line style="stroke:#181818;stroke-width:1.5;" x1="3477.5" x2="4203.5" y1="585.794" y2="585.794"/><text fill="#000000" font-family="sans-serif" font-size="13" lengthAdjust="spacing" textLength="175" x="3484.5" y="562.279">INSERT INTO planilha_upload</text><text fill="#000000" font-family="sans-serif" font-size="13" lengthAdjust="spacing" textLength="177" x="3484.5" y="579.985">(status='erro', relatorio_erros)</text><polygon fill="#181818" points="3237.5,631.206,3227.5,635.206,3237.5,639.206,3233.5,635.206" style="stroke:#181818;stroke-width:1.0;"/><line style="stroke:#181818;stroke-width:1.5;stroke-dasharray:2.0,2.0;" x1="3231.5" x2="3471.5" y1="635.206" y2="635.206"/><text fill="#000000" font-family="sans-serif" font-size="13" lengthAdjust="spacing" textLength="172" x="3243.5" y="611.691">HTTP 200 - Relat&#243;rio de erros</text><text fill="#000000" font-family="sans-serif" font-size="13" lengthAdjust="spacing" textLength="145" x="3243.5" y="629.397">Nenhuma partida criada</text><line style="stroke:#888888;stroke-width:1.0;stroke-dasharray:2.0,2.0;" x1="3151.5" x2="4286.5" y1="644.206" y2="644.206"/><text fill="#000000" font-family="sans-serif" font-size="11" font-weight="bold" lengthAdjust="spacing" textLength="88" x="3156.5" y="655.9649">[planilha v&#225;lida]</text><polygon fill="#181818" points="3483.5,679.8939,3473.5,683.8939,3483.5,687.8939,3479.5,683.8939" style="stroke:#181818;stroke-width:1.0;"/><line style="stroke:#181818;stroke-width:1.5;stroke-dasharray:2.0,2.0;" x1="3477.5" x2="3691.5" y1="683.8939" y2="683.8939"/><text fill="#000000" font-family="sans-serif" font-size="13" lengthAdjust="spacing" textLength="128" x="3489.5" y="678.0849">dados_validados (list)</text><path d="M3385,698.8939 L3458,698.8939 L3458,708.6 L3448,718.6 L3385,718.6 L3385,698.8939 " fill="#EEEEEE" style="stroke:#888888;stroke-width:1.5;"/><rect fill="none" height="114.8241" style="stroke:#888888;stroke-width:1.5;" width="891.5" x="3385" y="698.8939"/><text fill="#000000" font-family="sans-serif" font-size="13" font-weight="bold" lengthAdjust="spacing" textLength="28" x="3400" y="713.7909">loop</text><text fill="#000000" font-family="sans-serif" font-size="11" font-weight="bold" lengthAdjust="spacing" textLength="172" x="3473" y="712.6528">[para cada partida na planilha]</text><polygon fill="#181818" points="4020.5,738.306,4030.5,742.306,4020.5,746.306,4024.5,742.306" style="stroke:#181818;stroke-width:1.0;"/><line style="stroke:#181818;stroke-width:1.5;" x1="3472.5" x2="4026.5" y1="742.306" y2="742.306"/><text fill="#000000" font-family="sans-serif" font-size="13" lengthAdjust="spacing" textLength="146" x="3479.5" y="736.497">Partida.objects.create(...)</text><polygon fill="#181818" points="4197.5,770.012,4207.5,774.012,4197.5,778.012,4201.5,774.012" style="stroke:#181818;stroke-width:1.0;"/><line style="stroke:#181818;stroke-width:1.5;" x1="4042.5" x2="4203.5" y1="774.012" y2="774.012"/><text fill="#000000" font-family="sans-serif" font-size="13" lengthAdjust="spacing" textLength="143" x="4049.5" y="768.203">INSERT INTO partida (...)</text><polygon fill="#181818" points="3483.5,801.718,3473.5,805.718,3483.5,809.718,3479.5,805.718" style="stroke:#181818;stroke-width:1.0;"/><line style="stroke:#181818;stroke-width:1.5;stroke-dasharray:2.0,2.0;" x1="3477.5" x2="4036.5" y1="805.718" y2="805.718"/><text fill="#000000" font-family="sans-serif" font-size="13" lengthAdjust="spacing" textLength="191" x="3489.5" y="799.909">partida_obj (+ s&#250;mula via signal)</text><polygon fill="#181818" points="3913.5,858.13,3923.5,862.13,3913.5,866.13,3917.5,862.13" style="stroke:#181818;stroke-width:1.0;"/><line style="stroke:#181818;stroke-width:1.5;" x1="3472.5" x2="3919.5" y1="862.13" y2="862.13"/><text fill="#000000" font-family="sans-serif" font-size="13" lengthAdjust="spacing" textLength="177" x="3479.5" y="838.615">PlanilhaUpload.objects.create</text><text fill="#000000" font-family="sans-serif" font-size="13" lengthAdjust="spacing" textLength="109" x="3479.5" y="856.321">(status='validado')</text><polygon fill="#181818" points="4197.5,889.8361,4207.5,893.8361,4197.5,897.8361,4201.5,893.8361" style="stroke:#181818;stroke-width:1.0;"/><line style="stroke:#181818;stroke-width:1.5;" x1="3935.5" x2="4203.5" y1="893.8361" y2="893.8361"/><text fill="#000000" font-family="sans-serif" font-size="13" lengthAdjust="spacing" textLength="175" x="3942.5" y="888.027">INSERT INTO planilha_upload</text><polygon fill="#181818" points="3483.5,921.5421,3473.5,925.5421,3483.5,929.5421,3479.5,925.5421" style="stroke:#181818;stroke-width:1.0;"/><line style="stroke:#181818;stroke-width:1.5;stroke-dasharray:2.0,2.0;" x1="3477.5" x2="3929.5" y1="925.5421" y2="925.5421"/><text fill="#000000" font-family="sans-serif" font-size="13" lengthAdjust="spacing" textLength="67" x="3489.5" y="919.7331">upload_obj</text><polygon fill="#181818" points="3237.5,970.9541,3227.5,974.9541,3237.5,978.9541,3233.5,974.9541" style="stroke:#181818;stroke-width:1.0;"/><line style="stroke:#181818;stroke-width:1.5;stroke-dasharray:2.0,2.0;" x1="3231.5" x2="3471.5" y1="974.9541" y2="974.9541"/><text fill="#000000" font-family="sans-serif" font-size="13" lengthAdjust="spacing" textLength="172" x="3243.5" y="951.4391">HTTP 302 - Redirect /partidas</text><text fill="#000000" font-family="sans-serif" font-size="13" lengthAdjust="spacing" textLength="222" x="3243.5" y="969.1451">+ mensagem "X partidas importadas"</text><!--SRC=[rLdRRjl86RxdKmpKYqYD9SkoamO6d8KFSdRRh2DOqhR0sX36v5YU3JcZdI4LeqNUOM_s0O9U52sGgxtRMxr9dwJ_FmToIDDskXU5gqqs8lMVJzy_PCxpb94JJfUAPbIJX94f-x7O_4l4d98-cKYLqvJySJmbssJwvcGUHVez5oiAv4G39HCnErHAVfZTyFYzO5gJdS6B5g8tIXQh8waIfevbAXNvtIlpQI4zahT7D7w_10wHEEBJ5_XVG0p_ptdCLrJaTuZ7hqw7f-DxY4CJNfXFYmbl-JNy5Qn6VMW-KVIC_FlddvxK7p1fUj8VxkoJmo9d0dobctzi_Yv9B3CoKJnZN4bo64Dwv5CqNx0FAxfarWaekuONZCoKZAcjJd53YP1tl8fed4EIEdDTR3ufBYz4zvYkU0xysz_APFimoRZeTGWK-Lmp5GKbGJhVSVO16DxA9HVutTAPophX-T7XCH22VJS4ouw9nDBY3r52Stf5DIET8ofYYVQUq4HgGt5o54MecVHVMybadqpUJMTaEyMh2_6tZEQAnqLAjw0EmSsFw1DVqvmvKoBB1m9G7V1J7oVLRJBtAcPZMsHOWFNa21YduxVZunafT44XLkJFNu_FnwGKSV1LnGnc0qU_qgdOakiS0Wzz8aMkm46O3G9q5bcKi90necbEOiKIXkE4QyB5UlCfvGc4mnYy-OpgY2oipV1xB9LYELXFhBv-42sCkdKtvrASKfwo1EW2dSPJuXYGrGHydtmzcqt8Q3Y4qkeS1_PyKzhJkH3VPqnegCACB9dO_1D2WHFm_EnqEDoxZ5WAUGrzyPnjbXQWTY6lVc1ntc9WPM4z6ojNqWjgIjfb1ML1GWW98qk8IuhNsE2jQyLK03yaewdYu01Qgs24V7z-EjmPNWBPVU7R7Oum72pX2jmYsrvKlzHOq-ag5kysg_xDUDREtc1kjULKggn8JOjZVmcvfhPu_Wi3RDirB806H64B8smB9gUuvYgZCPKV7p6k4hocM19giP8fnpgrmhgLt1wKcQceb_larNCItr2bjw3n-EPNRPhtGi2OyXS4lcLCIMpfZ5obC71IwBrBwnNcqxUDAqPp_-7w7mDO6votjfe1QzXCWLjvhT9ShSud9uUpiIKykA7w9lGEp6zKsC4f1RbEKhs2yTEeudT_SlVhnTkmmmsYM748jGOjL7QnIteFkj-iNsZTcoj9LN9NPPLXcEyOR1ERbjwfdFj2utwBQIs6eLd6j2UxYepsoJ45Fn0eeDWEOStCALcnL18Foqzz4S6SFEO3wSBS7ExqolN3_s0WtrnGsRfhM6a0Hf3NQkN0RwqRnma3PAIWebetHdL278obNBombFYjJWZR44jBIajbxZssluoYo7c4XOwc-c5EZIYz7TjmKLNj3yOZG-kQOuHpaYb-ZMkBxv0UUKu4NxEKl3uWPplrtMKKMRv-fHKM7wduNy6ug86k8wSCQBsnTq33cLdZDNQs-6Unuew31YqojaLgUzUjX0c8KLm8gcCO5oA7uNqjS_cn4P7_RKXARHY82gUw2MOts1HDiKI6oCpxKRMS7B-Rdyswl-yzl2kE8cJgLvfYE9RbzRLmPFV2OF_xOVE9i5j0DfobLdlbrtV6Ljpu4BfKj_DjdT6d9A4TdB4jsG_GBom4F1inH4ExsmNsR7uLa8dIbcRO5gNpNOldGpnvwSql7gy1qb_sTuOasNnUybpgo_j5DOgb50ZpSsSFP0m95IXFuB2vBl92qKk_p9dibU0ljK6Bny9dFEurWSKa7k_zbl0vVBJcF6ZCDLuxYbOJ0XjUsw64Uxzfle7Tf_KWDZEp2vjIrNgs5nzgGBXlcXWIUn1RtmR-Hg- -uDbXYBUi1MKhV7Cs7P_Fu9_PEs8d0kaE1eC6ErQutMri9tWtBCU0tq5rp-2q1IrjEF0WqMIn9ZwOiUPIuKROXNXEoeDEns5QsKCshRem6qwdgTLChl-7xMCNjWzOmEpJ0nZu4yI_X196tZ1LtPv2kqBvFFL5P1SNaIzt1y_9Cjjymigs-yaV04fmgBoezXGi8Cotyl3VkgGuHSqjPTA-ffIRoMxxmk6aEHcsX5i9fmNwOUccNxIQD3HE-L9GbBIIEbzekcPEcBaVHI0JktfIm_YLDGz07dTt07ZsOy5N3AOzJ1IHmtnnDzPSGwFX7PX1CZ43De6VpTovWJLjYwGofYaC7h0uG7uRjsWIOl_kuzW_gcF_RcJv-e47zuF_Rg3FKtlmiVve0phkEmQsyadZE5ZHVFDvpRW6Tqig06ikO9nSXkBzf7E9RaviCoghODZ4Je8PkzkOiIuZfC69wKRYVgZJqU9uhOtMtK23JJyI-xBmDRb5h8t90JuE2NJvYd6iACHhj5KwM48VgGKc0F08aeYOmxhEd52IzNVQyDUjLpdBLYcIkVMgJ45zlweSBytmd0jjx6bwFtqWlfO3syH78IndVBh7YWJm4rrCw89blKTiiG9RSZ2jiArCWYL6TCF7JpYUBaCst_ZiJYucbJ1VqSu10vK1XwinNw8MZEzzeENwluwGrQpLRhpYUC0dXZL5jhEVB23kxPFvAfKqCV2HKi7J6nf0YNxg6BXd3kDAiQLfi106DRIpgfmoYFVA8TxB5iIphm8yxfcBTl1p4ctWAlIRtqK_ksI3x83DBTx-n5vUteEDDMLEqGCGsS3IqMC0kMT0ppYBis3UZdmhPmM07rKmwjToS9lgsm32hFFHtCzyBwY2C7QRO_FOeunXn-VxWrYlBmE-CXp1QTIf38PC5RIeOcXobvfND56IwOL_Gs61BPPf0OS18gyKNmAK_GBjgxVCKOIQizdzaXrCvXpmOi4qb1bCTfGP8gGzk6RuJagRR_Ih1sJIT0b0dMToGQzmuuwfN9Y3av6Ri1n64LNsO0L7Kb7WgmR89PovhZZwT6bFpvQWUWM3vwr0QP2PvW5GiHHfk5oKHy5mnIyZJaYPB2YV9ZAxGbaKfbwX87LEyq8VF4EXpxP8YvPvE8Hj9TOEb-V8WkannMlOBiIPUQz4orN03j-wpROcxJDQFmMgHzZjKJ4nNwnTtshInGVhzyO2xgTIhj0AUrWgxH6qr6bVDLJBqEYHJQXsQCGMnXl8rXxnsYvKaWOk1HX8kizBk5fp2eM9o7ddr6-LkcVSLKkNQrnj9ZLy25Bke_Yi5xwbcljZz3pOG1wfeu0wSCp-vex1OTxBK_3zfVLb8FyN7pnDU8PjRW6-hSeWMFy1]--></g></svg>