<?xml version="1.0" encoding="us-ascii" standalone="no"?><svg xmlns="http://www.w3.org/2000/svg" xmlns:xlink="http://www.w3.org/1999/xlink" contentStyleType="text/css" height="1205px" preserveAspectRatio="none" style="width:4303px;height:1205px;background:#FFFFFF;" version="1.1" viewBox="0 0 4303 1205" width="4303px" zoomAndPan="magnify"><defs/><g><text fill="#000000" font-family="sans-serif" font-size="14" font-weight="bold" lengthAdjust="spacing" textLength="402" x="1946.75" y="29.9659">SD-01 - Autentica&#231;&#227;o e Troca de Senha no Primeiro Acesso</text><rect fill="#FFFFFF" height="373.4541" style="stroke:#AAAAAA;stroke-width:1.0;" width="10" x="356.5" y="195.6158"/><rect fill="#FFFFFF" height="31.706" style="stroke:#AAAAAA;stroke-width:1.0;" width="10" x="356.5" y="600.7759"/><rect fill="#FFFFFF" height="300.0421" style="stroke:#AAAAAA;stroke-width:1.0;" width="10" x="356.5" y="681.8939"/><rect fill="#FFFFFF" height="121.8241" style="stroke:#AAAAAA;stroke-width:1.0;" width="10" x="591.5" y="227.3218"/><rect fill="#FFFFFF" height="31.706" style="stroke:#AAAAAA;stroke-width:1.0;" width="10" x="830.5" y="259.0278"/><rect fill="#FFFFFF" height="31.706" style="stroke:#AAAAAA;stroke-width:1.0;" width="10" x="830.5" y="478.9518"/><rect fill="#FFFFFF" height="31.706" style="stroke:#AAAAAA;stroke-width:1.0;" width="10" x="830.5" y="886.8179"/><rect fill="none" height="778.5961" style="stroke:#888888;stroke-width:1.5;" width="912.5" x="10" y="305.7338"/><rect fill="none" height="551.6721" style="stroke:#888888;stroke-width:1.5;" width="892.5" x="20" y="525.6578"/><rect fill="none" height="212.924" style="stroke:#888888;stroke-width:1.5;" width="872.5" x="30" y="777.012"/><line style="stroke:#AAAAAA;stroke-width:0.5;stroke-dasharray:5.0,5.0;" x1="114" x2="114" y1="143.2038" y2="1103.3299"/><line style="stroke:#AAAAAA;stroke-width:0.5;stroke-dasharray:5.0,5.0;" x1="361.5" x2="361.5" y1="143.2038" y2="1103.3299"/><line style="stroke:#AAAAAA;stroke-width:0.5;stroke-dasharray:5.0,5.0;" x1="596" x2="596" y1="143.2038" y2="1103.3299"/><line style="stroke:#AAAAAA;stroke-width:0.5;stroke-dasharray:5.0,5.0;" x1="835.5" x2="835.5" y1="143.2038" y2="1103.3299"/><line style="stroke:#AAAAAA;stroke-width:0.5;stroke-dasharray:5.0,5.0;" x1="930.5" x2="930.5" y1="143.2038" y2="1103.3299"/><line style="stroke:#AAAAAA;stroke-width:0.5;stroke-dasharray:5.0,5.0;" x1="1234" x2="1234" y1="143.2038" y2="1103.3299"/><line style="stroke:#AAAAAA;stroke-width:0.5;stroke-dasharray:5.0,5.0;" x1="1442" x2="1442" y1="143.2038" y2="1103.3299"/><line style="stroke:#AAAAAA;stroke-width:0.5;stroke-dasharray:5.0,5.0;" x1="1543" x2="1543" y1="143.2038" y2="1103.3299"/><line style="stroke:#AAAAAA;stroke-width:0.5;stroke-dasharray:5.0,5.0;" x1="1766" x2="1766" y1="143.2038" y2="1103.3299"/><line style="stroke:#AAAAAA;stroke-width:0.5;stroke-dasharray:5.0,5.0;" x1="1929.5" x2="1929.5" y1="143.2038" y2="1103.3299"/><line style="stroke:#AAAAAA;stroke-width:0.5;stroke-dasharray:5.0,5.0;" x1="2036.5" x2="2036.5" y1="143.2038" y2="1103.3299"/><line style="stroke:#AAAAAA;stroke-width:0.5;stroke-dasharray:5.0,5.0;" x1="2300.5" x2="2300.5" y1="143.2038" y2="1103.3299"/><line style="stroke:#AAAAAA;stroke-width:0.5;stroke-dasharray:5.0,5.0;" x1="2552" x2="2552" y1="143.2038" y2="1103.3299"/><line style="stroke:#AAAAAA;stroke-width:0.5;stroke-dasharray:5.0,5.0;" x1="2622" x2="2622" y1="143.2038" y2="1103.3299"/><line style="stroke:#AAAAAA;stroke-width:0.5;stroke-dasharray:5.0,5.0;" x1="2703" x2="2703" y1="143.2038" y2="1103.3299"/><line style="stroke:#AAAAAA;stroke-width:0.5;stroke-dasharray:5.0,5.0;" x1="2997.5" x2="2997.5" y1="143.2038" y2="1103.3299"/><line style="stroke:#AAAAAA;stroke-width:0.5;stroke-dasharray:5.0,5.0;" x1="3107.5" x2="3107.5" y1="143.2038" y2="1103.3299"/><line style="stroke:#AAAAAA;stroke-width:0.5;stroke-dasharray:5.0,5.0;" x1="3226.5" x2="3226.5" y1="143.2038" y2="1103.3299"/><line style="stroke:#AAAAAA;stroke-width:0.5;stroke-dasharray:5.0,5.0;" x1="3472" x2="3472" y1="143.2038" y2="1103.3299"/><line style="stroke:#AAAAAA;stroke-width:0.5;stroke-dasharray:5.0,5.0;" x1="3692.5" x2="3692.5" y1="143.2038" y2="1103.3299"/><line style="stroke:#AAAAAA;stroke-width:0.5;stroke-dasharray:5.0,5.0;" x1="3930.5" x2="3930.5" y1="143.2038" y2="1103.3299"/><line style="stroke:#AAAAAA;stroke-width:0.5;stroke-dasharray:5.0,5.0;" x1="4037.5" x2="4037.5" y1="143.2038" y2="1103.3299"/><line style="stroke:#AAAAAA;stroke-width:0.5;stroke-dasharray:5.0,5.0;" x1="4209.5" x2="4209.5" y1="143.2038" y2="1103.3299"/><text fill="#000000" font-family="sans-serif" font-size="14" lengthAdjust="spacing" textLength="52" x="85.5" y="120.0339">Usu&#225;rio</text><text fill="#000000" font-family="sans-serif" font-size="14" lengthAdjust="spacing" textLength="143" x="40" y="139.1018">(Capit&#227;o/Mod/Admin)</text><ellipse cx="114.5" cy="53.5679" fill="#E2E2F0" rx="8" ry="8" style="stroke:#181818;stroke-width:0.5;"/><path d="M114.5,61.5679 L114.5,88.5679 M101.5,69.5679 L127.5,69.5679 M114.5,88.5679 L101.5,103.5679 M114.5,88.5679 L127.5,103.5679 " fill="none" style="stroke:#181818;stroke-width:0.5;"/><text fill="#000000" font-family="sans-serif" font-size="14" lengthAdjust="spacing" textLength="52" x="85.5" y="1117.2958">Usu&#225;rio</text><text fill="#000000" font-family="sans-serif" font-size="14" lengthAdjust="spacing" textLength="143" x="40" y="1136.3638">(Capit&#227;o/Mod/Admin)</text><ellipse cx="114.5" cy="1148.9657" fill="#E2E2F0" rx="8" ry="8" style="stroke:#181818;stroke-width:0.5;"/><path d="M114.5,1156.9657 L114.5,1183.9657 M101.5,1164.9657 L127.5,1164.9657 M114.5,1183.9657 L101.5,1198.9657 M114.5,1183.9657 L127.5,1198.9657 " fill="none" style="stroke:#181818;stroke-width:0.5;"/><rect fill="#E8F0FE" height="52.1358" rx="2.5" ry="2.5" style="stroke:#555555;stroke-width:0.5;" width="90" x="316.5" y="90.0679"/><text fill="#000000" font-family="sans-serif" font-size="14" lengthAdjust="spacing" textLength="31" x="346" y="112.0339">View</text><text fill="#000000" font-family="sans-serif" font-size="14" lengthAdjust="spacing" textLength="76" x="323.5" y="131.1018">(LoginView)</text><rect fill="#E8F0FE" height="52.1358" rx="2.5" ry="2.5" style="stroke:#555555;stroke-width:0.5;" width="90" x="316.5" y="1102.3299"/><text fill="#000000" font-family="sans-serif" font-size="14" lengthAdjust="spacing" textLength="31" x="346" y="1124.2958">View</text><text fill="#000000" font-family="sans-serif" font-size="14" lengthAdjust="spacing" textLength="76" x="323.5" y="1143.3638">(LoginView)</text><rect fill="#E8F0FE" height="52.1358" rx="2.5" ry="2.5" style="stroke:#555555;stroke-width:0.5;" width="115" x="539" y="90.0679"/><text fill="#000000" font-family="sans-serif" font-size="14" lengthAdjust="spacing" textLength="36" x="578.5" y="112.0339">RBAC</text><text fill="#000000" font-family="sans-serif" font-size="14" lengthAdjust="spacing" textLength="101" x="546" y="131.1018">(Auth Backend)</text><rect fill="#E8F0FE" height="52.1358" rx="2.5" ry="2.5" style="stroke:#555555;stroke-width:0.5;" width="115" x="539" y="1102.3299"/><text fill="#000000" font-family="sans-serif" font-size="14" lengthAdjust="spacing" textLength="36" x="578.5" y="1124.2958">RBAC</text><text fill="#000000" font-family="sans-serif" font-size="14" lengthAdjust="spacing" textLength="101" x="546" y="1143.3638">(Auth Backend)</text><text fill="#000000" font-family="sans-serif" font-size="14" lengthAdjust="spacing" textLength="108" x="778.5" y="139.1018">Banco de Dados</text><path d="M817.5,88.1358 C817.5,78.1358 835.5,78.1358 835.5,78.1358 C835.5,78.1358 853.5,78.1358 853.5,88.1358 L853.5,114.1358 C853.5,124.1358 835.5,124.1358 835.5,124.1358 C835.5,124.1358 817.5,124.1358 817.5,114.1358 L817.5,88.1358 " fill="#E2E2F0" style="stroke:#181818;stroke-width:1.5;"/><path d="M817.5,88.1358 C817.5,98.1358 835.5,98.1358 835.5,98.1358 C835.5,98.1358 853.5,98.1358 853.5,88.1358 " fill="none" style="stroke:#181818;stroke-width:1.5;"/><text fill="#000000" font-family="sans-serif" font-size="14" lengthAdjust="spacing" textLength="108" x="778.5" y="1117.2958">Banco de Dados</text><path d="M817.5,1131.3978 C817.5,1121.3978 835.5,1121.3978 835.5,1121.3978 C835.5,1121.3978 853.5,1121.3978 853.5,1131.3978 L853.5,1157.3978 C853.5,1167.3978 835.5,1167.3978 835.5,1167.3978 C835.5,1167.3978 817.5,1167.3978 817.5,1157.3978 L817.5,1131.3978 " fill="#E2E2F0" style="stroke:#181818;stroke-width:1.5;"/><path d="M817.5,1131.3978 C817.5,1141.3978 835.5,1141.3978 835.5,1141.3978 C835.5,1141.3978 853.5,1141.3978 853.5,1131.3978 " fill="none" style="stroke:#181818;stroke-width:1.5;"/><text fill="#000000" font-family="sans-serif" font-size="14" lengthAdjust="spacing" textLength="51" x="902.5" y="139.1018">Capit&#227;o</text><ellipse cx="931" cy="72.6358" fill="#E2E2F0" rx="8" ry="8" style="stroke:#181818;stroke-width:0.5;"/><path d="M931,80.6358 L931,107.6358 M918,88.6358 L944,88.6358 M931,107.6358 L918,122.6358 M931,107.6358 L944,122.6358 " fill="none" style="stroke:#181818;stroke-width:0.5;"/><text fill="#000000" font-family="sans-serif" font-size="14" lengthAdjust="spacing" textLength="51" x="902.5" y="1117.2958">Capit&#227;o</text><ellipse cx="931" cy="1129.8978" fill="#E2E2F0" rx="8" ry="8" style="stroke:#181818;stroke-width:0.5;"/><path d="M931,1137.8978 L931,1164.8978 M918,1145.8978 L944,1145.8978 M931,1164.8978 L918,1179.8978 M931,1164.8978 L944,1179.8978 " fill="none" style="stroke:#181818;stroke-width:0.5;"/><rect fill="#E8F0FE" height="52.1358" rx="2.5" ry="2.5" style="stroke:#555555;stroke-width:0.5;" width="136" x="1166" y="90.0679"/><text fill="#000000" font-family="sans-serif" font-size="14" lengthAdjust="spacing" textLength="31" x="1218.5" y="112.0339">View</text><text fill="#000000" font-family="sans-serif" font-size="14" lengthAdjust="spacing" textLength="122" x="1173" y="131.1018">(AtletaCreateView)</text><rect fill="#E8F0FE" height="52.1358" rx="2.5" ry="2.5" style="stroke:#555555;stroke-width:0.5;" width="136" x="1166" y="1102.3299"/><text fill="#000000" font-family="sans-serif" font-size="14" lengthAdjust="spacing" textLength="31" x="1218.5" y="1124.2958">View</text><text fill="#000000" font-family="sans-serif" font-size="14" lengthAdjust="spacing" textLength="122" x="1173" y="1143.3638">(AtletaCreateView)</text><rect fill="#E8F0FE" height="52.1358" rx="2.5" ry="2.5" style="stroke:#555555;stroke-width:0.5;" width="88" x="1398" y="90.0679"/><text fill="#000000" font-family="sans-serif" font-size="14" lengthAdjust="spacing" textLength="36" x="1424" y="112.0339">RBAC</text><text fill="#000000" font-family="sans-serif" font-size="14" lengthAdjust="spacing" textLength="74" x="1405" y="131.1018">(Decorator)</text><rect fill="#E8F0FE" height="52.1358" rx="2.5" ry="2.5" style="stroke:#555555;stroke-width:0.5;" width="88" x="1398" y="1102.3299"/><text fill="#000000" font-family="sans-serif" font-size="14" lengthAdjust="spacing" textLength="36" x="1424" y="1124.2958">RBAC</text><text fill="#000000" font-family="sans-serif" font-size="14" lengthAdjust="spacing" textLength="74" x="1405" y="1143.3638">(Decorator)</text><rect fill="#E8F0FE" height="52.1358" rx="2.5" ry="2.5" style="stroke:#555555;stroke-width:0.5;" width="95" x="1496" y="90.0679"/><text fill="#000000" font-family="sans-serif" font-size="14" lengthAdjust="spacing" textLength="34" x="1526.5" y="112.0339">Form</text><text fill="#000000" font-family="sans-serif" font-size="14" lengthAdjust="spacing" textLength="81" x="1503" y="131.1018">(AtletaForm)</text><rect fill="#E8F0FE" height="52.1358" rx="2.5" ry="2.5" style="stroke:#555555;stroke-width:0.5;" width="95" x="1496" y="1102.3299"/><text fill="#000000" font-family="sans-serif" font-size="14" lengthAdjust="spacing" textLength="34" x="1526.5" y="1124.2958">Form</text><text fill="#000000" font-family="sans-serif" font-size="14" lengthAdjust="spacing" textLength="81" x="1503" y="1143.3638">(AtletaForm)</text><rect fill="#E8F0FE" height="52.1358" rx="2.5" ry="2.5" style="stroke:#555555;stroke-width:0.5;" width="61" x="1736" y="90.0679"/><text fill="#000000" font-family="sans-serif" font-size="14" lengthAdjust="spacing" textLength="42" x="1745.5" y="112.0339">Model</text><text fill="#000000" font-family="sans-serif" font-size="14" lengthAdjust="spacing" textLength="47" x="1743" y="131.1018">(Atleta)</text><rect fill="#E8F0FE" height="52.1358" rx="2.5" ry="2.5" style="stroke:#555555;stroke-width:0.5;" width="61" x="1736" y="1102.3299"/><text fill="#000000" font-family="sans-serif" font-size="14" lengthAdjust="spacing" textLength="42" x="1745.5" y="1124.2958">Model</text><text fill="#000000" font-family="sans-serif" font-size="14" lengthAdjust="spacing" textLength="47" x="1743" y="1143.3638">(Atleta)</text><text fill="#000000" font-family="sans-serif" font-size="14" lengthAdjust="spacing" textLength="108" x="1872.5" y="139.1018">Banco de Dados</text><path d="M1911.5,88.1358 C1911.5,78.1358 1929.5,78.1358 1929.5,78.1358 C1929.5,78.1358 1947.5,78.1358 1947.5,88.1358 L1947.5,114.1358 C1947.5,124.1358 1929.5,124.1358 1929.5,124.1358 C1929.5,124.1358 1911.5,124.1358 1911.5,114.1358 L1911.5,88.1358 " fill="#E2E2F0" style="stroke:#181818;stroke-width:1.5;"/><path d="M1911.5,88.1358 C1911.5,98.1358 1929.5,98.1358 1929.5,98.1358 C1929.5,98.1358 1947.5,98.1358 1947.5,88.1358 " fill="none" style="stroke:#181818;stroke-width:1.5;"/><text fill="#000000" font-family="sans-serif" font-size="14" lengthAdjust="spacing" textLength="108" x="1872.5" y="1117.2958">Banco de Dados</text><path d="M1911.5,1131.3978 C1911.5,1121.3978 1929.5,1121.3978 1929.5,1121.3978 C1929.5,1121.3978 1947.5,1121.3978 1947.5,1131.3978 L1947.5,1157.3978 C1947.5,1167.3978 1929.5,1167.3978 1929.5,1167.3978 C1929.5,1167.3978 1911.5,1167.3978 1911.5,1157.3978 L1911.5,1131.3978 " fill="#E2E2F0" style="stroke:#181818;stroke-width:1.5;"/><path d="M1911.5,1131.3978 C1911.5,1141.3978 1929.5,1141.3978 1929.5,1141.3978 C1929.5,1141.3978 1947.5,1141.3978 1947.5,1131.3978 " fill="none" style="stroke:#181818;stroke-width:1.5;"/><text fill="#000000" font-family="sans-serif" font-size="14" lengthAdjust="spacing" textLength="75" x="1996.5" y="139.1018">Moderador</text><ellipse cx="2037" cy="72.6358" fill="#E2E2F0" rx="8" ry="8" style="stroke:#181818;stroke-width:0.5;"/><path d="M2037,80.6358 L2037,107.6358 M2024,88.6358 L2050,88.6358 M2037,107.6358 L2024,122.6358 M2037,107.6358 L2050,122.6358 " fill="none" style="stroke:#181818;stroke-width:0.5;"/><text fill="#000000" font-family="sans-serif" font-size="14" lengthAdjust="spacing" textLength="75" x="1996.5" y="1117.2958">Moderador</text><ellipse cx="2037" cy="1129.8978" fill="#E2E2F0" rx="8" ry="8" style="stroke:#181818;stroke-width:0.5;"/><path d="M2037,1137.8978 L2037,1164.8978 M2024,1145.8978 L2050,1145.8978 M2037,1164.8978 L2024,1179.8978 M2037,1164.8978 L2050,1179.8978 " fill="none" style="stroke:#181818;stroke-width:0.5;"/><rect fill="#E8F0FE" height="52.1358" rx="2.5" ry="2.5" style="stroke:#555555;stroke-width:0.5;" width="145" x="2228.5" y="90.0679"/><text fill="#000000" font-family="sans-serif" font-size="14" lengthAdjust="spacing" textLength="31" x="2285.5" y="112.0339">View</text><text fill="#000000" font-family="sans-serif" font-size="14" lengthAdjust="spacing" textLength="131" x="2235.5" y="131.1018">(PartidaCreateView)</text><rect fill="#E8F0FE" height="52.1358" rx="2.5" ry="2.5" style="stroke:#555555;stroke-width:0.5;" width="145" x="2228.5" y="1102.3299"/><text fill="#000000" font-family="sans-serif" font-size="14" lengthAdjust="spacing" textLength="31" x="2285.5" y="1124.2958">View</text><text fill="#000000" font-family="sans-serif" font-size="14" lengthAdjust="spacing" textLength="131" x="2235.5" y="1143.3638">(PartidaCreateView)</text><rect fill="#E8F0FE" height="33.0679" rx="2.5" ry="2.5" style="stroke:#555555;stroke-width:0.5;" width="50" x="2527" y="109.1358"/><text fill="#000000" font-family="sans-serif" font-size="14" lengthAdjust="spacing" textLength="36" x="2534" y="131.1018">RBAC</text><rect fill="#E8F0FE" height="33.0679" rx="2.5" ry="2.5" style="stroke:#555555;stroke-width:0.5;" width="50" x="2527" y="1102.3299"/><text fill="#000000" font-family="sans-serif" font-size="14" lengthAdjust="spacing" textLength="36" x="2534" y="1124.2958">RBAC</text><rect fill="#E8F0FE" height="52.1358" rx="2.5" ry="2.5" style="stroke:#555555;stroke-width:0.5;" width="70" x="2587" y="90.0679"/><text fill="#000000" font-family="sans-serif" font-size="14" lengthAdjust="spacing" textLength="42" x="2601" y="112.0339">Model</text><text fill="#000000" font-family="sans-serif" font-size="14" lengthAdjust="spacing" textLength="56" x="2594" y="131.1018">(Partida)</text><rect fill="#E8F0FE" height="52.1358" rx="2.5" ry="2.5" style="stroke:#555555;stroke-width:0.5;" width="70" x="2587" y="1102.3299"/><text fill="#000000" font-family="sans-serif" font-size="14" lengthAdjust="spacing" textLength="42" x="2601" y="1124.2958">Model</text><text fill="#000000" font-family="sans-serif" font-size="14" lengthAdjust="spacing" textLength="56" x="2594" y="1143.3638">(Partida)</text><rect fill="#E8F0FE" height="52.1358" rx="2.5" ry="2.5" style="stroke:#555555;stroke-width:0.5;" width="73" x="2667" y="90.0679"/><text fill="#000000" font-family="sans-serif" font-size="14" lengthAdjust="spacing" textLength="42" x="2682.5" y="112.0339">Model</text><text fill="#000000" font-family="sans-serif" font-size="14" lengthAdjust="spacing" textLength="59" x="2674" y="131.1018">(Sumula)</text><rect fill="#E8F0FE" height="52.1358" rx="2.5" ry="2.5" style="stroke:#555555;stroke-width:0.5;" width="73" x="2667" y="1102.3299"/><text fill="#000000" font-family="sans-serif" font-size="14" lengthAdjust="spacing" textLength="42" x="2682.5" y="1124.2958">Model</text><text fill="#000000" font-family="sans-serif" font-size="14" lengthAdjust="spacing" textLength="59" x="2674" y="1143.3638">(Sumula)</text><text fill="#000000" font-family="sans-serif" font-size="14" lengthAdjust="spacing" textLength="108" x="2940.5" y="139.1018">Banco de Dados</text><path d="M2979.5,88.1358 C2979.5,78.1358 2997.5,78.1358 2997.5,78.1358 C2997.5,78.1358 3015.5,78.1358 3015.5,88.1358 L3015.5,114.1358 C3015.5,124.1358 2997.5,124.1358 2997.5,124.1358 C2997.5,124.1358 2979.5,124.1358 2979.5,114.1358 L2979.5,88.1358 " fill="#E2E2F0" style="stroke:#181818;stroke-width:1.5;"/><path d="M2979.5,88.1358 C2979.5,98.1358 2997.5,98.1358 2997.5,98.1358 C2997.5,98.1358 3015.5,98.1358 3015.5,88.1358 " fill="none" style="stroke:#181818;stroke-width:1.5;"/><text fill="#000000" font-family="sans-serif" font-size="14" lengthAdjust="spacing" textLength="108" x="2940.5" y="1117.2958">Banco de Dados</text><path d="M2979.5,1131.3978 C2979.5,1121.3978 2997.5,1121.3978 2997.5,1121.3978 C2997.5,1121.3978 3015.5,1121.3978 3015.5,1131.3978 L3015.5,1157.3978 C3015.5,1167.3978 2997.5,1167.3978 2997.5,1167.3978 C2997.5,1167.3978 2979.5,1167.3978 2979.5,1157.3978 L2979.5,1131.3978 " fill="#E2E2F0" style="stroke:#181818;stroke-width:1.5;"/><path d="M2979.5,1131.3978 C2979.5,1141.3978 2997.5,1141.3978 2997.5,1141.3978 C2997.5,1141.3978 3015.5,1141.3978 3015.5,1131.3978 " fill="none" style="stroke:#181818;stroke-width:1.5;"/><rect fill="#E8F0FE" height="52.1358" rx="2.5" ry="2.5" style="stroke:#555555;stroke-width:0.5;" width="87" x="3064.5" y="90.0679"/><text fill="#000000" font-family="sans-serif" font-size="14" lengthAdjust="spacing" textLength="42" x="3087" y="112.0339">Signal</text><text fill="#000000" font-family="sans-serif" font-size="14" lengthAdjust="spacing" textLength="73" x="3071.5" y="131.1018">(post_save)</text><rect fill="#E8F0FE" height="52.1358" rx="2.5" ry="2.5" style="stroke:#555555;stroke-width:0.5;" width="87" x="3064.5" y="1102.3299"/><text fill="#000000" font-family="sans-serif" font-size="14" lengthAdjust="spacing" textLength="42" x="3087" y="1124.2958">Signal</text><text fill="#000000" font-family="sans-serif" font-size="14" lengthAdjust="spacing" textLength="73" x="3071.5" y="1143.3638">(post_save)</text><text fill="#000000" font-family="sans-serif" font-size="14" lengthAdjust="spacing" textLength="124" x="3161.5" y="139.1018">Moderador/Admin</text><ellipse cx="3226.5" cy="72.6358" fill="#E2E2F0" rx="8" ry="8" style="stroke:#181818;stroke-width:0.5;"/><path d="M3226.5,80.6358 L3226.5,107.6358 M3213.5,88.6358 L3239.5,88.6358 M3226.5,107.6358 L3213.5,122.6358 M3226.5,107.6358 L3239.5,122.6358 " fill="none" style="stroke:#181818;stroke-width:0.5;"/><text fill="#000000" font-family="sans-serif" font-size="14" lengthAdjust="spacing" textLength="124" x="3161.5" y="1117.2958">Moderador/Admin</text><ellipse cx="3226.5" cy="1129.8978" fill="#E2E2F0" rx="8" ry="8" style="stroke:#181818;stroke-width:0.5;"/><path d="M3226.5,1137.8978 L3226.5,1164.8978 M3213.5,1145.8978 L3239.5,1145.8978 M3226.5,1164.8978 L3213.5,1179.8978 M3226.5,1164.8978 L3239.5,1179.8978 " fill="none" style="stroke:#181818;stroke-width:0.5;"/><rect fill="#E8F0FE" height="52.1358" rx="2.5" ry="2.5" style="stroke:#555555;stroke-width:0.5;" width="155" x="3395" y="90.0679"/><text fill="#000000" font-family="sans-serif" font-size="14" lengthAdjust="spacing" textLength="31" x="3457" y="112.0339">View</text><text fill="#000000" font-family="sans-serif" font-size="14" lengthAdjust="spacing" textLength="141" x="3402" y="131.1018">(PlanilhaUploadView)</text><rect fill="#E8F0FE" height="52.1358" rx="2.5" ry="2.5" style="stroke:#555555;stroke-width:0.5;" width="155" x="3395" y="1102.3299"/><text fill="#000000" font-family="sans-serif" font-size="14" lengthAdjust="spacing" textLength="31" x="3457" y="1124.2958">View</text><text fill="#000000" font-family="sans-serif" font-size="14" lengthAdjust="spacing" textLength="141" x="3402" y="1143.3638">(PlanilhaUploadView)</text><rect fill="#E8F0FE" height="52.1358" rx="2.5" ry="2.5" style="stroke:#555555;stroke-width:0.5;" width="136" x="3624.5" y="90.0679"/><text fill="#000000" font-family="sans-serif" font-size="14" lengthAdjust="spacing" textLength="64" x="3660.5" y="112.0339">Validador</text><text fill="#000000" font-family="sans-serif" font-size="14" lengthAdjust="spacing" textLength="122" x="3631.5" y="131.1018">(PlanilhaValidator)</text><rect fill="#E8F0FE" height="52.1358" rx="2.5" ry="2.5" style="stroke:#555555;stroke-width:0.5;" width="136" x="3624.5" y="1102.3299"/><text fill="#000000" font-family="sans-serif" font-size="14" lengthAdjust="spacing" textLength="64" x="3660.5" y="1124.2958">Validador</text><text fill="#000000" font-family="sans-serif" font-size="14" lengthAdjust="spacing" textLength="122" x="3631.5" y="1143.3638">(PlanilhaValidator)</text><rect fill="#E8F0FE" height="52.1358" rx="2.5" ry="2.5" style="stroke:#555555;stroke-width:0.5;" width="124" x="3868.5" y="90.0679"/><text fill="#000000" font-family="sans-serif" font-size="14" lengthAdjust="spacing" textLength="42" x="3909.5" y="112.0339">Model</text><text fill="#000000" font-family="sans-serif" font-size="14" lengthAdjust="spacing" textLength="110" x="3875.5" y="131.1018">(PlanilhaUpload)</text><rect fill="#E8F0FE" height="52.1358" rx="2.5" ry="2.5" style="stroke:#555555;stroke-width:0.5;" width="124" x="3868.5" y="1102.3299"/><text fill="#000000" font-family="sans-serif" font-size="14" lengthAdjust="spacing" textLength="42" x="3909.5" y="1124.2958">Model</text><text fill="#000000" font-family="sans-serif" font-size="14" lengthAdjust="spacing" textLength="110" x="3875.5" y="1143.3638">(PlanilhaUpload)</text><rect fill="#E8F0FE" height="52.1358" rx="2.5" ry="2.5" style="stroke:#555555;stroke-width:0.5;" width="70" x="4002.5" y="90.0679"/><text fill="#000000" font-family="sans-serif" font-size="14" lengthAdjust="spacing" textLength="42" x="4016.5" y="112.0339">Model</text><text fill="#000000" font-family="sans-serif" font-size="14" lengthAdjust="spacing" textLength="56" x="4009.5" y="131.1018">(Partida)</text><rect fill="#E8F0FE" height="52.1358" rx="2.5" ry="2.5" style="stroke:#555555;stroke-width:0.5;" width="70" x="4002.5" y="1102.3299"/><text fill="#000000" font-family="sans-serif" font-size="14" lengthAdjust="spacing" textLength="42" x="4016.5" y="1124.2958">Model</text><text fill="#000000" font-family="sans-serif" font-size="14" lengthAdjust="spacing" textLength="56" x="4009.5" y="1143.3638">(Partida)</text><text fill="#000000" font-family="sans-serif" font-size="14" lengthAdjust="spacing" textLength="108" x="4152.5" y="139.1018">Banco de Dados</text><path d="M4191.5,88.1358 C4191.5,78.1358 4209.5,78.1358 4209.5,78.1358 C4209.5,78.1358 4227.5,78.1358 4227.5,88.1358 L4227.5,114.1358 C4227.5,124.1358 4209.5,124.1358 4209.5,124.1358 C4209.5,124.1358 4191.5,124.1358 4191.5,114.1358 L4191.5,88.1358 " fill="#E2E2F0" style="stroke:#181818;stroke-width:1.5;"/><path d="M4191.5,88.1358 C4191.5,98.1358 4209.5,98.1358 4209.5,98.1358 C4209.5,98.1358 4227.5,98.1358 4227.5,88.1358 " fill="none" style="stroke:#181818;stroke-width:1.5;"/><text fill="#000000" font-family="sans-serif" font-size="14" lengthAdjust="spacing" textLength="108" x="4152.5" y="1117.2958">Banco de Dados</text><path d="M4191.5,1131.3978 C4191.5,1121.3978 4209.5,1121.3978 4209.5,1121.3978 C4209.5,1121.3978 4227.5,1121.3978 4227.5,1131.3978 L4227.5,1157.3978 C4227.5,1167.3978 4209.5,1167.3978 4209.5,1167.3978 C4209.5,1167.3978 4191.5,1167.3978 4191.5,1157.3978 L4191.5,1131.3978 " fill="#E2E2F0" style="stroke:#181818;stroke-width:1.5;"/><path d="M4191.5,1131.3978 C4191.5,1141.3978 4209.5,1141.3978 4209.5,1141.3978 C4209.5,1141.3978 4227.5,1141.3978 4227.5,1131.3978 " fill="none" style="stroke:#181818;stroke-width:1.5;"/><rect fill="#FFFFFF" height="373.4541" style="stroke:#AAAAAA;stroke-width:1.0;" width="10" x="356.5" y="195.6158"/><rect fill="#FFFFFF" height="31.706" style="stroke:#AAAAAA;stroke-width:1.0;" width="10" x="356.5" y="600.7759"/><rect fill="#FFFFFF" height="300.0421" style="stroke:#AAAAAA;stroke-width:1.0;" width="10" x="356.5" y="681.8939"/><rect fill="#FFFFFF" height="121.8241" style="stroke:#AAAAAA;stroke-width:1.0;" width="10" x="591.5" y="227.3218"/><rect fill="#FFFFFF" height="31.706" style="stroke:#AAAAAA;stroke-width:1.0;" width="10" x="830.5" y="259.0278"/><rect fill="#FFFFFF" height="31.706" style="stroke:#AAAAAA;stroke-width:1.0;" width="10" x="830.5" y="478.9518"/><rect fill="#FFFFFF" height="31.706" style="stroke:#AAAAAA;stroke-width:1.0;" width="10" x="830.5" y="886.8179"/><line style="stroke:#000000;stroke-width:1.0;stroke-dasharray:2.0,2.0;" x1="0" x2="4296.5" y1="153.2038" y2="153.2038"/><polygon fill="#181818" points="344.5,191.6158,354.5,195.6158,344.5,199.6158,348.5,195.6158" style="stroke:#181818;stroke-width:1.0;"/><line style="stroke:#181818;stroke-width:1.5;" x1="114.5" x2="350.5" y1="195.6158" y2="195.6158"/><text fill="#000000" font-family="sans-serif" font-size="13" lengthAdjust="spacing" textLength="70" x="121.5" y="172.1008">POST /login</text><text fill="#000000" font-family="sans-serif" font-size="13" lengthAdjust="spacing" textLength="108" x="121.5" y="189.8068">{matricula, senha}</text><polygon fill="#181818" points="579.5,223.3218,589.5,227.3218,579.5,231.3218,583.5,227.3218" style="stroke:#181818;stroke-width:1.0;"/><line style="stroke:#181818;stroke-width:1.5;" x1="366.5" x2="585.5" y1="227.3218" y2="227.3218"/><text fill="#000000" font-family="sans-serif" font-size="13" lengthAdjust="spacing" textLength="167" x="373.5" y="221.5128">autenticar(matricula, senha)</text><polygon fill="#181818" points="818.5,255.0278,828.5,259.0278,818.5,263.0278,822.5,259.0278" style="stroke:#181818;stroke-width:1.0;"/><line style="stroke:#181818;stroke-width:1.5;" x1="601.5" x2="824.5" y1="259.0278" y2="259.0278"/><text fill="#000000" font-family="sans-serif" font-size="13" lengthAdjust="spacing" textLength="210" x="608.5" y="253.2188">SELECT usuario WHERE matricula=?</text><polygon fill="#181818" points="612.5,286.7338,602.5,290.7338,612.5,294.7338,608.5,290.7338" style="stroke:#181818;stroke-width:1.0;"/><line style="stroke:#181818;stroke-width:1.5;stroke-dasharray:2.0,2.0;" x1="606.5" x2="834.5" y1="290.7338" y2="290.7338"/><text fill="#000000" font-family="sans-serif" font-size="13" lengthAdjust="spacing" textLength="182" x="618.5" y="284.9248">registro encontrado / nenhum</text><path d="M10,305.7338 L73,305.7338 L73,315.4398 L63,325.4398 L10,325.4398 L10,305.7338 " fill="#EEEEEE" style="stroke:#888888;stroke-width:1.5;"/><rect fill="none" height="778.5961" style="stroke:#888888;stroke-width:1.5;" width="912.5" x="10" y="305.7338"/><text fill="#000000" font-family="sans-serif" font-size="13" font-weight="bold" lengthAdjust="spacing" textLength="18" x="25" y="320.6308">alt</text><text fill="#000000" font-family="sans-serif" font-size="11" font-weight="bold" lengthAdjust="spacing" textLength="295" x="88" y="319.4927">[credenciais inv&#225;lidas (matr&#237;cula ou senha incorreta)]</text><polygon fill="#181818" points="377.5,345.1459,367.5,349.1459,377.5,353.1459,373.5,349.1459" style="stroke:#181818;stroke-width:1.0;"/><line style="stroke:#181818;stroke-width:1.5;stroke-dasharray:2.0,2.0;" x1="371.5" x2="595.5" y1="349.1459" y2="349.1459"/><text fill="#000000" font-family="sans-serif" font-size="13" lengthAdjust="spacing" textLength="124" x="383.5" y="343.3369">AuthenticationFailed</text><polygon fill="#181818" points="125.5,394.5579,115.5,398.5579,125.5,402.5579,121.5,398.5579" style="stroke:#181818;stroke-width:1.0;"/><line style="stroke:#181818;stroke-width:1.5;stroke-dasharray:2.0,2.0;" x1="119.5" x2="355.5" y1="398.5579" y2="398.5579"/><text fill="#000000" font-family="sans-serif" font-size="13" lengthAdjust="spacing" textLength="200" x="131.5" y="375.0429">HTTP 200 - "Credenciais Inv&#225;lidas"</text><text fill="#000000" font-family="sans-serif" font-size="13" lengthAdjust="spacing" textLength="185" x="131.5" y="392.7489">[mensagem gen&#233;rica - RNF004]</text><line style="stroke:#888888;stroke-width:1.0;stroke-dasharray:2.0,2.0;" x1="10" x2="922.5" y1="407.5579" y2="407.5579"/><text fill="#000000" font-family="sans-serif" font-size="11" font-weight="bold" lengthAdjust="spacing" textLength="112" x="15" y="419.3168">[credenciais v&#225;lidas]</text><polygon fill="#181818" points="377.5,443.2458,367.5,447.2458,377.5,451.2458,373.5,447.2458" style="stroke:#181818;stroke-width:1.0;"/><line style="stroke:#181818;stroke-width:1.5;stroke-dasharray:2.0,2.0;" x1="371.5" x2="595.5" y1="447.2458" y2="447.2458"/><text fill="#000000" font-family="sans-serif" font-size="13" lengthAdjust="spacing" textLength="69" x="383.5" y="441.4368">user_object</text><polygon fill="#181818" points="818.5,474.9518,828.5,478.9518,818.5,482.9518,822.5,478.9518" style="stroke:#181818;stroke-width:1.0;"/><line style="stroke:#181818;stroke-width:1.5;" x1="366.5" x2="824.5" y1="478.9518" y2="478.9518"/><text fill="#000000" font-family="sans-serif" font-size="13" lengthAdjust="spacing" textLength="232" x="373.5" y="473.1428">SELECT primeiro_acesso WHERE user=?</text><polygon fill="#181818" points="377.5,506.6578,367.5,510.6578,377.5,514.6578,373.5,510.6578" style="stroke:#181818;stroke-width:1.0;"/><line style="stroke:#181818;stroke-width:1.5;stroke-dasharray:2.0,2.0;" x1="371.5" x2="834.5" y1="510.6578" y2="510.6578"/><text fill="#000000" font-family="sans-serif" font-size="13" lengthAdjust="spacing" textLength="97" x="383.5" y="504.8488">primeiro_acesso</text><path d="M20,525.6578 L83,525.6578 L83,535.3639 L73,545.3639 L20,545.3639 L20,525.6578 " fill="#EEEEEE" style="stroke:#888888;stroke-width:1.5;"/><rect fill="none" height="551.6721" style="stroke:#888888;stroke-width:1.5;" width="892.5" x="20" y="525.6578"/><text fill="#000000" font-family="sans-serif" font-size="13" font-weight="bold" lengthAdjust="spacing" textLength="18" x="35" y="540.5549">alt</text><text fill="#000000" font-family="sans-serif" font-size="11" font-weight="bold" lengthAdjust="spacing" textLength="186" x="98" y="539.4167">[primeiro_acesso == True  [RF010]]</text><polygon fill="#181818" points="125.5,565.0699,115.5,569.0699,125.5,573.0699,121.5,569.0699" style="stroke:#181818;stroke-width:1.0;"/><line style="stroke:#181818;stroke-width:1.5;stroke-dasharray:2.0,2.0;" x1="119.5" x2="360.5" y1="569.0699" y2="569.0699"/><text fill="#000000" font-family="sans-serif" font-size="13" lengthAdjust="spacing" textLength="218" x="131.5" y="563.2609">HTTP 302 - Redirect /primeiro-acesso</text><polygon fill="#181818" points="344.5,596.7759,354.5,600.7759,344.5,604.7759,348.5,600.7759" style="stroke:#181818;stroke-width:1.0;"/><line style="stroke:#181818;stroke-width:1.5;" x1="114.5" x2="350.5" y1="600.7759" y2="600.7759"/><text fill="#000000" font-family="sans-serif" font-size="13" lengthAdjust="spacing" textLength="126" x="121.5" y="594.9669">GET /primeiro-acesso</text><polygon fill="#181818" points="125.5,628.4819,115.5,632.4819,125.5,636.4819,121.5,632.4819" style="stroke:#181818;stroke-width:1.0;"/><line style="stroke:#181818;stroke-width:1.5;stroke-dasharray:2.0,2.0;" x1="119.5" x2="360.5" y1="632.4819" y2="632.4819"/><text fill="#000000" font-family="sans-serif" font-size="13" lengthAdjust="spacing" textLength="156" x="131.5" y="626.6729">Formul&#225;rio de nova senha</text><polygon fill="#181818" points="344.5,677.8939,354.5,681.8939,344.5,685.8939,348.5,681.8939" style="stroke:#181818;stroke-width:1.0;"/><line style="stroke:#181818;stroke-width:1.5;" x1="114.5" x2="350.5" y1="681.8939" y2="681.8939"/><text fill="#000000" font-family="sans-serif" font-size="13" lengthAdjust="spacing" textLength="135" x="121.5" y="658.3789">POST /primeiro-acesso</text><text fill="#000000" font-family="sans-serif" font-size="13" lengthAdjust="spacing" textLength="162" x="121.5" y="676.0849">{nova_senha, confirmacao}</text><line style="stroke:#181818;stroke-width:1.5;" x1="366.5" x2="408.5" y1="749.012" y2="749.012"/><line style="stroke:#181818;stroke-width:1.5;" x1="408.5" x2="408.5" y1="749.012" y2="762.012"/><line style="stroke:#181818;stroke-width:1.5;" x1="367.5" x2="408.5" y1="762.012" y2="762.012"/><polygon fill="#181818" points="377.5,758.012,367.5,762.012,377.5,766.012,373.5,762.012" style="stroke:#181818;stroke-width:1.0;"/><text fill="#000000" font-family="sans-serif" font-size="13" lengthAdjust="spacing" textLength="211" x="373.5" y="707.7909">validar_politica_senha(nova_senha)</text><text fill="#000000" font-family="sans-serif" font-size="13" lengthAdjust="spacing" textLength="174" x="373.5" y="725.497">[RNF006: 8+ chars, mai&#250;scula,</text><text fill="#000000" font-family="sans-serif" font-size="13" lengthAdjust="spacing" textLength="201" x="373.5" y="743.203">min&#250;scula, n&#250;mero, sem blacklist]</text><path d="M30,777.012 L93,777.012 L93,786.718 L83,796.718 L30,796.718 L30,777.012 " fill="#EEEEEE" style="stroke:#888888;stroke-width:1.5;"/><rect fill="none" height="212.924" style="stroke:#888888;stroke-width:1.5;" width="872.5" x="30" y="777.012"/><text fill="#000000" font-family="sans-serif" font-size="13" font-weight="bold" lengthAdjust="spacing" textLength="18" x="45" y="791.909">alt</text><text fill="#000000" font-family="sans-serif" font-size="11" font-weight="bold" lengthAdjust="spacing" textLength="87" x="108" y="790.7709">[senha inv&#225;lida]</text><polygon fill="#181818" points="125.5,816.424,115.5,820.424,125.5,824.424,121.5,820.424" style="stroke:#181818;stroke-width:1.0;"/><line style="stroke:#181818;stroke-width:1.5;stroke-dasharray:2.0,2.0;" x1="119.5" x2="355.5" y1="820.424" y2="820.424"/><text fill="#000000" font-family="sans-serif" font-size="13" lengthAdjust="spacing" textLength="174" x="131.5" y="814.615">HTTP 200 - Erros de valida&#231;&#227;o</text><line style="stroke:#888888;stroke-width:1.0;stroke-dasharray:2.0,2.0;" x1="30" x2="902.5" y1="829.424" y2="829.424"/><text fill="#000000" font-family="sans-serif" font-size="11" font-weight="bold" lengthAdjust="spacing" textLength="77" x="35" y="841.1829">[senha v&#225;lida]</text><polygon fill="#181818" points="818.5,882.8179,828.5,886.8179,818.5,890.8179,822.5,886.8179" style="stroke:#181818;stroke-width:1.0;"/><line style="stroke:#181818;stroke-width:1.5;" x1="366.5" x2="824.5" y1="886.8179" y2="886.8179"/><text fill="#000000" font-family="sans-serif" font-size="13" lengthAdjust="spacing" textLength="207" x="373.5" y="863.3029">UPDATE senha=hash(nova_senha),</text><text fill="#000000" font-family="sans-serif" font-size="13" lengthAdjust="spacing" textLength="134" x="373.5" y="881.0089">primeiro_acesso=False</text><polygon fill="#181818" points="377.5,914.524,367.5,918.524,377.5,922.524,373.5,918.524" style="stroke:#181818;stroke-width:1.0;"/><line style="stroke:#181818;stroke-width:1.5;stroke-dasharray:2.0,2.0;" x1="371.5" x2="834.5" y1="918.524" y2="918.524"/><text fill="#000000" font-family="sans-serif" font-size="13" lengthAdjust="spacing" textLength="18" x="383.5" y="912.715">OK</text><polygon fill="#181818" points="584.5,946.23,594.5,950.23,584.5,954.23,588.5,950.23" style="stroke:#181818;stroke-width:1.0;"/><line style="stroke:#181818;stroke-width:1.5;" x1="366.5" x2="590.5" y1="950.23" y2="950.23"/><text fill="#000000" font-family="sans-serif" font-size="13" lengthAdjust="spacing" textLength="106" x="373.5" y="944.421">criar_sessao(user)</text><polygon fill="#181818" points="125.5,977.936,115.5,981.936,125.5,985.936,121.5,981.936" style="stroke:#181818;stroke-width:1.0;"/><line style="stroke:#181818;stroke-width:1.5;stroke-dasharray:2.0,2.0;" x1="119.5" x2="360.5" y1="981.936" y2="981.936"/><text fill="#000000" font-family="sans-serif" font-size="13" lengthAdjust="spacing" textLength="188" x="131.5" y="976.127">HTTP 302 - Redirect /dashboard</text><line style="stroke:#888888;stroke-width:1.0;stroke-dasharray:2.0,2.0;" x1="20" x2="912.5" y1="997.936" y2="997.936"/><text fill="#000000" font-family="sans-serif" font-size="11" font-weight="bold" lengthAdjust="spacing" textLength="144" x="25" y="1009.6949">[primeiro_acesso == False]</text><polygon fill="#181818" points="584.5,1033.6239,594.5,1037.6239,584.5,1041.6239,588.5,1037.6239" style="stroke:#181818;stroke-width:1.0;"/><line style="stroke:#181818;stroke-width:1.5;" x1="361.5" x2="590.5" y1="1037.6239" y2="1037.6239"/><text fill="#000000" font-family="sans-serif" font-size="13" lengthAdjust="spacing" textLength="106" x="368.5" y="1031.8149">criar_sessao(user)</text><polygon fill="#181818" points="125.5,1065.3299,115.5,1069.3299,125.5,1073.3299,121.5,1069.3299" style="stroke:#181818;stroke-width:1.0;"/><line style="stroke:#181818;stroke-width:1.5;stroke-dasharray:2.0,2.0;" x1="119.5" x2="360.5" y1="1069.3299" y2="1069.3299"/><text fill="#000000" font-family="sans-serif" font-size="13" lengthAdjust="spacing" textLength="188" x="131.5" y="1063.5209">HTTP 302 - Redirect /dashboard</text><line style="stroke:#000000;stroke-width:1.0;stroke-dasharray:2.0,2.0;" x1="0" x2="4296.5" y1="1091.3299" y2="1091.3299"/><!--SRC=[rLdRRjl86RxdKmpKYqYD9SkoamO6d8KFSdRRh2DOqhR0sX36v5YU3JcZdI4LeqNUOM_s0O9U52sGgxtRMxr9dwJ_FmToIDDskXU5gqqs8lMVJzy_PCxpb94JJfUAPbIJX94f-x7O_4l4d98-cKYLqvJySJmbssJwvcGUHVez5oiAv4G39HCnErHAVfZTyFYzO5gJdS6B5g8tIXQh8waIfevbAXNvtIlpQI4zahT7D7w_10wHEEBJ5_XVG0p_ptdCLrJaTuZ7hqw7f-DxY4CJNfXFYmbl-JNy5Qn6VMW-KVIC_FlddvxK7p1fUj8VxkoJmo9d0dobctzi_Yv9B3CoKJnZN4bo64Dwv5CqNx0FAxfarWaekuONZCoKZAcjJd53YP1tl8fed4EIEdDTR3ufBYz4zvYkU0xysz_APFimoRZeTGWK-Lmp5GKbGJhVSVO16DxA9HVutTAPophX-T7XCH22VJS4ouw9nDBY3r52Stf5DIET8ofYYVQUq4HgGt5o54MecVHVMybadqpUJMTaEyMh2_6tZEQAnqLAjw0EmSsFw1DVqvmvKoBB1m9G7V1J7oVLRJBtAcPZMsHOWFNa21YduxVZunafT44XLkJFNu_FnwGKSV1LnGnc0qU_qgdOakiS0Wzz8aMkm46O3G9q5bcKi90necbEOiKIXkE4QyB5UlCfvGc4mnYy-OpgY2oipV1xB9LYELXFhBv-42sCkdKtvrASKfwo1EW2dSPJuXYGrGHydtmzcqt8Q3Y4qkeS1_PyKzhJkH3VPqnegCACB9dO_1D2WHFm_EnqEDoxZ5WAUGrzyPnjbXQWTY6lVc1ntc9WPM4z6ojNqWjgIjfb1ML1GWW98qk8IuhNsE2jQyLK03yaewdYu01Qgs24V7z-EjmPNWBPVU7R7Oum72pX2jmYsrvKlzHOq-ag5kysg_xDUDREtc1kjULKggn8JOjZVmcvfhPu_Wi3RDirB806H64B8smB9gUuvYgZCPKV7p6k4hocM19giP8fnpgrmhgLt1wKcQceb_larNCItr2bjw3n-EPNRPhtGi2OyXS4lcLCIMpfZ5obC71IwBrBwnNcqxUDAqPp_-7w7mDO6votjfe1QzXCWLjvhT9ShSud9uUpiIKykA7w9lGEp6zKsC4f1RbEKhs2yTEeudT_SlVhnTkmmmsYM748jGOjL7QnIteFkj-iNsZTcoj9LN9NPPLXcEyOR1ERbjwfdFj2utwBQIs6eLd6j2UxYepsoJ45Fn0eeDWEOStCALcnL18Foqzz4S6SFEO3wSBS7ExqolN3_s0WtrnGsRfhM6a0Hf3NQkN0RwqRnma3PAIWebetHdL278obNBombFYjJWZR44jBIajbxZssluoYo7c4XOwc-c5EZIYz7TjmKLNj3yOZG-kQOuHpaYb-ZMkBxv0UUKu4NxEKl3uWPplrtMKKMRv-fHKM7wduNy6ug86k8wSCQBsnTq33cLdZDNQs-6Unuew31YqojaLgUzUjX0c8KLm8gcCO5oA7uNqjS_cn4P7_RKXARHY82gUw2MOts1HDiKI6oCpxKRMS7B-Rdyswl-yzl2kE8cJgLvfYE9RbzRLmPFV2OF_xOVE9i5j0DfobLdlbrtV6Ljpu4BfKj_DjdT6d9A4TdB4jsG_GBom4F1inH4ExsmNsR7uLa8dIbcRO5gNpNOldGpnvwSql7gy1qb_sTuOasNnUybpgo_j5DOgb50ZpSsSFP0m95IXFuB2vBl92qKk_p9dibU0ljK6Bny9dFEurWSKa7k_zbl0vVBJcF6ZCDLuxYbOJ0XjUsw64Uxzfle7Tf_KWDZEp2vjIrNgs5nzgGBXlcXWIUn1RtmR-Hg- -uDbXYBUi1MKhV7Cs7P_Fu9_PEs8d0kaE1eC6ErQutMri9tWtBCU0tq5rp-2q1IrjEF0WqMIn9ZwOiUPIuKROXNXEoeDEns5QsKCshRem6qwdgTLChl-7xMCNjWzOmEpJ0nZu4yI_X196tZ1LtPv2kqBvFFL5P1SNaIzt1y_9Cjjymigs-yaV04fmgBoezXGi8Cotyl3VkgGuHSqjPTA-ffIRoMxxmk6aEHcsX5i9fmNwOUccNxIQD3HE-L9GbBIIEbzekcPEcBaVHI0JktfIm_YLDGz07dTt07ZsOy5N3AOzJ1IHmtnnDzPSGwFX7PX1CZ43De6VpTovWJLjYwGofYaC7h0uG7uRjsWIOl_kuzW_gcF_RcJv-e47zuF_Rg3FKtlmiVve0phkEmQsyadZE5ZHVFDvpRW6Tqig06ikO9nSXkBzf7E9RaviCoghODZ4Je8PkzkOiIuZfC69wKRYVgZJqU9uhOtMtK23JJyI-xBmDRb5h8t90JuE2NJvYd6iACHhj5KwM48VgGKc0F08aeYOmxhEd52IzNVQyDUjLpdBLYcIkVMgJ45zlweSBytmd0jjx6bwFtqWlfO3syH78IndVBh7YWJm4rrCw89blKTiiG9RSZ2jiArCWYL6TCF7JpYUBaCst_ZiJYucbJ1VqSu10vK1XwinNw8MZEzzeENwluwGrQpLRhpYUC0dXZL5jhEVB23kxPFvAfKqCV2HKi7J6nf0YNxg6BXd3kDAiQLfi106DRIpgfmoYFVA8TxB5iIphm8yxfcBTl1p4ctWAlIRtqK_ksI3x83DBTx-n5vUteEDDMLEqGCGsS3IqMC0kMT0ppYBis3UZdmhPmM07rKmwjToS9lgsm32hFFHtCzyBwY2C7QRO_FOeunXn-VxWrYlBmE-CXp1QTIf38PC5RIeOcXobvfND56IwOL_Gs61BPPf0OS18gyKNmAK_GBjgxVCKOIQizdzaXrCvXpmOi4qb1bCTfGP8gGzk6RuJagRR_Ih1sJIT0b0dMToGQzmuuwfN9Y3av6Ri1n64LNsO0L7Kb7WgmR89PovhZZwT6bFpvQWUWM3vwr0QP2PvW5GiHHfk5oKHy5mnIyZJaYPB2YV9ZAxGbaKfbwX87LEyq8VF4EXpxP8YvPvE8Hj9TOEb-V8WkannMlOBiIPUQz4orN03j-wpROcxJDQFmMgHzZjKJ4nNwnTtshInGVhzyO2xgTIhj0AUrWgxH6qr6bVDLJBqEYHJQXsQCGMnXl8rXxnsYvKaWOk1HX8kizBk5fp2eM9o7ddr6-LkcVSLKkNQrnj9ZLy25Bke_Yi5xwbcljZz3pOG1wfeu0wSCp-vex1OTxBK_3zfVLb8FyN7pnDU8PjRW6-hSeWMFy1]--></g></svg>