<?xml version="1.0" encoding="us-ascii" standalone="no"?><svg xmlns="http://www.w3.org/2000/svg" xmlns:xlink="http://www.w3.org/1999/xlink" contentStyleType="text/css" height="1235px" preserveAspectRatio="none" style="width:4303px;height:1235px;background:#FFFFFF;" version="1.1" viewBox="0 0 4303 1235" width="4303px" zoomAndPan="magnify"><defs/><g><text fill="#000000" font-family="sans-serif" font-size="14" font-weight="bold" lengthAdjust="spacing" textLength="327" x="1984.25" y="29.9659">SD-02 - Cadastro de Atleta pelo Capit&#227;o (RF001)</text><rect fill="#FFFFFF" height="95.118" style="stroke:#AAAAAA;stroke-width:1.0;" width="10" x="1229" y="178.9098"/><rect fill="#FFFFFF" height="758.6142" style="stroke:#AAAAAA;stroke-width:1.0;" width="10" x="1229" y="341.1459"/><rect fill="#FFFFFF" height="31.706" style="stroke:#AAAAAA;stroke-width:1.0;" width="10" x="1437" y="210.6158"/><rect fill="#FFFFFF" height="31.706" style="stroke:#AAAAAA;stroke-width:1.0;" width="10" x="1437" y="372.8519"/><rect fill="#FFFFFF" height="353.7481" style="stroke:#AAAAAA;stroke-width:1.0;" width="10" x="1538.5" y="436.2639"/><rect fill="#FFFFFF" height="95.118" style="stroke:#AAAAAA;stroke-width:1.0;" width="10" x="1761.5" y="955.23"/><rect fill="#FFFFFF" height="31.706" style="stroke:#AAAAAA;stroke-width:1.0;" width="10" x="1924.5" y="467.9699"/><rect fill="#FFFFFF" height="31.706" style="stroke:#AAAAAA;stroke-width:1.0;" width="10" x="1924.5" y="986.936"/><rect fill="none" height="600.0841" style="stroke:#888888;stroke-width:1.5;" width="1124" x="882.5" y="514.6759"/><rect fill="none" height="361.1601" style="stroke:#888888;stroke-width:1.5;" width="1104" x="892.5" y="746.6"/><line style="stroke:#AAAAAA;stroke-width:0.5;stroke-dasharray:5.0,5.0;" x1="114" x2="114" y1="143.2038" y2="1132.7601"/><line style="stroke:#AAAAAA;stroke-width:0.5;stroke-dasharray:5.0,5.0;" x1="361.5" x2="361.5" y1="143.2038" y2="1132.7601"/><line style="stroke:#AAAAAA;stroke-width:0.5;stroke-dasharray:5.0,5.0;" x1="596" x2="596" y1="143.2038" y2="1132.7601"/><line style="stroke:#AAAAAA;stroke-width:0.5;stroke-dasharray:5.0,5.0;" x1="835.5" x2="835.5" y1="143.2038" y2="1132.7601"/><line style="stroke:#AAAAAA;stroke-width:0.5;stroke-dasharray:5.0,5.0;" x1="930.5" x2="930.5" y1="143.2038" y2="1132.7601"/><line style="stroke:#AAAAAA;stroke-width:0.5;stroke-dasharray:5.0,5.0;" x1="1234" x2="1234" y1="143.2038" y2="1132.7601"/><line style="stroke:#AAAAAA;stroke-width:0.5;stroke-dasharray:5.0,5.0;" x1="1442" x2="1442" y1="143.2038" y2="1132.7601"/><line style="stroke:#AAAAAA;stroke-width:0.5;stroke-dasharray:5.0,5.0;" x1="1543" x2="1543" y1="143.2038" y2="1132.7601"/><line style="stroke:#AAAAAA;stroke-width:0.5;stroke-dasharray:5.0,5.0;" x1="1766" x2="1766" y1="143.2038" y2="1132.7601"/><line style="stroke:#AAAAAA;stroke-width:0.5;stroke-dasharray:5.0,5.0;" x1="1929.5" x2="1929.5" y1="143.2038" y2="1132.7601"/><line style="stroke:#AAAAAA;stroke-width:0.5;stroke-dasharray:5.0,5.0;" x1="2036.5" x2="2036.5" y1="143.2038" y2="1132.7601"/><line style="stroke:#AAAAAA;stroke-width:0.5;stroke-dasharray:5.0,5.0;" x1="2300.5" x2="2300.5" y1="143.2038" y2="1132.7601"/><line style="stroke:#AAAAAA;stroke-width:0.5;stroke-dasharray:5.0,5.0;" x1="2552" x2="2552" y1="143.2038" y2="1132.7601"/><line style="stroke:#AAAAAA;stroke-width:0.5;stroke-dasharray:5.0,5.0;" x1="2622" x2="2622" y1="143.2038" y2="1132.7601"/><line style="stroke:#AAAAAA;stroke-width:0.5;stroke-dasharray:5.0,5.0;" x1="2703" x2="2703" y1="143.2038" y2="1132.7601"/><line style="stroke:#AAAAAA;stroke-width:0.5;stroke-dasharray:5.0,5.0;" x1="2997.5" x2="2997.5" y1="143.2038" y2="1132.7601"/><line style="stroke:#AAAAAA;stroke-width:0.5;stroke-dasharray:5.0,5.0;" x1="3107.5" x2="3107.5" y1="143.2038" y2="1132.7601"/><line style="stroke:#AAAAAA;stroke-width:0.5;stroke-dasharray:5.0,5.0;" x1="3226.5" x2="3226.5" y1="143.2038" y2="1132.7601"/><line style="stroke:#AAAAAA;stroke-width:0.5;stroke-dasharray:5.0,5.0;" x1="3472" x2="3472" y1="143.2038" y2="1132.7601"/><line style="stroke:#AAAAAA;stroke-width:0.5;stroke-dasharray:5.0,5.0;" x1="3692.5" x2="3692.5" y1="143.2038" y2="1132.7601"/><line style="stroke:#AAAAAA;stroke-width:0.5;stroke-dasharray:5.0,5.0;" x1="3930.5" x2="3930.5" y1="143.2038" y2="1132.7601"/><line style="stroke:#AAAAAA;stroke-width:0.5;stroke-dasharray:5.0,5.0;" x1="4037.5" x2="4037.5" y1="143.2038" y2="1132.7601"/><line style="stroke:#AAAAAA;stroke-width:0.5;stroke-dasharray:5.0,5.0;" x1="4209.5" x2="4209.5" y1="143.2038" y2="1132.7601"/><text fill="#000000" font-family="sans-serif" font-size="14" lengthAdjust="spacing" textLength="52" x="85.5" y="120.0339">Usu&#225;rio</text><text fill="#000000" font-family="sans-serif" font-size="14" lengthAdjust="spacing" textLength="143" x="40" y="139.1018">(Capit&#227;o/Mod/Admin)</text><ellipse cx="114.5" cy="53.5679" fill="#E2E2F0" rx="8" ry="8" style="stroke:#181818;stroke-width:0.5;"/><path d="M114.5,61.5679 L114.5,88.5679 M101.5,69.5679 L127.5,69.5679 M114.5,88.5679 L101.5,103.5679 M114.5,88.5679 L127.5,103.5679 " fill="none" style="stroke:#181818;stroke-width:0.5;"/><text fill="#000000" font-family="sans-serif" font-size="14" lengthAdjust="spacing" textLength="52" x="85.5" y="1146.726">Usu&#225;rio</text><text fill="#000000" font-family="sans-serif" font-size="14" lengthAdjust="spacing" textLength="143" x="40" y="1165.7939">(Capit&#227;o/Mod/Admin)</text><ellipse cx="114.5" cy="1178.3959" fill="#E2E2F0" rx="8" ry="8" style="stroke:#181818;stroke-width:0.5;"/><path d="M114.5,1186.3959 L114.5,1213.3959 M101.5,1194.3959 L127.5,1194.3959 M114.5,1213.3959 L101.5,1228.3959 M114.5,1213.3959 L127.5,1228.3959 " fill="none" style="stroke:#181818;stroke-width:0.5;"/><rect fill="#E8F0FE" height="52.1358" rx="2.5" ry="2.5" style="stroke:#555555;stroke-width:0.5;" width="90" x="316.5" y="90.0679"/><text fill="#000000" font-family="sans-serif" font-size="14" lengthAdjust="spacing" textLength="31" x="346" y="112.0339">View</text><text fill="#000000" font-family="sans-serif" font-size="14" lengthAdjust="spacing" textLength="76" x="323.5" y="131.1018">(LoginView)</text><rect fill="#E8F0FE" height="52.1358" rx="2.5" ry="2.5" style="stroke:#555555;stroke-width:0.5;" width="90" x="316.5" y="1131.7601"/><text fill="#000000" font-family="sans-serif" font-size="14" lengthAdjust="spacing" textLength="31" x="346" y="1153.726">View</text><text fill="#000000" font-family="sans-serif" font-size="14" lengthAdjust="spacing" textLength="76" x="323.5" y="1172.7939">(LoginView)</text><rect fill="#E8F0FE" height="52.1358" rx="2.5" ry="2.5" style="stroke:#555555;stroke-width:0.5;" width="115" x="539" y="90.0679"/><text fill="#000000" font-family="sans-serif" font-size="14" lengthAdjust="spacing" textLength="36" x="578.5" y="112.0339">RBAC</text><text fill="#000000" font-family="sans-serif" font-size="14" lengthAdjust="spacing" textLength="101" x="546" y="131.1018">(Auth Backend)</text><rect fill="#E8F0FE" height="52.1358" rx="2.5" ry="2.5" style="stroke:#555555;stroke-width:0.5;" width="115" x="539" y="1131.7601"/><text fill="#000000" font-family="sans-serif" font-size="14" lengthAdjust="spacing" textLength="36" x="578.5" y="1153.726">RBAC</text><text fill="#000000" font-family="sans-serif" font-size="14" lengthAdjust="spacing" textLength="101" x="546" y="1172.7939">(Auth Backend)</text><text fill="#000000" font-family="sans-serif" font-size="14" lengthAdjust="spacing" textLength="108" x="778.5" y="139.1018">Banco de Dados</text><path d="M817.5,88.1358 C817.5,78.1358 835.5,78.1358 835.5,78.1358 C835.5,78.1358 853.5,78.1358 853.5,88.1358 L853.5,114.1358 C853.5,124.1358 835.5,124.1358 835.5,124.1358 C835.5,124.1358 817.5,124.1358 817.5,114.1358 L817.5,88.1358 " fill="#E2E2F0" style="stroke:#181818;stroke-width:1.5;"/><path d="M817.5,88.1358 C817.5,98.1358 835.5,98.1358 835.5,98.1358 C835.5,98.1358 853.5,98.1358 853.5,88.1358 " fill="none" style="stroke:#181818;stroke-width:1.5;"/><text fill="#000000" font-family="sans-serif" font-size="14" lengthAdjust="spacing" textLength="108" x="778.5" y="1146.726">Banco de Dados</text><path d="M817.5,1160.828 C817.5,1150.828 835.5,1150.828 835.5,1150.828 C835.5,1150.828 853.5,1150.828 853.5,1160.828 L853.5,1186.828 C853.5,1196.828 835.5,1196.828 835.5,1196.828 C835.5,1196.828 817.5,1196.828 817.5,1186.828 L817.5,1160.828 " fill="#E2E2F0" style="stroke:#181818;stroke-width:1.5;"/><path d="M817.5,1160.828 C817.5,1170.828 835.5,1170.828 835.5,1170.828 C835.5,1170.828 853.5,1170.828 853.5,1160.828 " fill="none" style="stroke:#181818;stroke-width:1.5;"/><text fill="#000000" font-family="sans-serif" font-size="14" lengthAdjust="spacing" textLength="51" x="902.5" y="139.1018">Capit&#227;o</text><ellipse cx="931" cy="72.6358" fill="#E2E2F0" rx="8" ry="8" style="stroke:#181818;stroke-width:0.5;"/><path d="M931,80.6358 L931,107.6358 M918,88.6358 L944,88.6358 M931,107.6358 L918,122.6358 M931,107.6358 L944,122.6358 " fill="none" style="stroke:#181818;stroke-width:0.5;"/><text fill="#000000" font-family="sans-serif" font-size="14" lengthAdjust="spacing" textLength="51" x="902.5" y="1146.726">Capit&#227;o</text><ellipse cx="931" cy="1159.328" fill="#E2E2F0" rx="8" ry="8" style="stroke:#181818;stroke-width:0.5;"/><path d="M931,1167.328 L931,1194.328 M918,1175.328 L944,1175.328 M931,1194.328 L918,1209.328 M931,1194.328 L944,1209.328 " fill="none" style="stroke:#181818;stroke-width:0.5;"/><rect fill="#E8F0FE" height="52.1358" rx="2.5" ry="2.5" style="stroke:#555555;stroke-width:0.5;" width="136" x="1166" y="90.0679"/><text fill="#000000" font-family="sans-serif" font-size="14" lengthAdjust="spacing" textLength="31" x="1218.5" y="112.0339">View</text><text fill="#000000" font-family="sans-serif" font-size="14" lengthAdjust="spacing" textLength="122" x="1173" y="131.1018">(AtletaCreateView)</text><rect fill="#E8F0FE" height="52.1358" rx="2.5" ry="2.5" style="stroke:#555555;stroke-width:0.5;" width="136" x="1166" y="1131.7601"/><text fill="#000000" font-family="sans-serif" font-size="14" lengthAdjust="spacing" textLength="31" x="1218.5" y="1153.726">View</text><text fill="#000000" font-family="sans-serif" font-size="14" lengthAdjust="spacing" textLength="122" x="1173" y="1172.7939">(AtletaCreateView)</text><rect fill="#E8F0FE" height="52.1358" rx="2.5" ry="2.5" style="stroke:#555555;stroke-width:0.5;" width="88" x="1398" y="90.0679"/><text fill="#000000" font-family="sans-serif" font-size="14" lengthAdjust="spacing" textLength="36" x="1424" y="112.0339">RBAC</text><text fill="#000000" font-family="sans-serif" font-size="14" lengthAdjust="spacing" textLength="74" x="1405" y="131.1018">(Decorator)</text><rect fill="#E8F0FE" height="52.1358" rx="2.5" ry="2.5" style="stroke:#555555;stroke-width:0.5;" width="88" x="1398" y="1131.7601"/><text fill="#000000" font-family="sans-serif" font-size="14" lengthAdjust="spacing" textLength="36" x="1424" y="1153.726">RBAC</text><text fill="#000000" font-family="sans-serif" font-size="14" lengthAdjust="spacing" textLength="74" x="1405" y="1172.7939">(Decorator)</text><rect fill="#E8F0FE" height="52.1358" rx="2.5" ry="2.5" style="stroke:#555555;stroke-width:0.5;" width="95" x="1496" y="90.0679"/><text fill="#000000" font-family="sans-serif" font-size="14" lengthAdjust="spacing" textLength="34" x="1526.5" y="112.0339">Form</text><text fill="#000000" font-family="sans-serif" font-size="14" lengthAdjust="spacing" textLength="81" x="1503" y="131.1018">(AtletaForm)</text><rect fill="#E8F0FE" height="52.1358" rx="2.5" ry="2.5" style="stroke:#555555;stroke-width:0.5;" width="95" x="1496" y="1131.7601"/><text fill="#000000" font-family="sans-serif" font-size="14" lengthAdjust="spacing" textLength="34" x="1526.5" y="1153.726">Form</text><text fill="#000000" font-family="sans-serif" font-size="14" lengthAdjust="spacing" textLength="81" x="1503" y="1172.7939">(AtletaForm)</text><rect fill="#E8F0FE" height="52.1358" rx="2.5" ry="2.5" style="stroke:#555555;stroke-width:0.5;" width="61" x="1736" y="90.0679"/><text fill="#000000" font-family="sans-serif" font-size="14" lengthAdjust="spacing" textLength="42" x="1745.5" y="112.0339">Model</text><text fill="#000000" font-family="sans-serif" font-size="14" lengthAdjust="spacing" textLength="47" x="1743" y="131.1018">(Atleta)</text><rect fill="#E8F0FE" height="52.1358" rx="2.5" ry="2.5" style="stroke:#555555;stroke-width:0.5;" width="61" x="1736" y="1131.7601"/><text fill="#000000" font-family="sans-serif" font-size="14" lengthAdjust="spacing" textLength="42" x="1745.5" y="1153.726">Model</text><text fill="#000000" font-family="sans-serif" font-size="14" lengthAdjust="spacing" textLength="47" x="1743" y="1172.7939">(Atleta)</text><text fill="#000000" font-family="sans-serif" font-size="14" lengthAdjust="spacing" textLength="108" x="1872.5" y="139.1018">Banco de Dados</text><path d="M1911.5,88.1358 C1911.5,78.1358 1929.5,78.1358 1929.5,78.1358 C1929.5,78.1358 1947.5,78.1358 1947.5,88.1358 L1947.5,114.1358 C1947.5,124.1358 1929.5,124.1358 1929.5,124.1358 C1929.5,124.1358 1911.5,124.1358 1911.5,114.1358 L1911.5,88.1358 " fill="#E2E2F0" style="stroke:#181818;stroke-width:1.5;"/><path d="M1911.5,88.1358 C1911.5,98.1358 1929.5,98.1358 1929.5,98.1358 C1929.5,98.1358 1947.5,98.1358 1947.5,88.1358 " fill="none" style="stroke:#181818;stroke-width:1.5;"/><text fill="#000000" font-family="sans-serif" font-size="14" lengthAdjust="spacing" textLength="108" x="1872.5" y="1146.726">Banco de Dados</text><path d="M1911.5,1160.828 C1911.5,1150.828 1929.5,1150.828 1929.5,1150.828 C1929.5,1150.828 1947.5,1150.828 1947.5,1160.828 L1947.5,1186.828 C1947.5,1196.828 1929.5,1196.828 1929.5,1196.828 C1929.5,1196.828 1911.5,1196.828 1911.5,1186.828 L1911.5,1160.828 " fill="#E2E2F0" style="stroke:#181818;stroke-width:1.5;"/><path d="M1911.5,1160.828 C1911.5,1170.828 1929.5,1170.828 1929.5,1170.828 C1929.5,1170.828 1947.5,1170.828 1947.5,1160.828 " fill="none" style="stroke:#181818;stroke-width:1.5;"/><text fill="#000000" font-family="sans-serif" font-size="14" lengthAdjust="spacing" textLength="75" x="1996.5" y="139.1018">Moderador</text><ellipse cx="2037" cy="72.6358" fill="#E2E2F0" rx="8" ry="8" style="stroke:#181818;stroke-width:0.5;"/><path d="M2037,80.6358 L2037,107.6358 M2024,88.6358 L2050,88.6358 M2037,107.6358 L2024,122.6358 M2037,107.6358 L2050,122.6358 " fill="none" style="stroke:#181818;stroke-width:0.5;"/><text fill="#000000" font-family="sans-serif" font-size="14" lengthAdjust="spacing" textLength="75" x="1996.5" y="1146.726">Moderador</text><ellipse cx="2037" cy="1159.328" fill="#E2E2F0" rx="8" ry="8" style="stroke:#181818;stroke-width:0.5;"/><path d="M2037,1167.328 L2037,1194.328 M2024,1175.328 L2050,1175.328 M2037,1194.328 L2024,1209.328 M2037,1194.328 L2050,1209.328 " fill="none" style="stroke:#181818;stroke-width:0.5;"/><rect fill="#E8F0FE" height="52.1358" rx="2.5" ry="2.5" style="stroke:#555555;stroke-width:0.5;" width="145" x="2228.5" y="90.0679"/><text fill="#000000" font-family="sans-serif" font-size="14" lengthAdjust="spacing" textLength="31" x="2285.5" y="112.0339">View</text><text fill="#000000" font-family="sans-serif" font-size="14" lengthAdjust="spacing" textLength="131" x="2235.5" y="131.1018">(PartidaCreateView)</text><rect fill="#E8F0FE" height="52.1358" rx="2.5" ry="2.5" style="stroke:#555555;stroke-width:0.5;" width="145" x="2228.5" y="1131.7601"/><text fill="#000000" font-family="sans-serif" font-size="14" lengthAdjust="spacing" textLength="31" x="2285.5" y="1153.726">View</text><text fill="#000000" font-family="sans-serif" font-size="14" lengthAdjust="spacing" textLength="131" x="2235.5" y="1172.7939">(PartidaCreateView)</text><rect fill="#E8F0FE" height="33.0679" rx="2.5" ry="2.5" style="stroke:#555555;stroke-width:0.5;" width="50" x="2527" y="109.1358"/><text fill="#000000" font-family="sans-serif" font-size="14" lengthAdjust="spacing" textLength="36" x="2534" y="131.1018">RBAC</text><rect fill="#E8F0FE" height="33.0679" rx="2.5" ry="2.5" style="stroke:#555555;stroke-width:0.5;" width="50" x="2527" y="1131.7601"/><text fill="#000000" font-family="sans-serif" font-size="14" lengthAdjust="spacing" textLength="36" x="2534" y="1153.726">RBAC</text><rect fill="#E8F0FE" height="52.1358" rx="2.5" ry="2.5" style="stroke:#555555;stroke-width:0.5;" width="70" x="2587" y="90.0679"/><text fill="#000000" font-family="sans-serif" font-size="14" lengthAdjust="spacing" textLength="42" x="2601" y="112.0339">Model</text><text fill="#000000" font-family="sans-serif" font-size="14" lengthAdjust="spacing" textLength="56" x="2594" y="131.1018">(Partida)</text><rect fill="#E8F0FE" height="52.1358" rx="2.5" ry="2.5" style="stroke:#555555;stroke-width:0.5;" width="70" x="2587" y="1131.7601"/><text fill="#000000" font-family="sans-serif" font-size="14" lengthAdjust="spacing" textLength="42" x="2601" y="1153.726">Model</text><text fill="#000000" font-family="sans-serif" font-size="14" lengthAdjust="spacing" textLength="56" x="2594" y="1172.7939">(Partida)</text><rect fill="#E8F0FE" height="52.1358" rx="2.5" ry="2.5" style="stroke:#555555;stroke-width:0.5;" width="73" x="2667" y="90.0679"/><text fill="#000000" font-family="sans-serif" font-size="14" lengthAdjust="spacing" textLength="42" x="2682.5" y="112.0339">Model</text><text fill="#000000" font-family="sans-serif" font-size="14" lengthAdjust="spacing" textLength="59" x="2674" y="131.1018">(Sumula)</text><rect fill="#E8F0FE" height="52.1358" rx="2.5" ry="2.5" style="stroke:#555555;stroke-width:0.5;" width="73" x="2667" y="1131.7601"/><text fill="#000000" font-family="sans-serif" font-size="14" lengthAdjust="spacing" textLength="42" x="2682.5" y="1153.726">Model</text><text fill="#000000" font-family="sans-serif" font-size="14" lengthAdjust="spacing" textLength="59" x="2674" y="1172.7939">(Sumula)</text><text fill="#000000" font-family="sans-serif" font-size="14" lengthAdjust="spacing" textLength="108" x="2940.5" y="139.1018">Banco de Dados</text><path d="M2979.5,88.1358 C2979.5,78.1358 2997.5,78.1358 2997.5,78.1358 C2997.5,78.1358 3015.5,78.1358 3015.5,88.1358 L3015.5,114.1358 C3015.5,124.1358 2997.5,124.1358 2997.5,124.1358 C2997.5,124.1358 2979.5,124.1358 2979.5,114.1358 L2979.5,88.1358 " fill="#E2E2F0" style="stroke:#181818;stroke-width:1.5;"/><path d="M2979.5,88.1358 C2979.5,98.1358 2997.5,98.1358 2997.5,98.1358 C2997.5,98.1358 3015.5,98.1358 3015.5,88.1358 " fill="none" style="stroke:#181818;stroke-width:1.5;"/><text fill="#000000" font-family="sans-serif" font-size="14" lengthAdjust="spacing" textLength="108" x="2940.5" y="1146.726">Banco de Dados</text><path d="M2979.5,1160.828 C2979.5,1150.828 2997.5,1150.828 2997.5,1150.828 C2997.5,1150.828 3015.5,1150.828 3015.5,1160.828 L3015.5,1186.828 C3015.5,1196.828 2997.5,1196.828 2997.5,1196.828 C2997.5,1196.828 2979.5,1196.828 2979.5,1186.828 L2979.5,1160.828 " fill="#E2E2F0" style="stroke:#181818;stroke-width:1.5;"/><path d="M2979.5,1160.828 C2979.5,1170.828 2997.5,1170.828 2997.5,1170.828 C2997.5,1170.828 3015.5,1170.828 3015.5,1160.828 " fill="none" style="stroke:#181818;stroke-width:1.5;"/><rect fill="#E8F0FE" height="52.1358" rx="2.5" ry="2.5" style="stroke:#555555;stroke-width:0.5;" width="87" x="3064.5" y="90.0679"/><text fill="#000000" font-family="sans-serif" font-size="14" lengthAdjust="spacing" textLength="42" x="3087" y="112.0339">Signal</text><text fill="#000000" font-family="sans-serif" font-size="14" lengthAdjust="spacing" textLength="73" x="3071.5" y="131.1018">(post_save)</text><rect fill="#E8F0FE" height="52.1358" rx="2.5" ry="2.5" style="stroke:#555555;stroke-width:0.5;" width="87" x="3064.5" y="1131.7601"/><text fill="#000000" font-family="sans-serif" font-size="14" lengthAdjust="spacing" textLength="42" x="3087" y="1153.726">Signal</text><text fill="#000000" font-family="sans-serif" font-size="14" lengthAdjust="spacing" textLength="73" x="3071.5" y="1172.7939">(post_save)</text><text fill="#000000" font-family="sans-serif" font-size="14" lengthAdjust="spacing" textLength="124" x="3161.5" y="139.1018">Moderador/Admin</text><ellipse cx="3226.5" cy="72.6358" fill="#E2E2F0" rx="8" ry="8" style="stroke:#181818;stroke-width:0.5;"/><path d="M3226.5,80.6358 L3226.5,107.6358 M3213.5,88.6358 L3239.5,88.6358 M3226.5,107.6358 L3213.5,122.6358 M3226.5,107.6358 L3239.5,122.6358 " fill="none" style="stroke:#181818;stroke-width:0.5;"/><text fill="#000000" font-family="sans-serif" font-size="14" lengthAdjust="spacing" textLength="124" x="3161.5" y="1146.726">Moderador/Admin</text><ellipse cx="3226.5" cy="1159.328" fill="#E2E2F0" rx="8" ry="8" style="stroke:#181818;stroke-width:0.5;"/><path d="M3226.5,1167.328 L3226.5,1194.328 M3213.5,1175.328 L3239.5,1175.328 M3226.5,1194.328 L3213.5,1209.328 M3226.5,1194.328 L3239.5,1209.328 " fill="none" style="stroke:#181818;stroke-width:0.5;"/><rect fill="#E8F0FE" height="52.1358" rx="2.5" ry="2.5" style="stroke:#555555;stroke-width:0.5;" width="155" x="3395" y="90.0679"/><text fill="#000000" font-family="sans-serif" font-size="14" lengthAdjust="spacing" textLength="31" x="3457" y="112.0339">View</text><text fill="#000000" font-family="sans-serif" font-size="14" lengthAdjust="spacing" textLength="141" x="3402" y="131.1018">(PlanilhaUploadView)</text><rect fill="#E8F0FE" height="52.1358" rx="2.5" ry="2.5" style="stroke:#555555;stroke-width:0.5;" width="155" x="3395" y="1131.7601"/><text fill="#000000" font-family="sans-serif" font-size="14" lengthAdjust="spacing" textLength="31" x="3457" y="1153.726">View</text><text fill="#000000" font-family="sans-serif" font-size="14" lengthAdjust="spacing" textLength="141" x="3402" y="1172.7939">(PlanilhaUploadView)</text><rect fill="#E8F0FE" height="52.1358" rx="2.5" ry="2.5" style="stroke:#555555;stroke-width:0.5;" width="136" x="3624.5" y="90.0679"/><text fill="#000000" font-family="sans-serif" font-size="14" lengthAdjust="spacing" textLength="64" x="3660.5" y="112.0339">Validador</text><text fill="#000000" font-family="sans-serif" font-size="14" lengthAdjust="spacing" textLength="122" x="3631.5" y="131.1018">(PlanilhaValidator)</text><rect fill="#E8F0FE" height="52.1358" rx="2.5" ry="2.5" style="stroke:#555555;stroke-width:0.5;" width="136" x="3624.5" y="1131.7601"/><text fill="#000000" font-family="sans-serif" font-size="14" lengthAdjust="spacing" textLength="64" x="3660.5" y="1153.726">Validador</text><text fill="#000000" font-family="sans-serif" font-size="14" lengthAdjust="spacing" textLength="122" x="3631.5" y="1172.7939">(PlanilhaValidator)</text><rect fill="#E8F0FE" height="52.1358" rx="2.5" ry="2.5" style="stroke:#555555;stroke-width:0.5;" width="124" x="3868.5" y="90.0679"/><text fill="#000000" font-family="sans-serif" font-size="14" lengthAdjust="spacing" textLength="42" x="3909.5" y="112.0339">Model</text><text fill="#000000" font-family="sans-serif" font-size="14" lengthAdjust="spacing" textLength="110" x="3875.5" y="131.1018">(PlanilhaUpload)</text><rect fill="#E8F0FE" height="52.1358" rx="2.5" ry="2.5" style="stroke:#555555;stroke-width:0.5;" width="124" x="3868.5" y="1131.7601"/><text fill="#000000" font-family="sans-serif" font-size="14" lengthAdjust="spacing" textLength="42" x="3909.5" y="1153.726">Model</text><text fill="#000000" font-family="sans-serif" font-size="14" lengthAdjust="spacing" textLength="110" x="3875.5" y="1172.7939">(PlanilhaUpload)</text><rect fill="#E8F0FE" height="52.1358" rx="2.5" ry="2.5" style="stroke:#555555;stroke-width:0.5;" width="70" x="4002.5" y="90.0679"/><text fill="#000000" font-family="sans-serif" font-size="14" lengthAdjust="spacing" textLength="42" x="4016.5" y="112.0339">Model</text><text fill="#000000" font-family="sans-serif" font-size="14" lengthAdjust="spacing" textLength="56" x="4009.5" y="131.1018">(Partida)</text><rect fill="#E8F0FE" height="52.1358" rx="2.5" ry="2.5" style="stroke:#555555;stroke-width:0.5;" width="70" x="4002.5" y="1131.7601"/><text fill="#000000" font-family="sans-serif" font-size="14" lengthAdjust="spacing" textLength="42" x="4016.5" y="1153.726">Model</text><text fill="#000000" font-family="sans-serif" font-size="14" lengthAdjust="spacing" textLength="56" x="4009.5" y="1172.7939">(Partida)</text><text fill="#000000" font-family="sans-serif" font-size="14" lengthAdjust="spacing" textLength="108" x="4152.5" y="139.1018">Banco de Dados</text><path d="M4191.5,88.1358 C4191.5,78.1358 4209.5,78.1358 4209.5,78.1358 C4209.5,78.1358 4227.5,78.1358 4227.5,88.1358 L4227.5,114.1358 C4227.5,124.1358 4209.5,124.1358 4209.5,124.1358 C4209.5,124.1358 4191.5,124.1358 4191.5,114.1358 L4191.5,88.1358 " fill="#E2E2F0" style="stroke:#181818;stroke-width:1.5;"/><path d="M4191.5,88.1358 C4191.5,98.1358 4209.5,98.1358 4209.5,98.1358 C4209.5,98.1358 4227.5,98.1358 4227.5,88.1358 " fill="none" style="stroke:#181818;stroke-width:1.5;"/><text fill="#000000" font-family="sans-serif" font-size="14" lengthAdjust="spacing" textLength="108" x="4152.5" y="1146.726">Banco de Dados</text><path d="M4191.5,1160.828 C4191.5,1150.828 4209.5,1150.828 4209.5,1150.828 C4209.5,1150.828 4227.5,1150.828 4227.5,1160.828 L4227.5,1186.828 C4227.5,1196.828 4209.5,1196.828 4209.5,1196.828 C4209.5,1196.828 4191.5,1196.828 4191.5,1186.828 L4191.5,1160.828 " fill="#E2E2F0" style="stroke:#181818;stroke-width:1.5;"/><path d="M4191.5,1160.828 C4191.5,1170.828 4209.5,1170.828 4209.5,1170.828 C4209.5,1170.828 4227.5,1170.828 4227.5,1160.828 " fill="none" style="stroke:#181818;stroke-width:1.5;"/><rect fill="#FFFFFF" height="95.118" style="stroke:#AAAAAA;stroke-width:1.0;" width="10" x="1229" y="178.9098"/><rect fill="#FFFFFF" height="758.6142" style="stroke:#AAAAAA;stroke-width:1.0;" width="10" x="1229" y="341.1459"/><rect fill="#FFFFFF" height="31.706" style="stroke:#AAAAAA;stroke-width:1.0;" width="10" x="1437" y="210.6158"/><rect fill="#FFFFFF" height="31.706" style="stroke:#AAAAAA;stroke-width:1.0;" width="10" x="1437" y="372.8519"/><rect fill="#FFFFFF" height="353.7481" style="stroke:#AAAAAA;stroke-width:1.0;" width="10" x="1538.5" y="436.2639"/><rect fill="#FFFFFF" height="95.118" style="stroke:#AAAAAA;stroke-width:1.0;" width="10" x="1761.5" y="955.23"/><rect fill="#FFFFFF" height="31.706" style="stroke:#AAAAAA;stroke-width:1.0;" width="10" x="1924.5" y="467.9699"/><rect fill="#FFFFFF" height="31.706" style="stroke:#AAAAAA;stroke-width:1.0;" width="10" x="1924.5" y="986.936"/><line style="stroke:#000000;stroke-width:1.0;stroke-dasharray:2.0,2.0;" x1="0" x2="4296.5" y1="154.2038" y2="154.2038"/><polygon fill="#181818" points="1217,174.9098,1227,178.9098,1217,182.9098,1221,178.9098" style="stroke:#181818;stroke-width:1.0;"/><line style="stroke:#181818;stroke-width:1.5;" x1="931" x2="1223" y1="178.9098" y2="178.9098"/><text fill="#000000" font-family="sans-serif" font-size="13" lengthAdjust="spacing" textLength="132" x="938" y="173.1008">GET /atletas/cadastrar</text><polygon fill="#181818" points="1425,206.6158,1435,210.6158,1425,214.6158,1429,210.6158" style="stroke:#181818;stroke-width:1.0;"/><line style="stroke:#181818;stroke-width:1.5;" x1="1239" x2="1431" y1="210.6158" y2="210.6158"/><text fill="#000000" font-family="sans-serif" font-size="13" lengthAdjust="spacing" textLength="179" x="1246" y="204.8068">verificar_sessao() + nivel &gt;= N1</text><polygon fill="#181818" points="1250,238.3218,1240,242.3218,1250,246.3218,1246,242.3218" style="stroke:#181818;stroke-width:1.0;"/><line style="stroke:#181818;stroke-width:1.5;stroke-dasharray:2.0,2.0;" x1="1244" x2="1441" y1="242.3218" y2="242.3218"/><text fill="#000000" font-family="sans-serif" font-size="13" lengthAdjust="spacing" textLength="65" x="1256" y="236.5128">autorizado</text><polygon fill="#181818" points="942,270.0278,932,274.0278,942,278.0278,938,274.0278" style="stroke:#181818;stroke-width:1.0;"/><line style="stroke:#181818;stroke-width:1.5;stroke-dasharray:2.0,2.0;" x1="936" x2="1233" y1="274.0278" y2="274.0278"/><text fill="#000000" font-family="sans-serif" font-size="13" lengthAdjust="spacing" textLength="139" x="948" y="268.2188">Formul&#225;rio de cadastro</text><polygon fill="#181818" points="1217,337.1459,1227,341.1459,1217,345.1459,1221,341.1459" style="stroke:#181818;stroke-width:1.0;"/><line style="stroke:#181818;stroke-width:1.5;" x1="931" x2="1223" y1="341.1459" y2="341.1459"/><text fill="#000000" font-family="sans-serif" font-size="13" lengthAdjust="spacing" textLength="141" x="938" y="299.9248">POST /atletas/cadastrar</text><text fill="#000000" font-family="sans-serif" font-size="13" lengthAdjust="spacing" textLength="139" x="938" y="317.6308">{nome, matricula, sexo,</text><text fill="#000000" font-family="sans-serif" font-size="13" lengthAdjust="spacing" textLength="139" x="938" y="335.3369">data_nascimento, foto}</text><polygon fill="#181818" points="1425,368.8519,1435,372.8519,1425,376.8519,1429,372.8519" style="stroke:#181818;stroke-width:1.0;"/><line style="stroke:#181818;stroke-width:1.5;" x1="1239" x2="1431" y1="372.8519" y2="372.8519"/><text fill="#000000" font-family="sans-serif" font-size="13" lengthAdjust="spacing" textLength="179" x="1246" y="367.0429">verificar_sessao() + nivel &gt;= N1</text><polygon fill="#181818" points="1250,400.5579,1240,404.5579,1250,408.5579,1246,404.5579" style="stroke:#181818;stroke-width:1.0;"/><line style="stroke:#181818;stroke-width:1.5;stroke-dasharray:2.0,2.0;" x1="1244" x2="1441" y1="404.5579" y2="404.5579"/><text fill="#000000" font-family="sans-serif" font-size="13" lengthAdjust="spacing" textLength="65" x="1256" y="398.7489">autorizado</text><polygon fill="#181818" points="1526.5,432.2639,1536.5,436.2639,1526.5,440.2639,1530.5,436.2639" style="stroke:#181818;stroke-width:1.0;"/><line style="stroke:#181818;stroke-width:1.5;" x1="1239" x2="1532.5" y1="436.2639" y2="436.2639"/><text fill="#000000" font-family="sans-serif" font-size="13" lengthAdjust="spacing" textLength="85" x="1246" y="430.4549">validar(dados)</text><polygon fill="#181818" points="1912.5,463.9699,1922.5,467.9699,1912.5,471.9699,1916.5,467.9699" style="stroke:#181818;stroke-width:1.0;"/><line style="stroke:#181818;stroke-width:1.5;" x1="1548.5" x2="1918.5" y1="467.9699" y2="467.9699"/><text fill="#000000" font-family="sans-serif" font-size="13" lengthAdjust="spacing" textLength="225" x="1555.5" y="462.1609">SELECT COUNT(*) WHERE matricula=?</text><polygon fill="#181818" points="1559.5,495.6759,1549.5,499.6759,1559.5,503.6759,1555.5,499.6759" style="stroke:#181818;stroke-width:1.0;"/><line style="stroke:#181818;stroke-width:1.5;stroke-dasharray:2.0,2.0;" x1="1553.5" x2="1928.5" y1="499.6759" y2="499.6759"/><text fill="#000000" font-family="sans-serif" font-size="13" lengthAdjust="spacing" textLength="35" x="1565.5" y="493.8669">count</text><path d="M882.5,514.6759 L945.5,514.6759 L945.5,524.382 L935.5,534.382 L882.5,534.382 L882.5,514.6759 " fill="#EEEEEE" style="stroke:#888888;stroke-width:1.5;"/><rect fill="none" height="600.0841" style="stroke:#888888;stroke-width:1.5;" width="1124" x="882.5" y="514.6759"/><text fill="#000000" font-family="sans-serif" font-size="13" font-weight="bold" lengthAdjust="spacing" textLength="18" x="897.5" y="529.573">alt</text><text fill="#000000" font-family="sans-serif" font-size="11" font-weight="bold" lengthAdjust="spacing" textLength="111" x="960.5" y="528.4349">[matr&#237;cula j&#225; existe]</text><polygon fill="#181818" points="1250,554.088,1240,558.088,1250,562.088,1246,558.088" style="stroke:#181818;stroke-width:1.0;"/><line style="stroke:#181818;stroke-width:1.5;stroke-dasharray:2.0,2.0;" x1="1244" x2="1537.5" y1="558.088" y2="558.088"/><text fill="#000000" font-family="sans-serif" font-size="13" lengthAdjust="spacing" textLength="246" x="1256" y="552.279">ValidationError("Matr&#237;cula j&#225; cadastrada")</text><polygon fill="#181818" points="942,585.794,932,589.794,942,593.794,938,589.794" style="stroke:#181818;stroke-width:1.0;"/><line style="stroke:#181818;stroke-width:1.5;stroke-dasharray:2.0,2.0;" x1="936" x2="1228" y1="589.794" y2="589.794"/><text fill="#000000" font-family="sans-serif" font-size="13" lengthAdjust="spacing" textLength="195" x="948" y="583.985">HTTP 200 - Formul&#225;rio com erros</text><line style="stroke:#888888;stroke-width:1.0;stroke-dasharray:2.0,2.0;" x1="882.5" x2="2006.5" y1="598.794" y2="598.794"/><text fill="#000000" font-family="sans-serif" font-size="11" font-weight="bold" lengthAdjust="spacing" textLength="95" x="887.5" y="610.5529">[matr&#237;cula &#250;nica]</text><line style="stroke:#181818;stroke-width:1.5;" x1="1548.5" x2="1590.5" y1="656.1879" y2="656.1879"/><line style="stroke:#181818;stroke-width:1.5;" x1="1590.5" x2="1590.5" y1="656.1879" y2="669.1879"/><line style="stroke:#181818;stroke-width:1.5;" x1="1549.5" x2="1590.5" y1="669.1879" y2="669.1879"/><polygon fill="#181818" points="1559.5,665.1879,1549.5,669.1879,1559.5,673.1879,1555.5,669.1879" style="stroke:#181818;stroke-width:1.0;"/><text fill="#000000" font-family="sans-serif" font-size="13" lengthAdjust="spacing" textLength="110" x="1555.5" y="632.6729">validar_matricula()</text><text fill="#000000" font-family="sans-serif" font-size="13" lengthAdjust="spacing" textLength="199" x="1555.5" y="650.3789">[RN001: s&#243; n&#250;meros, 6-10 d&#237;gitos]</text><line style="stroke:#181818;stroke-width:1.5;" x1="1548.5" x2="1590.5" y1="718.6" y2="718.6"/><line style="stroke:#181818;stroke-width:1.5;" x1="1590.5" x2="1590.5" y1="718.6" y2="731.6"/><line style="stroke:#181818;stroke-width:1.5;" x1="1549.5" x2="1590.5" y1="731.6" y2="731.6"/><polygon fill="#181818" points="1559.5,727.6,1549.5,731.6,1559.5,735.6,1555.5,731.6" style="stroke:#181818;stroke-width:1.0;"/><text fill="#000000" font-family="sans-serif" font-size="13" lengthAdjust="spacing" textLength="157" x="1555.5" y="695.0849">validar_data_nascimento()</text><text fill="#000000" font-family="sans-serif" font-size="13" lengthAdjust="spacing" textLength="193" x="1555.5" y="712.7909">[RN002: 14-100 anos, n&#227;o futura]</text><path d="M892.5,746.6 L955.5,746.6 L955.5,756.306 L945.5,766.306 L892.5,766.306 L892.5,746.6 " fill="#EEEEEE" style="stroke:#888888;stroke-width:1.5;"/><rect fill="none" height="361.1601" style="stroke:#888888;stroke-width:1.5;" width="1104" x="892.5" y="746.6"/><text fill="#000000" font-family="sans-serif" font-size="13" font-weight="bold" lengthAdjust="spacing" textLength="18" x="907.5" y="761.497">alt</text><text fill="#000000" font-family="sans-serif" font-size="11" font-weight="bold" lengthAdjust="spacing" textLength="92" x="970.5" y="760.3589">[dados inv&#225;lidos]</text><polygon fill="#181818" points="1250,786.012,1240,790.012,1250,794.012,1246,790.012" style="stroke:#181818;stroke-width:1.0;"/><line style="stroke:#181818;stroke-width:1.5;stroke-dasharray:2.0,2.0;" x1="1244" x2="1542.5" y1="790.012" y2="790.012"/><text fill="#000000" font-family="sans-serif" font-size="13" lengthAdjust="spacing" textLength="129" x="1256" y="784.203">ValidationError(erros)</text><polygon fill="#181818" points="942,817.718,932,821.718,942,825.718,938,821.718" style="stroke:#181818;stroke-width:1.0;"/><line style="stroke:#181818;stroke-width:1.5;stroke-dasharray:2.0,2.0;" x1="936" x2="1228" y1="821.718" y2="821.718"/><text fill="#000000" font-family="sans-serif" font-size="13" lengthAdjust="spacing" textLength="195" x="948" y="815.909">HTTP 200 - Formul&#225;rio com erros</text><line style="stroke:#888888;stroke-width:1.0;stroke-dasharray:2.0,2.0;" x1="892.5" x2="1996.5" y1="830.718" y2="830.718"/><text fill="#000000" font-family="sans-serif" font-size="11" font-weight="bold" lengthAdjust="spacing" textLength="82" x="897.5" y="842.4769">[dados v&#225;lidos]</text><polygon fill="#181818" points="1250,866.4059,1240,870.4059,1250,874.4059,1246,870.4059" style="stroke:#181818;stroke-width:1.0;"/><line style="stroke:#181818;stroke-width:1.5;stroke-dasharray:2.0,2.0;" x1="1244" x2="1542.5" y1="870.4059" y2="870.4059"/><text fill="#000000" font-family="sans-serif" font-size="13" lengthAdjust="spacing" textLength="68" x="1256" y="864.5969">form v&#225;lido</text><polygon fill="#181818" points="1749.5,951.23,1759.5,955.23,1749.5,959.23,1753.5,955.23" style="stroke:#181818;stroke-width:1.0;"/><line style="stroke:#181818;stroke-width:1.5;" x1="1239" x2="1755.5" y1="955.23" y2="955.23"/><text fill="#000000" font-family="sans-serif" font-size="13" lengthAdjust="spacing" textLength="125" x="1246" y="896.3029">Atleta.objects.create(</text><text fill="#000000" font-family="sans-serif" font-size="13" lengthAdjust="spacing" textLength="134" x="1246" y="914.0089">matricula, nome, sexo,</text><text fill="#000000" font-family="sans-serif" font-size="13" lengthAdjust="spacing" textLength="137" x="1246" y="931.715">data_nascimento, foto,</text><text fill="#000000" font-family="sans-serif" font-size="13" lengthAdjust="spacing" textLength="144" x="1246" y="949.421">atletica=capitao.atletica)</text><polygon fill="#181818" points="1912.5,982.936,1922.5,986.936,1912.5,990.936,1916.5,986.936" style="stroke:#181818;stroke-width:1.0;"/><line style="stroke:#181818;stroke-width:1.5;" x1="1771.5" x2="1918.5" y1="986.936" y2="986.936"/><text fill="#000000" font-family="sans-serif" font-size="13" lengthAdjust="spacing" textLength="134" x="1778.5" y="981.127">INSERT INTO atleta (...)</text><polygon fill="#181818" points="1782.5,1014.642,1772.5,1018.642,1782.5,1022.642,1778.5,1018.642" style="stroke:#181818;stroke-width:1.0;"/><line style="stroke:#181818;stroke-width:1.5;stroke-dasharray:2.0,2.0;" x1="1776.5" x2="1928.5" y1="1018.642" y2="1018.642"/><text fill="#000000" font-family="sans-serif" font-size="13" lengthAdjust="spacing" textLength="48" x="1788.5" y="1012.833">atleta.id</text><polygon fill="#181818" points="1250,1046.348,1240,1050.348,1250,1054.348,1246,1050.348" style="stroke:#181818;stroke-width:1.0;"/><line style="stroke:#181818;stroke-width:1.5;stroke-dasharray:2.0,2.0;" x1="1244" x2="1765.5" y1="1050.348" y2="1050.348"/><text fill="#000000" font-family="sans-serif" font-size="13" lengthAdjust="spacing" textLength="59" x="1256" y="1044.539">atleta_obj</text><polygon fill="#181818" points="942,1095.7601,932,1099.7601,942,1103.7601,938,1099.7601" style="stroke:#181818;stroke-width:1.0;"/><line style="stroke:#181818;stroke-width:1.5;stroke-dasharray:2.0,2.0;" x1="936" x2="1233" y1="1099.7601" y2="1099.7601"/><text fill="#000000" font-family="sans-serif" font-size="13" lengthAdjust="spacing" textLength="163" x="948" y="1076.245">HTTP 302 - Redirect /atletas</text><text fill="#000000" font-family="sans-serif" font-size="13" lengthAdjust="spacing" textLength="274" x="948" y="1093.9511">+ mensagem "Atleta cadastrado com sucesso"</text><line style="stroke:#000000;stroke-width:1.0;stroke-dasharray:2.0,2.0;" x1="0" x2="4296.5" y1="1121.7601" y2="1121.7601"/><!--SRC=[rLdRRjl86RxdKmpKYqYD9SkoamO6d8KFSdRRh2DOqhR0sX36v5YU3JcZdI4LeqNUOM_s0O9U52sGgxtRMxr9dwJ_FmToIDDskXU5gqqs8lMVJzy_PCxpb94JJfUAPbIJX94f-x7O_4l4d98-cKYLqvJySJmbssJwvcGUHVez5oiAv4G39HCnErHAVfZTyFYzO5gJdS6B5g8tIXQh8waIfevbAXNvtIlpQI4zahT7D7w_10wHEEBJ5_XVG0p_ptdCLrJaTuZ7hqw7f-DxY4CJNfXFYmbl-JNy5Qn6VMW-KVIC_FlddvxK7p1fUj8VxkoJmo9d0dobctzi_Yv9B3CoKJnZN4bo64Dwv5CqNx0FAxfarWaekuONZCoKZAcjJd53YP1tl8fed4EIEdDTR3ufBYz4zvYkU0xysz_APFimoRZeTGWK-Lmp5GKbGJhVSVO16DxA9HVutTAPophX-T7XCH22VJS4ouw9nDBY3r52Stf5DIET8ofYYVQUq4HgGt5o54MecVHVMybadqpUJMTaEyMh2_6tZEQAnqLAjw0EmSsFw1DVqvmvKoBB1m9G7V1J7oVLRJBtAcPZMsHOWFNa21YduxVZunafT44XLkJFNu_FnwGKSV1LnGnc0qU_qgdOakiS0Wzz8aMkm46O3G9q5bcKi90necbEOiKIXkE4QyB5UlCfvGc4mnYy-OpgY2oipV1xB9LYELXFhBv-42sCkdKtvrASKfwo1EW2dSPJuXYGrGHydtmzcqt8Q3Y4qkeS1_PyKzhJkH3VPqnegCACB9dO_1D2WHFm_EnqEDoxZ5WAUGrzyPnjbXQWTY6lVc1ntc9WPM4z6ojNqWjgIjfb1ML1GWW98qk8IuhNsE2jQyLK03yaewdYu01Qgs24V7z-EjmPNWBPVU7R7Oum72pX2jmYsrvKlzHOq-ag5kysg_xDUDREtc1kjULKggn8JOjZVmcvfhPu_Wi3RDirB806H64B8smB9gUuvYgZCPKV7p6k4hocM19giP8fnpgrmhgLt1wKcQceb_larNCItr2bjw3n-EPNRPhtGi2OyXS4lcLCIMpfZ5obC71IwBrBwnNcqxUDAqPp_-7w7mDO6votjfe1QzXCWLjvhT9ShSud9uUpiIKykA7w9lGEp6zKsC4f1RbEKhs2yTEeudT_SlVhnTkmmmsYM748jGOjL7QnIteFkj-iNsZTcoj9LN9NPPLXcEyOR1ERbjwfdFj2utwBQIs6eLd6j2UxYepsoJ45Fn0eeDWEOStCALcnL18Foqzz4S6SFEO3wSBS7ExqolN3_s0WtrnGsRfhM6a0Hf3NQkN0RwqRnma3PAIWebetHdL278obNBombFYjJWZR44jBIajbxZssluoYo7c4XOwc-c5EZIYz7TjmKLNj3yOZG-kQOuHpaYb-ZMkBxv0UUKu4NxEKl3uWPplrtMKKMRv-fHKM7wduNy6ug86k8wSCQBsnTq33cLdZDNQs-6Unuew31YqojaLgUzUjX0c8KLm8gcCO5oA7uNqjS_cn4P7_RKXARHY82gUw2MOts1HDiKI6oCpxKRMS7B-Rdyswl-yzl2kE8cJgLvfYE9RbzRLmPFV2OF_xOVE9i5j0DfobLdlbrtV6Ljpu4BfKj_DjdT6d9A4TdB4jsG_GBom4F1inH4ExsmNsR7uLa8dIbcRO5gNpNOldGpnvwSql7gy1qb_sTuOasNnUybpgo_j5DOgb50ZpSsSFP0m95IXFuB2vBl92qKk_p9dibU0ljK6Bny9dFEurWSKa7k_zbl0vVBJcF6ZCDLuxYbOJ0XjUsw64Uxzfle7Tf_KWDZEp2vjIrNgs5nzgGBXlcXWIUn1RtmR-Hg- -uDbXYBUi1MKhV7Cs7P_Fu9_PEs8d0kaE1eC6ErQutMri9tWtBCU0tq5rp-2q1IrjEF0WqMIn9ZwOiUPIuKROXNXEoeDEns5QsKCshRem6qwdgTLChl-7xMCNjWzOmEpJ0nZu4yI_X196tZ1LtPv2kqBvFFL5P1SNaIzt1y_9Cjjymigs-yaV04fmgBoezXGi8Cotyl3VkgGuHSqjPTA-ffIRoMxxmk6aEHcsX5i9fmNwOUccNxIQD3HE-L9GbBIIEbzekcPEcBaVHI0JktfIm_YLDGz07dTt07ZsOy5N3AOzJ1IHmtnnDzPSGwFX7PX1CZ43De6VpTovWJLjYwGofYaC7h0uG7uRjsWIOl_kuzW_gcF_RcJv-e47zuF_Rg3FKtlmiVve0phkEmQsyadZE5ZHVFDvpRW6Tqig06ikO9nSXkBzf7E9RaviCoghODZ4Je8PkzkOiIuZfC69wKRYVgZJqU9uhOtMtK23JJyI-xBmDRb5h8t90JuE2NJvYd6iACHhj5KwM48VgGKc0F08aeYOmxhEd52IzNVQyDUjLpdBLYcIkVMgJ45zlweSBytmd0jjx6bwFtqWlfO3syH78IndVBh7YWJm4rrCw89blKTiiG9RSZ2jiArCWYL6TCF7JpYUBaCst_ZiJYucbJ1VqSu10vK1XwinNw8MZEzzeENwluwGrQpLRhpYUC0dXZL5jhEVB23kxPFvAfKqCV2HKi7J6nf0YNxg6BXd3kDAiQLfi106DRIpgfmoYFVA8TxB5iIphm8yxfcBTl1p4ctWAlIRtqK_ksI3x83DBTx-n5vUteEDDMLEqGCGsS3IqMC0kMT0ppYBis3UZdmhPmM07rKmwjToS9lgsm32hFFHtCzyBwY2C7QRO_FOeunXn-VxWrYlBmE-CXp1QTIf38PC5RIeOcXobvfND56IwOL_Gs61BPPf0OS18gyKNmAK_GBjgxVCKOIQizdzaXrCvXpmOi4qb1bCTfGP8gGzk6RuJagRR_Ih1sJIT0b0dMToGQzmuuwfN9Y3av6Ri1n64LNsO0L7Kb7WgmR89PovhZZwT6bFpvQWUWM3vwr0QP2PvW5GiHHfk5oKHy5mnIyZJaYPB2YV9ZAxGbaKfbwX87LEyq8VF4EXpxP8YvPvE8Hj9TOEb-V8WkannMlOBiIPUQz4orN03j-wpROcxJDQFmMgHzZjKJ4nNwnTtshInGVhzyO2xgTIhj0AUrWgxH6qr6bVDLJBqEYHJQXsQCGMnXl8rXxnsYvKaWOk1HX8kizBk5fp2eM9o7ddr6-LkcVSLKkNQrnj9ZLy25Bke_Yi5xwbcljZz3pOG1wfeu0wSCp-vex1OTxBK_3zfVLb8FyN7pnDU8PjRW6-hSeWMFy1]--></g></svg>